<svg width="55" height="55" viewBox="0 0 55 55" fill="none" xmlns="http://www.w3.org/2000/svg">
<path d="M48.9882 10.9896C48.7279 11.2435 48.4353 11.4637 48.1176 11.6449C47.6227 11.8252 47.1732 12.1074 46.7997 12.4724C46.4262 12.8374 46.1374 13.2767 45.9529 13.7604C45.8744 13.9523 45.7716 14.1338 45.6471 14.3008C45.5921 14.4072 45.5081 14.4966 45.4042 14.5591C45.3004 14.6216 45.1808 14.6547 45.0588 14.6547C44.9369 14.6547 44.8173 14.6216 44.7134 14.5591C44.6096 14.4966 44.5255 14.4072 44.4706 14.3008C44.1529 13.7719 43.8706 13.22 43.5529 12.6912C43.4507 12.5336 43.3141 12.4001 43.1529 12.3003C42.6353 12.0013 42.1059 11.7369 41.5765 11.4494C41.0471 11.162 40.9647 10.4722 41.5765 10.2192C42.2207 9.98167 42.8056 9.61271 43.2925 9.13692C43.7794 8.66113 44.1569 8.08942 44.4 7.45988C44.4824 7.27593 44.7059 7.14946 44.8588 7H45.2706C45.573 7.35579 45.8372 7.74106 46.0588 8.14973C46.3954 8.9242 47.0288 9.53912 47.8235 9.86283C48.2376 10.0861 48.6312 10.3438 49 10.6331L48.9882 10.9896Z" fill="#C3AD79"/>
<path d="M39.4706 26.6838C40.0816 26.569 40.7123 26.6046 41.3058 26.7872C41.8993 26.9699 42.437 27.2938 42.8706 27.73C42.837 27.3586 42.6916 27.0053 42.4527 26.7147C42.2137 26.4241 41.892 26.2092 41.5281 26.0972C41.1642 25.9853 40.7746 25.9812 40.4083 26.0856C40.0421 26.19 39.7158 26.3982 39.4706 26.6838ZM32.5176 40.3655C32.4235 40.8024 32.3294 41.1703 32.2471 41.5153C32.187 41.7548 32.1792 42.0039 32.2241 42.2465C32.269 42.4892 32.3655 42.7199 32.5075 42.9237C32.6495 43.1275 32.8338 43.2999 33.0483 43.4296C33.2629 43.5593 33.5029 43.6435 33.7529 43.6767C34.5681 43.7169 35.3848 43.7169 36.2 43.6767C36.0118 42.9984 35.8235 42.3316 35.6118 41.6762C35.5922 41.6279 35.562 41.5843 35.5234 41.5486C35.4848 41.5128 35.4387 41.4857 35.3882 41.4693L32.5176 40.3195M14.0588 27.9944C14.0634 27.6039 13.9495 27.2207 13.7315 26.8933C13.5136 26.5659 13.2013 26.3089 12.834 26.1547C12.4668 26.0006 12.061 25.9562 11.668 26.0271C11.2749 26.098 10.9122 26.2811 10.6255 26.5533C10.3388 26.8255 10.141 27.1745 10.057 27.5564C9.97308 27.9383 10.0067 28.336 10.1538 28.6992C10.3008 29.0624 10.5546 29.375 10.8832 29.5974C11.2118 29.8198 11.6004 29.9422 12 29.949C12.5369 29.9522 13.0536 29.749 13.4387 29.3834C13.8238 29.0178 14.0465 28.519 14.0588 27.9944ZM18.7647 27.9944V29.2706H30.8588L31.3765 27.9944H18.7647ZM10.6941 35.8356H30.1412C30.5529 34.6859 31.4118 35.5022 32.0941 35.4562C32.0941 35.3642 32.0941 35.2952 32.0941 35.2147C31.9529 34.5479 31.9529 34.5479 31.2588 34.5479H10.7176L10.6941 35.8356ZM37.2941 27.983H34.0941C33.8068 27.973 33.5212 28.0304 33.2613 28.1504C33.0013 28.2704 32.7746 28.4496 32.6 28.6728C32.4078 28.9247 32.2798 29.2178 32.2266 29.5277C32.1734 29.8376 32.1965 30.1554 32.2941 30.4549C32.7059 32.2025 33.0823 33.9041 33.4706 35.6861C33.5 35.7486 33.5423 35.8043 33.595 35.8499C33.6477 35.8954 33.7095 35.9297 33.7765 35.9506C35.1059 36.3185 36.4353 36.6749 37.7765 37.0083C37.8651 37.0214 37.9556 37.0169 38.0425 36.9952C38.1294 36.9735 38.211 36.9349 38.2823 36.8819C39.3294 35.9966 40.3647 35.0998 41.3765 34.1915C41.5454 34.0385 41.6607 33.8373 41.7059 33.6166C41.9059 32.4669 42.0941 31.3172 42.2588 30.1674C42.3162 29.8951 42.3081 29.6134 42.2349 29.3446C42.1618 29.0758 42.0257 28.8274 41.8374 28.6189C41.6492 28.4103 41.4138 28.2474 41.1501 28.1431C40.8863 28.0387 40.6013 27.9957 40.3176 28.0174H37.3176M40.7059 22.0848C40.7123 21.9891 40.7123 21.8931 40.7059 21.7974C40.0784 19.36 39.451 16.9226 38.8235 14.4851C38.7404 14.0132 38.4819 13.5879 38.0975 13.2909C37.7132 12.9938 37.2302 12.8459 36.7412 12.8755H16.2C15.7129 12.8363 15.2277 12.9707 14.8341 13.2539C14.4406 13.5371 14.1652 13.9499 14.0588 14.4161C13.6353 15.7268 13.2118 17.049 12.8 18.3597C12.3882 19.6704 12.0118 20.8086 11.6235 22.0503L40.7059 22.0848ZM18.7647 39.1353C18.7647 39.6872 18.7647 40.1931 18.7647 40.6875C18.7778 41.003 18.7242 41.3177 18.6074 41.6121C18.4905 41.9065 18.3129 42.1743 18.0855 42.3986C17.8581 42.623 17.5859 42.7992 17.2858 42.9162C16.9857 43.0332 16.6641 43.0886 16.3412 43.0789H12.4588C12.1359 43.0902 11.8141 43.0363 11.5134 42.9207C11.2128 42.805 10.9397 42.6301 10.7112 42.4069C10.4827 42.1836 10.3037 41.9167 10.1854 41.6229C10.0671 41.329 10.012 41.0145 10.0235 40.699V39.1698C9.5436 39.1595 9.06452 39.125 8.58824 39.0663C7.86517 38.9423 7.20976 38.5737 6.73662 38.0252C6.26348 37.4766 6.00274 36.783 6 36.0655C6 32.4247 6 28.7878 6 25.1546C6.00619 24.3373 6.34197 23.5553 6.93447 22.9785C7.52696 22.4016 8.32836 22.0764 9.16471 22.0733C9.49412 22.0733 9.83529 22.0733 10.1882 22.0733C10.2588 21.8664 10.3176 21.6709 10.4 21.441H6.82353C6.23529 21.441 6 21.211 6 20.6477C6 19.6474 6 18.6472 6 17.6584C6 17.0835 6.2353 16.8536 6.81177 16.8536C7.78824 16.8536 8.76471 16.8536 9.74118 16.8536C10.0551 16.8782 10.3601 16.9683 10.6353 17.118C10.9669 17.2952 11.2853 17.495 11.5882 17.7159L12.2 15.8763L12.8 13.9563C13.0036 13.2587 13.439 12.6473 14.0376 12.2184C14.6362 11.7895 15.3639 11.5677 16.1059 11.5878H36.7412C37.5107 11.5718 38.2623 11.8158 38.8689 12.2788C39.4755 12.7418 39.9 13.3952 40.0706 14.1287L41.0353 17.9228C41.5059 17.6239 41.9294 17.325 42.3882 17.072C42.6075 16.9378 42.8591 16.8624 43.1176 16.8536C44.1059 16.8536 45.0823 16.8536 46.0588 16.8536C46.7294 16.8536 46.9529 17.0605 46.9529 17.7044V20.5097C46.9529 21.1651 46.7294 21.372 46.0353 21.372H41.9765C41.9765 21.6135 42.0823 21.8089 42.1294 22.0619C42.5956 22.0331 43.0632 22.0331 43.5294 22.0619C44.3089 22.1584 45.0242 22.5338 45.537 23.1156C46.0498 23.6975 46.3237 24.4444 46.3059 25.2121V36.0081C46.3184 36.2923 46.3658 36.5741 46.447 36.8474C46.7765 37.8936 47.1059 38.9284 47.4706 39.9631C47.6164 40.3369 47.673 40.7383 47.6364 41.1367C47.5997 41.5352 47.4705 41.9202 47.2588 42.2626C46.7529 43.1364 46.2706 44.0332 45.8 44.93C45.7038 45.1237 45.6517 45.3355 45.647 45.5508C45.647 46.7005 45.647 47.8503 45.647 49H44.2941C44.2941 47.6548 44.2941 46.3326 44.2941 45.0104C44.32 44.8505 44.3801 44.6977 44.4706 44.562C45 43.5848 45.5294 42.6075 46.0823 41.6302C46.1895 41.4595 46.2548 41.2669 46.2731 41.0675C46.2915 40.868 46.2624 40.6672 46.1882 40.4805C45.6235 38.7559 45.0117 37.0313 44.5059 35.3297C44.4774 35.1367 44.3919 34.9561 44.2597 34.8099C44.1276 34.6638 43.9546 34.5586 43.7621 34.5073C43.5696 34.456 43.366 34.4608 43.1762 34.5212C42.9865 34.5815 42.8189 34.6947 42.6941 34.8468C41.4353 35.9276 40.1647 37.0083 38.9294 38.1236C38.7828 38.2775 38.593 38.3858 38.3837 38.4349C38.1745 38.484 37.9551 38.4717 37.7529 38.3995L31.8706 36.8129L31.5059 36.7439C31.5021 37.2774 31.6628 37.7996 31.9671 38.2426C32.2713 38.6856 32.7051 39.0287 33.2118 39.2273C34.2118 39.6297 35.2118 40.0206 36.2118 40.377C36.4097 40.4354 36.5836 40.5537 36.7083 40.7149C36.8331 40.8761 36.9022 41.0718 36.9059 41.2738C36.9899 41.9909 37.2207 42.6841 37.5845 43.3122C37.9483 43.9403 38.4377 44.4905 39.0235 44.93C39.2076 45.061 39.3556 45.2346 39.4542 45.4353C39.5527 45.6359 39.5988 45.8574 39.5882 46.0797C39.5882 47.0225 39.5882 47.9653 39.5882 48.9195H38.247C38.1881 48.2462 38.1881 47.5693 38.247 46.896C38.3882 45.9877 37.7529 45.5738 37.2353 45.0679C37.1647 44.9989 37.0118 45.0104 36.8823 45.0104H34.1882C33.6855 45.0312 33.1849 44.9359 32.727 44.7321C32.2691 44.5284 31.8668 44.222 31.5528 43.8378C31.2387 43.4536 31.0218 43.0025 30.9197 42.5211C30.8175 42.0396 30.8329 41.5414 30.9647 41.0669C31.0706 40.6185 31.1882 40.1701 31.2823 39.7102C31.296 39.6384 31.2935 39.5646 31.2752 39.4938C31.2568 39.423 31.223 39.3569 31.1761 39.3001C31.1291 39.2433 31.0701 39.1971 31.0032 39.1647C30.9363 39.1323 30.8629 39.1144 30.7882 39.1123H18.7647" fill="#C3AD79"/>
<path d="M26.953 45.1481C26.7952 45.3728 26.6095 45.5775 26.4 45.7575C25.8941 46.0679 25.3412 46.3208 24.8236 46.6198C24.6487 46.7253 24.5032 46.8714 24.4 47.0451C24.0941 47.528 23.8353 48.0454 23.5412 48.5398C23.2471 49.0342 22.5412 49.1607 22.2588 48.5398C22.0168 47.9179 21.6434 47.3528 21.163 46.8813C20.6826 46.4099 20.1059 46.0426 19.4706 45.8034C19.1765 45.7 18.9294 45.47 19.0118 45.1596C19.0415 45.0312 19.0975 44.9101 19.1764 44.8034C19.2552 44.6967 19.3553 44.6067 19.4706 44.5387C20.1041 44.2965 20.6791 43.9281 21.1591 43.457C21.6391 42.986 22.0136 42.4225 22.2588 41.8024C22.2971 41.6664 22.3799 41.5464 22.4947 41.4609C22.6095 41.3754 22.7498 41.3291 22.8941 41.3291C23.0385 41.3291 23.1788 41.3754 23.2936 41.4609C23.4083 41.5464 23.4912 41.6664 23.5294 41.8024C23.7808 42.4355 24.165 43.0102 24.6574 43.4894C25.1498 43.9686 25.7394 44.3417 26.3883 44.5847C26.6 44.6767 26.7294 44.9411 26.953 45.1826" fill="#C3AD79"/>
<path d="M9.3765 12.8752C8.84321 12.882 8.31985 12.734 7.87272 12.4499C7.42559 12.1658 7.07482 11.7583 6.86482 11.2792C6.65482 10.8001 6.59506 10.2709 6.6931 9.75856C6.79114 9.24623 7.04258 8.77387 7.41555 8.40131C7.78852 8.02875 8.26626 7.77275 8.78823 7.66575C9.3102 7.55875 9.85293 7.60556 10.3477 7.80025C10.8424 7.99495 11.2669 8.32876 11.5673 8.75941C11.8677 9.19005 12.0306 9.69815 12.0353 10.2193C12.0416 10.9157 11.7654 11.5861 11.2671 12.0838C10.7688 12.5816 10.089 12.8661 9.3765 12.8752Z" fill="#C3AD79"/>
<path d="M22.7765 8.95476H21.4824V10.208H22.7765V8.95476Z" fill="#C3AD79"/>
<path d="M12.0118 45.0792H10.7177V46.3439H12.0118V45.0792Z" fill="#C3AD79"/>
<path d="M32.7764 17.3472C32.5529 17.6116 32.4353 17.876 32.247 17.945C31.5841 18.1951 30.9821 18.578 30.4796 19.0691C29.9771 19.5601 29.5853 20.1485 29.3294 20.7963C29.0823 21.3597 28.4353 21.3367 28.1529 20.7963C27.8706 20.256 27.5882 19.7616 27.2823 19.2557C27.1663 19.0771 27.0092 18.9275 26.8235 18.8188C26.3412 18.5199 25.8235 18.2784 25.3294 18.0025C24.8353 17.7266 24.6588 17.0137 25.3294 16.7493C25.9709 16.5049 26.5539 16.1337 27.0418 15.6589C27.5297 15.1841 27.912 14.6159 28.1647 13.99C28.2029 13.8539 28.2858 13.734 28.4006 13.6484C28.5153 13.5629 28.6557 13.5166 28.8 13.5166C28.9443 13.5166 29.0846 13.5629 29.1994 13.6484C29.3142 13.734 29.3971 13.8539 29.4353 13.99C29.6854 14.6155 30.0655 15.1836 30.5514 15.6585C31.0374 16.1334 31.6187 16.5048 32.2588 16.7493C32.4706 16.8298 32.6118 17.1057 32.847 17.3472" fill="#C3AD79"/>
</svg>
