<svg width="256" height="64" viewBox="0 0 256 64" fill="none" xmlns="http://www.w3.org/2000/svg">
<path fill-rule="evenodd" clip-rule="evenodd" d="M84.4797 25.9844C86.1437 25.9844 87.5517 26.3684 88.8317 26.7524L89.0877 23.1684C87.4237 22.6564 86.0157 22.4004 84.2237 22.4004C77.3117 22.4004 72.0637 26.1124 72.0637 33.4084C72.0637 41.2164 77.9517 44.2884 83.3277 44.2884C84.9917 44.2884 87.0397 44.0324 88.9597 43.3924L88.8317 39.6804C87.6797 40.1924 86.2717 40.5764 84.3517 40.5764C80.3837 40.5764 76.9277 38.5284 76.9277 33.2804C76.7997 28.9284 79.6157 25.9844 84.4797 25.9844ZM122.496 44.0326H126.976V26.1126H135.552V44.0326H140.032V22.6566H122.496V44.0326ZM99.3277 22.6566L104.704 38.0166L110.08 22.6566H117.504V44.0326H113.152V25.7286H113.024L106.752 44.0326H102.528L96.3837 25.7286H96.2557V44.0326H91.9037V22.6566H99.3277ZM160.383 30.8486H156.799V26.3686H166.399V22.6566H152.447V43.9046H160.383C166.655 43.9046 168.191 39.9366 168.191 37.7606C168.191 35.0726 166.783 30.8486 160.383 30.8486ZM159.487 40.5766H156.799V34.0486H159.487C161.919 34.0486 163.455 35.0726 163.455 37.2486C163.455 39.6806 162.047 40.5766 159.487 40.5766ZM168.447 44.0326L177.151 22.6566H182.015L190.719 44.0326H185.727L183.935 39.1686H174.975L173.183 44.0326H168.447ZM179.583 26.8806L176.511 35.5846H182.911L179.711 26.8806H179.583ZM206.336 31.2326H197.376V22.6566H193.024V44.0326H197.376V34.8166H206.336V44.0326H210.688V22.6566H206.336V31.2326ZM233.728 22.6566L224.64 32.3846L234.24 44.0326H228.608L220.544 33.4086H220.416V44.0326H216.064V22.6566H220.416V31.7446H220.544L228.352 22.6566H233.728Z" fill="url(#paint0_linear_185_5992)"/>
<path d="M70.272 7.5516C70.016 7.1676 66.432 8.9596 66.432 8.9596L66.56 8.8316C67.2 8.3196 68.352 7.8076 67.968 7.2956C67.712 7.0396 67.328 7.1676 65.92 7.9356C65.28 8.3196 61.952 9.7276 58.496 11.2636C55.552 12.5436 50.432 14.7196 50.048 15.3596C50.048 15.3596 50.048 15.3596 49.92 15.4876C49.792 15.6156 49.792 15.7436 49.792 15.7436C49.536 16.1276 49.408 16.7676 49.28 17.5356V17.6636C49.28 17.7916 49.28 17.7916 49.28 17.7916C49.024 18.8156 48.896 20.0956 48.64 21.5036C48 25.5996 47.36 31.9996 47.36 31.9996C47.36 31.9996 47.232 36.3516 46.848 38.3996C46.72 38.7836 46.72 39.0396 46.592 39.2956C46.592 39.4236 46.464 39.5516 46.464 39.6796C46.336 40.0636 46.08 40.4476 45.824 40.7036C45.056 41.5996 43.136 41.3436 42.496 41.2156C41.216 41.0876 39.936 40.1916 39.808 39.9356C39.68 39.6796 38.784 38.5276 37.632 38.3996C37.248 38.3996 35.968 38.6556 35.456 38.6556C34.944 38.6556 34.304 38.0156 33.664 37.8876C33.024 37.6316 32 38.2716 32 38.2716C32 38.2716 34.816 39.2956 35.2 39.8076C35.584 40.3196 36.352 41.4716 37.376 41.9836C38.4 42.4956 41.984 46.4636 41.984 46.4636C41.984 46.4636 42.752 47.2316 43.904 48.2556C42.88 48.6396 41.728 48.8956 40.576 49.0236C32.384 49.9196 25.6 44.6716 24.704 36.7356C24.448 34.9436 24.576 33.2796 25.088 31.7436C25.6 29.8236 26.368 27.9036 27.648 26.2396C30.08 23.1676 33.408 21.2476 37.376 20.8636C39.808 20.6076 42.24 20.9916 44.416 21.7596C44.416 21.5036 44.416 21.2476 44.288 20.9916C42.112 20.0956 39.68 19.8396 37.248 20.0956C33.28 20.6076 29.696 22.3996 27.136 25.5996C25.344 27.7756 24.192 30.3356 23.936 33.0236C23.808 33.4076 23.808 33.6636 23.808 34.1756C23.68 35.0716 23.68 36.8636 23.936 37.7596C24.832 45.6956 32.128 51.4556 40.32 50.5596C41.984 50.3036 43.648 49.9196 45.184 49.1516C46.336 50.0476 47.744 50.9436 49.28 51.5836C53.12 53.2476 57.728 53.3756 58.88 53.5036C61.056 53.7596 62.976 56.5756 63.616 57.0876C64.256 57.5996 68.352 56.7036 68.352 56.7036C68.352 56.7036 67.968 56.0636 67.84 55.0396C67.712 54.0156 66.432 53.5036 66.304 53.2476C66.048 52.9916 60.8 50.5596 59.904 50.0476C59.136 49.5356 57.984 48.3836 56.832 46.5916C55.68 44.7996 56.192 43.3916 56.32 43.0076C56.576 42.6236 56.96 42.6236 57.216 42.1116C57.472 41.5996 57.344 41.5996 57.216 41.3436C57.216 41.0876 57.344 40.9596 57.472 40.5756C57.728 40.1916 57.6 40.1916 57.6 40.1916C57.6 40.1916 57.6 40.1916 57.728 39.6796C57.856 39.1676 57.728 39.6796 57.856 39.4236C57.984 39.1676 57.984 39.1676 57.984 39.1676C57.984 39.1676 57.984 38.9116 58.112 38.7836C58.24 38.6556 57.984 38.3996 57.984 38.2716C58.112 38.0156 58.112 38.0156 58.112 37.6316C58.24 37.2476 58.112 37.3756 58.24 36.9916C58.24 36.6076 58.368 36.7356 58.624 36.4796C58.88 36.2236 58.368 35.9676 58.368 35.9676C58.368 35.9676 58.368 35.7116 58.752 35.0716C59.136 34.3036 58.752 35.0716 58.88 34.6876C59.008 34.3036 58.752 34.0476 58.624 33.7916C58.496 33.4076 58.752 33.5356 58.752 33.1516C58.88 32.7676 58.752 33.1516 58.88 32.7676C59.008 32.3836 59.008 32.2556 59.008 32.2556L58.752 31.4876C58.752 31.4876 58.752 31.4876 58.88 31.2316C59.008 30.9756 58.88 30.5916 58.88 30.5916L58.496 29.6956C58.496 29.6956 58.496 29.3116 58.624 29.0556C58.752 28.7996 58.368 27.9036 58.368 27.9036L58.624 27.0076L58.368 25.5996L58.112 24.4476C58.112 24.4476 57.984 22.6556 57.984 22.0156C57.984 21.3756 57.984 20.4796 58.112 19.7116C58.24 18.8156 60.8 17.6636 61.184 17.1516C61.44 16.6396 59.648 17.2796 59.648 17.2796C59.648 17.2796 62.976 16.3836 63.232 15.8716C63.36 15.4876 61.056 15.9996 61.056 15.9996C60.8 16.1276 61.056 15.9996 61.056 15.9996C61.952 15.7436 64.384 15.2316 65.152 14.4636C66.048 13.6956 63.488 14.2076 63.104 14.3356C63.488 14.2076 66.304 13.4396 66.688 12.6716C66.944 12.1596 64.64 12.5436 64.64 12.5436C65.792 12.2876 67.2 11.9036 67.968 11.3916C69.632 10.6236 69.76 9.9836 69.376 9.7276C68.992 9.4716 66.304 10.4956 66.304 10.4956C66.176 10.4956 66.176 10.4956 66.176 10.6236C66.304 10.6236 66.304 10.4956 66.304 10.4956C67.072 10.2396 67.968 9.8556 68.48 9.4716C69.376 8.9596 70.656 8.0636 70.272 7.5516ZM65.92 9.2156C66.048 9.0876 66.176 9.0876 66.304 8.9596C66.176 9.0876 66.048 9.0876 65.92 9.2156Z" fill="url(#paint1_linear_185_5992)"/>
<path d="M63.104 6.3999C62.848 6.1439 61.056 6.9119 61.056 6.9119C61.056 6.9119 50.816 11.7759 46.208 14.2079C45.184 14.7199 44.032 15.6159 44.032 17.1519C44.032 22.1439 45.056 29.6959 45.568 33.6639C46.08 37.6319 46.464 39.1679 46.336 39.2959C46.336 39.1679 46.592 38.7839 46.72 38.1439C47.104 36.0959 47.232 31.7439 47.232 31.7439C47.232 31.7439 47.872 25.3439 48.512 21.1199C48.896 18.3039 49.28 15.9999 49.92 15.1039C50.304 14.4639 58.624 11.0079 60.16 10.3679C61.952 9.5999 62.208 9.3439 62.208 8.7039C62.208 8.3199 60.288 8.9599 60.288 8.9599C60.288 8.9599 61.952 8.0639 62.592 7.6799C63.104 7.2959 63.36 6.7839 63.104 6.3999ZM28.544 24.9599L31.232 21.2479L27.904 24.4479L26.496 18.9439L26.752 24.4479L24.064 22.6559L26.496 25.2159L23.04 26.1119L26.624 25.8559L23.68 29.9519L27.136 26.6239L28.544 31.6159L28.288 26.6239L30.848 28.2879L28.288 25.7279L31.744 24.7039L28.544 24.9599Z" fill="url(#paint2_linear_185_5992)"/>
<defs>
<linearGradient id="paint0_linear_185_5992" x1="72.0637" y1="33.3747" x2="231.308" y2="46.7271" gradientUnits="userSpaceOnUse">
<stop stop-color="#BA975C"/>
<stop offset="0.505208" stop-color="#F6E7CC"/>
<stop offset="1" stop-color="#D7A250"/>
</linearGradient>
<linearGradient id="paint1_linear_185_5992" x1="23.7239" y1="32.2801" x2="69.8159" y2="32.7657" gradientUnits="userSpaceOnUse">
<stop stop-color="#BA975C"/>
<stop offset="0.505208" stop-color="#F6E7CC"/>
<stop offset="1" stop-color="#D7A250"/>
</linearGradient>
<linearGradient id="paint2_linear_185_5992" x1="23.04" y1="22.8674" x2="62.7481" y2="23.4152" gradientUnits="userSpaceOnUse">
<stop stop-color="#BA975C"/>
<stop offset="0.505208" stop-color="#F6E7CC"/>
<stop offset="1" stop-color="#D7A250"/>
</linearGradient>
</defs>
</svg>
