<svg width="276" height="69" viewBox="0 0 276 69" fill="none" xmlns="http://www.w3.org/2000/svg">
<g clip-path="url(#clip0_185_5918)">
<path d="M53.2865 43.3892L52.1258 34.07L50.2189 43.3892H47.574L45.4598 34.07L44.1913 43.3892H39.54L42.2346 24.8587H47.0434L48.7928 33.0378L50.6417 24.8545H55.2972L57.9378 43.3892H53.2865ZM69.309 24.8587V29.5141H64.6039V31.9019H67.9327V36.5615H64.6039V38.7834H69.309V43.3892H59.9443V24.8587H69.309ZM71.846 24.8587H82.1061V29.8914H79.3038V43.385H74.5945V29.8955H71.846V24.8545V24.8587ZM83.8473 43.3892L88.4488 24.8587H93.896L98.4975 43.3892H93.896L93.154 40.736H89.1908L88.5027 43.3892H83.8473ZM92.3082 37.0466L91.2014 32.3372L89.9868 37.0548H92.3123L92.3082 37.0466ZM109.864 24.8587L113.566 43.3892H108.861L106.851 29.5722H106.478L104.417 43.3892H99.766L103.36 24.8587H109.864ZM124.933 24.8587L128.689 43.3892H123.984L121.974 29.5722H121.6L119.54 43.3892H114.889L118.537 24.8587H124.933ZM144.392 24.8587V43.3892H139.688V34.8826L135.351 43.3892H130.7V24.8587H135.351V33.7964L140.002 24.8545H144.392V24.8587ZM152.431 24.8587V31.9019H155.975V24.8545H160.626V43.3892H155.975V36.5656H152.431V43.3933H147.779V24.8628H152.431V24.8587ZM170.99 24.8587C171.562 24.8428 172.13 24.956 172.652 25.19C173.173 25.4241 173.636 25.7726 174.004 26.2101C174.741 27.1304 175.115 28.3244 175.115 29.7338C175.115 30.8697 174.958 31.7362 174.638 32.387C174.319 32.984 173.901 33.4192 173.369 33.5808C174.186 33.7975 174.898 34.297 175.38 34.9904C175.961 35.8029 176.222 36.8351 176.222 38.0248C176.222 39.7079 175.853 41.0593 175.061 41.9838C174.215 42.9581 173.104 43.3933 171.624 43.3933H163.852V24.8504H170.99V24.8587ZM168.556 28.8633V31.5206H169.352C170.037 31.5206 170.409 31.0894 170.409 30.223C170.409 29.2985 170.037 28.8633 169.352 28.8633H168.556ZM168.556 35.9107V38.6218H169.772C170.517 38.6218 170.936 38.1866 170.936 37.2662C170.936 36.8351 170.833 36.5077 170.62 36.292C170.398 36.0585 170.093 35.9216 169.772 35.9107H168.556ZM188.015 24.8545V29.5182H183.311V31.9061H187.962V36.5656H183.315V38.7877H188.019V43.3933H178.659V24.8628H188.019L188.015 24.8545ZM198.699 30.82C198.323 30.8061 197.95 30.882 197.609 31.0413C197.27 31.2006 196.972 31.4388 196.742 31.7362C196.315 32.333 196.108 33.1456 196.108 34.124C196.108 35.0442 196.315 35.8567 196.792 36.5077C197.006 36.8092 197.293 37.0518 197.627 37.2126C197.961 37.3735 198.329 37.4476 198.699 37.4278C199.225 37.4278 199.598 37.4278 199.86 37.3201C200.175 37.2662 200.439 37.1543 200.651 37.0507V43.3933C200.547 43.4471 200.282 43.5011 200.017 43.5549C199.756 43.6089 199.279 43.6089 198.699 43.6089C196.265 43.6089 194.304 42.6885 192.829 40.6822C191.507 38.8913 190.872 36.7232 190.872 34.124C190.872 31.5744 191.507 29.4063 192.829 27.6155C194.254 25.6671 196.211 24.6929 198.699 24.6929C199.122 24.6929 199.486 24.6929 199.806 24.7467C200.125 24.8545 200.386 24.9126 200.651 24.9623V31.2511C200.444 31.1433 200.175 31.0355 200.017 30.9774C199.587 30.8686 199.144 30.8156 198.699 30.82ZM203.139 24.8545H213.449V29.8955H210.646V43.3892H205.942V29.8955H203.139V24.8545ZM221.01 31.7362H223.866C225.188 31.7362 226.299 32.2252 227.141 33.2037C228.095 34.2318 228.521 35.5873 228.521 37.374C228.521 39.1649 228.095 40.6282 227.195 41.7682C226.803 42.2768 226.298 42.6876 225.721 42.9688C225.143 43.2499 224.508 43.3939 223.866 43.3892H216.304V24.8587H227.145V28.7555H221.01V31.7403V31.7362ZM221.01 36.2381V38.8913H222.174C222.967 38.8913 223.335 38.4601 223.335 37.5399C223.335 37.1045 223.232 36.777 223.02 36.5615C222.91 36.4507 222.778 36.3644 222.633 36.3087C222.486 36.2529 222.33 36.2289 222.174 36.2381H221.01ZM230.002 43.3892L234.603 24.8587H239.992L244.594 43.3892H239.992L239.309 40.736H235.287L234.599 43.3892H229.998H230.002ZM238.409 36.9429L237.298 32.4449L236.079 36.9429H238.409ZM251.679 24.8545V31.9019H255.169V24.8545H259.824V43.3892H255.169V36.5656H251.679V43.3933H246.973V24.8628H251.679V24.8545ZM267.804 24.8545V31.5744L271.033 24.8587H275.843L271.718 33.473L276 43.3892H271.191L267.808 35.4215V43.3892H263.154V24.8587H267.808L267.804 24.8545ZM15.4919 19.3203C23.3684 19.6105 29.6613 26.094 29.711 34.041C29.7288 37.9752 28.1871 41.7561 25.4235 44.5562C22.6599 47.3563 18.8995 48.9475 14.9654 48.9815C11.0284 49.0058 7.24234 47.4682 4.43709 44.7057C1.63185 41.9431 0.0362918 38.181 0.000155878 34.2442C-0.0173625 30.4152 1.44232 26.7272 4.07542 23.9473C6.70851 21.1676 10.3122 19.5102 14.1363 19.3203L14.1529 23.5363C11.4392 23.7156 8.89607 24.9233 7.04197 26.9129C5.18788 28.9026 4.16243 31.5245 4.17468 34.2442C4.18659 35.8302 4.55313 37.3933 5.24748 38.8194C5.94182 40.2454 6.94637 41.498 8.18754 42.4854L12.217 31.8729L9.41876 31.8936C9.41876 31.8936 8.8674 31.7817 8.55234 32.0429L7.88906 32.6813C7.88906 32.6813 7.83517 30.9319 7.91394 30.7495C7.9927 30.5256 8.21656 28.7721 8.99592 27.8766C9.78357 27.0144 11.0397 26.8942 11.0397 26.8942L19.994 26.8319L18.7005 28.1792L21.8097 42.2243C22.9784 41.2191 23.9144 39.9717 24.553 38.5687C25.1915 37.1656 25.5172 35.6405 25.5075 34.099C25.4827 31.3914 24.4301 28.7944 22.563 26.8334C20.696 24.8723 18.1536 23.6938 15.4505 23.5363L15.4919 19.3203ZM12.0719 28.0714C12.3413 28.0714 12.5693 28.2787 12.5693 28.5358C12.5693 28.7886 12.3496 29 12.0802 29C11.8066 29.0042 11.5827 28.7969 11.5827 28.5441C11.5827 28.2829 11.7983 28.0756 12.0719 28.0714Z" fill="url(#paint0_linear_185_5918)"/>
</g>
<defs>
<linearGradient id="paint0_linear_185_5918" x1="-1.92901e-06" y1="34.1921" x2="269.923" y2="62.6152" gradientUnits="userSpaceOnUse">
<stop stop-color="#BA975C"/>
<stop offset="0.505208" stop-color="#F6E7CC"/>
<stop offset="1" stop-color="#D7A250"/>
</linearGradient>
<clipPath id="clip0_185_5918">
<rect width="276" height="69" fill="white"/>
</clipPath>
</defs>
</svg>
