<svg width="253" height="52" viewBox="0 0 253 52" fill="none" xmlns="http://www.w3.org/2000/svg">
<path d="M236.429 33.012H231.242V27.972H228.586V40.824H231.242V35.28H236.429V40.824H239.085V27.846H236.429V33.012ZM221.881 27.972H218.845L213.659 40.95H216.568L217.58 38.052H223.146L224.158 40.95H227.068L221.881 27.972ZM218.339 35.658L220.237 30.492L222.134 35.658H218.339ZM253 40.824L247.308 33.768L252.747 27.846H249.458L244.778 33.39V27.846H242.121V40.824H244.778V34.272L249.711 40.824H253ZM211.635 34.02C210.876 33.264 209.864 32.886 208.852 32.76H206.069V30.24H211.761V27.972H203.412V40.824H208.852C209.358 40.824 209.864 40.698 210.37 40.572C210.876 40.446 211.255 40.068 211.635 39.69C212.014 39.312 212.267 38.934 212.52 38.43C212.773 37.926 212.773 37.422 212.773 36.918C212.773 35.784 212.267 34.776 211.635 34.02ZM209.358 38.178C208.978 38.556 208.599 38.682 208.093 38.808H205.942V35.028H208.093C208.346 35.028 208.599 35.028 208.852 35.154C209.105 35.28 209.358 35.406 209.484 35.532C209.611 35.658 209.864 35.91 209.864 36.162C209.99 36.414 209.99 36.666 209.99 36.918C209.99 37.296 209.737 37.8 209.358 38.178ZM53.5095 42.966H47.311L50.094 38.052L43.1365 25.83H49.4615L53.13 33.012L56.672 25.83H62.744L53.5095 42.966ZM130.928 42.966H123.211C119.037 42.966 115.621 39.438 115.621 34.65C115.621 29.106 119.037 25.83 123.211 25.83H130.928V30.114H125.994C123.085 30.114 121.314 30.996 121.314 34.524C121.314 38.052 122.958 38.808 125.994 38.808H130.928V42.966ZM151.041 42.966H145.349V30.87L138.897 42.966H132.066V25.83H137.759V37.548L144.21 25.83H151.041V42.966ZM109.802 25.83H103.604L97.5315 40.068L91.4595 25.83H85.1345L77.7975 43.092H83.743L85.008 39.438H91.333L92.7245 43.092H102.086L106.64 30.618L111.067 43.092H117.013L109.802 25.83ZM86.6525 35.532L88.55 30.618L90.321 35.532H86.6525ZM74.888 25.83H63.25V43.092H68.816V38.052H74.888C80.707 38.052 80.707 32.886 80.707 31.752C80.707 30.618 80.707 25.83 74.888 25.83ZM72.9905 33.768H68.9425V30.114H72.9905C73.623 30.114 75.2675 30.114 75.2675 31.878C75.2675 33.642 73.623 33.768 72.9905 33.768ZM163.565 32.256H157.872V29.988H168.625V25.704H152.18V42.966H163.565C169.51 42.966 169.51 39.438 169.51 37.548C169.51 35.658 169.51 32.382 163.565 32.256ZM162.553 39.06H157.746V36.288H162.553C163.818 36.288 163.818 37.17 163.818 37.548C163.818 37.926 163.818 39.06 162.553 39.06ZM18.0895 17.136C18.469 17.136 18.975 17.136 19.3545 17.262L19.228 5.544H20.6195C20.493 9.576 20.746 13.482 21.1255 17.514C24.4145 18.27 27.4505 19.908 29.854 22.428C32.2575 24.948 33.7755 27.972 34.408 31.374C35.0405 34.776 34.5345 38.178 33.143 41.328C31.7515 44.478 29.4745 46.998 26.565 48.888C26.4385 48.762 26.312 48.51 26.059 48.258C20.8725 41.706 19.6075 32.004 19.228 23.562C19.987 23.688 20.6195 23.814 21.3785 23.94C22.517 31.122 25.6795 37.926 30.7395 43.218C32.5105 41.076 33.5225 38.178 33.2695 35.406C33.143 32.508 31.878 29.862 29.9805 27.846C27.7035 25.452 24.9205 23.688 21.758 22.932C20.24 22.554 18.722 22.302 17.204 22.302C15.686 22.302 14.0415 22.554 12.5235 22.932C5.94553 24.57 1.01203 29.736 1.01203 35.91C1.01203 38.556 1.89753 41.076 3.54203 43.218C8.60203 37.926 11.7645 31.122 12.903 23.94C13.662 23.814 14.2945 23.814 15.18 23.562C14.8005 32.13 13.5355 41.706 8.34903 48.132C8.22253 48.384 7.96953 48.636 7.84303 48.762C4.93353 46.872 2.78303 44.226 1.39153 41.076C2.7284e-05 37.926 -0.379473 34.524 0.253027 31.122C0.885527 27.72 2.53003 24.696 4.80703 22.302C7.08403 19.908 10.2465 18.144 13.5355 17.514C14.0415 8.82 13.915 5.544 13.915 5.544H15.3065L15.18 17.262C15.5595 17.136 15.939 17.01 16.3185 17.136V0H17.8365C17.963 0 17.963 17.136 18.0895 17.136Z" fill="url(#paint0_linear_203_21)"/>
<path d="M18.0896 23.4359C18.2161 31.6259 18.8486 41.7059 21.5051 48.6359C21.7581 49.3919 22.1376 50.1479 22.6436 50.9039C20.8726 51.4079 19.1016 51.6599 17.3306 51.7859C15.5596 51.7859 13.7886 51.5339 12.0176 50.9039C12.5236 50.0219 12.9031 49.2659 13.2826 48.3839C15.6861 41.5799 16.3186 31.4999 16.4451 23.4359H18.0896ZM185.702 21.4199H186.841V47.3759H185.702V21.4199Z" fill="url(#paint1_linear_203_21)"/>
<defs>
<linearGradient id="paint0_linear_203_21" x1="-0.0434588" y1="24.5117" x2="249.317" y2="39.1179" gradientUnits="userSpaceOnUse">
<stop stop-color="#BA975C"/>
<stop offset="0.505208" stop-color="#F6E7CC"/>
<stop offset="1" stop-color="#D7A250"/>
</linearGradient>
<linearGradient id="paint1_linear_203_21" x1="12.0176" y1="36.645" x2="184.156" y2="47.8601" gradientUnits="userSpaceOnUse">
<stop stop-color="#BA975C"/>
<stop offset="0.505208" stop-color="#F6E7CC"/>
<stop offset="1" stop-color="#D7A250"/>
</linearGradient>
</defs>
</svg>
