<svg width="256" height="64" viewBox="0 0 256 64" fill="none" xmlns="http://www.w3.org/2000/svg">
<path d="M115.84 24.9602L120.704 21.3762H104.576V42.6242H120.704V39.0402H109.184V33.6642H118.912V30.0802H109.184V24.9602H115.84ZM95.744 24.9602L100.608 21.3762H82.176V42.6242H91.776C97.152 42.6242 100.224 40.1922 100.224 35.9682C100.224 31.8722 97.408 29.6962 92.288 29.6962H86.656V24.9602H95.744ZM91.648 33.1522C94.592 33.1522 95.872 34.1762 95.872 36.0962C95.872 38.0162 94.464 39.0402 91.648 39.0402H86.784V33.1522H91.648ZM133.632 21.3762H124.928V42.6242H129.536V36.6082H133.76C139.392 36.6082 142.848 33.6642 142.848 28.9282C142.848 24.1922 139.264 21.3762 133.632 21.3762ZM133.632 33.0242H129.536V24.8322H133.632C136.576 24.8322 138.24 26.2402 138.24 28.9282C138.112 31.6162 136.576 33.0242 133.632 33.0242ZM74.368 38.0162C73.088 38.6562 71.808 39.0402 70.4 39.0402C66.304 39.0402 63.232 36.0962 63.232 32.0002C63.232 27.9042 66.176 24.9602 70.4 24.9602C71.936 24.9602 73.344 25.4722 74.624 26.2402L77.952 23.8082L77.696 23.5522C75.776 21.8882 73.216 20.9922 70.272 20.9922C67.072 20.9922 64.256 22.0162 62.08 24.0642C60.032 26.1122 58.752 28.9282 58.88 31.8722C58.88 34.8162 60.032 37.6322 62.08 39.8082C64.256 41.8562 67.2 43.0082 70.144 42.8802C73.472 42.8802 76.288 41.7282 78.336 39.6802L75.392 37.5042L74.368 38.0162ZM212.48 30.0802H202.624V21.3762H198.016V42.6242H202.624V33.9202H212.48V42.6242H217.088V21.3762H212.48V30.0802ZM181.376 21.3762L172.16 42.6242H176.768L178.56 38.4002H188.288L190.08 42.6242H194.944L185.984 21.3762H181.376ZM180.096 34.8162L183.68 26.2402L187.008 34.8162H180.096ZM233.728 31.6162L242.048 21.3762H236.8L229.888 30.4642H227.328V21.3762H222.72V42.6242H227.328V34.0482H230.272L237.312 42.6242H243.2L233.728 31.6162ZM162.56 29.6962H156.928V24.9602H168.96V21.3762H152.32V42.6242H161.92C167.296 42.6242 170.368 40.1922 170.368 35.9682C170.496 31.8722 167.68 29.6962 162.56 29.6962ZM161.792 39.1682H156.928V33.2802H161.792C164.736 33.2802 166.016 34.3042 166.016 36.2242C166.144 38.1442 164.608 39.1682 161.792 39.1682Z" fill="url(#paint0_linear_185_5904)"/>
<path d="M44.1358 20.9688C44.9668 22.0576 45.6703 23.2404 46.232 24.4937L30.2974 36.398L23.6379 32.1673V27.0775L30.2974 31.3082L44.1358 20.9688Z" fill="url(#paint1_linear_185_5904)"/>
<path d="M16.8414 31.807C16.8414 31.5787 16.8469 31.3518 16.8579 31.1262L12.822 30.9258C12.8083 31.2181 12.8001 31.5133 12.8001 31.8112C12.7983 34.1387 13.2501 36.4435 14.1293 38.5936C15.0086 40.7437 16.2981 42.6967 17.9238 44.3406L20.7866 41.4407C19.5351 40.1776 18.5423 38.6762 17.8653 37.0229C17.1882 35.3696 16.8403 33.597 16.8414 31.807Z" fill="url(#paint2_linear_185_5904)"/>
<path d="M30.2938 18.175C30.519 18.175 30.7429 18.1833 30.9654 18.1945L31.1673 14.1029C30.878 14.089 30.5868 14.082 30.2938 14.082C27.9961 14.0792 25.7206 14.5364 23.5978 15.4272C21.475 16.3181 19.5468 17.6252 17.9238 19.2734L20.7866 22.1746C22.033 20.9059 23.5146 19.8994 25.1462 19.213C26.7778 18.5266 28.5271 18.1739 30.2938 18.175Z" fill="url(#paint3_linear_185_5904)"/>
<path d="M30.2937 45.4416C30.0684 45.4416 29.8445 45.4416 29.6206 45.4235L29.4187 49.5136C29.709 49.5285 30.0007 49.536 30.2937 49.536C32.5904 49.5383 34.8648 49.0809 36.9864 48.1898C39.1081 47.2986 41.0351 45.9914 42.6568 44.3432L39.7996 41.4434C38.5529 42.7114 37.0714 43.7173 35.4402 44.4035C33.8089 45.0896 32.0599 45.4425 30.2937 45.4416Z" fill="url(#paint4_linear_185_5904)"/>
<path d="M37.8766 20.5536L41.2777 18.0129C38.169 15.4618 34.2885 14.073 30.2883 14.0801V18.1744C32.9971 18.171 35.6429 19.0006 37.8766 20.5536Z" fill="url(#paint5_linear_185_5904)"/>
<path d="M47.7861 31.8078C47.7883 30.7427 47.6964 29.6794 47.5114 28.6309L43.7462 31.443C43.7462 31.5642 43.7462 31.6853 43.7462 31.8078C43.7472 33.7126 43.3531 35.5965 42.5898 37.3371C41.8264 39.0777 40.7105 40.6364 39.3147 41.912L42.0305 44.9539C43.8452 43.2936 45.2953 41.2654 46.2868 39.0008C47.2784 36.736 47.7892 34.2854 47.7861 31.8078Z" fill="url(#paint6_linear_185_5904)"/>
<path d="M30.2938 45.4423C28.4141 45.4429 26.5552 45.0435 24.8375 44.2699C23.1198 43.4962 21.5815 42.3655 20.3223 40.9512L17.3223 43.7021C18.9603 45.5415 20.9615 47.0113 23.1962 48.0165C25.4308 49.0216 27.8489 49.5395 30.2938 49.5365V45.4423Z" fill="url(#paint7_linear_185_5904)"/>
<path d="M21.2729 21.704L18.5585 18.6621C16.7433 20.3221 15.2926 22.3502 14.3006 24.6149C13.3086 26.8796 12.7973 29.3304 12.8001 31.8082H16.8414C16.8406 29.9034 17.2346 28.0196 17.998 26.279C18.7614 24.5384 19.8771 22.9797 21.2729 21.704Z" fill="url(#paint8_linear_185_5904)"/>
<defs>
<linearGradient id="paint0_linear_185_5904" x1="58.8712" y1="31.9713" x2="239.501" y2="49.1782" gradientUnits="userSpaceOnUse">
<stop stop-color="#BA975C"/>
<stop offset="0.505208" stop-color="#F6E7CC"/>
<stop offset="1" stop-color="#D7A250"/>
</linearGradient>
<linearGradient id="paint1_linear_185_5904" x1="23.6379" y1="28.7048" x2="45.9734" y2="29.0749" gradientUnits="userSpaceOnUse">
<stop stop-color="#BA975C"/>
<stop offset="0.505208" stop-color="#F6E7CC"/>
<stop offset="1" stop-color="#D7A250"/>
</linearGradient>
<linearGradient id="paint2_linear_185_5904" x1="12.8" y1="37.6518" x2="20.6969" y2="37.705" gradientUnits="userSpaceOnUse">
<stop stop-color="#BA975C"/>
<stop offset="0.505208" stop-color="#F6E7CC"/>
<stop offset="1" stop-color="#D7A250"/>
</linearGradient>
<linearGradient id="paint3_linear_185_5904" x1="17.9238" y1="18.1395" x2="31.0148" y2="18.382" gradientUnits="userSpaceOnUse">
<stop stop-color="#BA975C"/>
<stop offset="0.505208" stop-color="#F6E7CC"/>
<stop offset="1" stop-color="#D7A250"/>
</linearGradient>
<linearGradient id="paint4_linear_185_5904" x1="29.4187" y1="45.5009" x2="42.5044" y2="45.7431" gradientUnits="userSpaceOnUse">
<stop stop-color="#BA975C"/>
<stop offset="0.505208" stop-color="#F6E7CC"/>
<stop offset="1" stop-color="#D7A250"/>
</linearGradient>
<linearGradient id="paint5_linear_185_5904" x1="30.2883" y1="17.3258" x2="41.1509" y2="17.5345" gradientUnits="userSpaceOnUse">
<stop stop-color="#BA975C"/>
<stop offset="0.505208" stop-color="#F6E7CC"/>
<stop offset="1" stop-color="#D7A250"/>
</linearGradient>
<linearGradient id="paint6_linear_185_5904" x1="39.3147" y1="36.815" x2="47.6912" y2="36.8642" gradientUnits="userSpaceOnUse">
<stop stop-color="#BA975C"/>
<stop offset="0.505208" stop-color="#F6E7CC"/>
<stop offset="1" stop-color="#D7A250"/>
</linearGradient>
<linearGradient id="paint7_linear_185_5904" x1="17.3223" y1="45.2558" x2="30.1451" y2="45.475" gradientUnits="userSpaceOnUse">
<stop stop-color="#BA975C"/>
<stop offset="0.505208" stop-color="#F6E7CC"/>
<stop offset="1" stop-color="#D7A250"/>
</linearGradient>
<linearGradient id="paint8_linear_185_5904" x1="12.8" y1="25.2534" x2="21.1777" y2="25.3145" gradientUnits="userSpaceOnUse">
<stop stop-color="#BA975C"/>
<stop offset="0.505208" stop-color="#F6E7CC"/>
<stop offset="1" stop-color="#D7A250"/>
</linearGradient>
</defs>
</svg>
