<svg width="191" height="51" viewBox="0 0 191 51" fill="none" xmlns="http://www.w3.org/2000/svg">
<path d="M18.5438 4.90788e-06C14.8761 4.90788e-06 11.2909 1.10926 8.2414 3.18752C5.19187 5.26566 2.81508 8.2195 1.41157 11.6755C0.0080664 15.1315 -0.359192 18.9343 0.356295 22.6032C1.07178 26.272 2.83799 29.642 5.4313 32.2871C8.02474 34.9321 11.3288 36.7335 14.926 37.4632C18.5231 38.193 22.2517 37.8184 25.6401 36.3869C29.0286 34.9554 31.9247 32.5313 33.9622 29.421C35.9999 26.3107 37.0875 22.654 37.0875 18.9133C37.0892 16.429 36.6108 13.9689 35.6795 11.6734C34.7482 9.37794 33.3824 7.29215 31.6601 5.53556C29.9378 3.77898 27.8928 2.3859 25.6422 1.43604C23.3915 0.486189 20.9795 -0.0017853 18.5438 4.90788e-06ZM15.864 26.9351L14.5242 31.0348C12.0173 30.1436 9.84549 28.477 8.31148 26.2671C6.77746 24.0571 5.95787 21.4141 5.96671 18.7064C5.97556 15.9988 6.81243 13.3613 8.36092 11.162C9.90926 8.9625 12.0919 7.3106 14.6046 6.43654L15.9444 10.5362C14.2861 11.1072 12.8473 12.1985 11.8341 13.6541C10.8209 15.1097 10.2851 16.855 10.3036 18.64C10.1985 20.4593 10.6908 22.2625 11.7027 23.7646C12.7144 25.2667 14.1881 26.3824 15.8908 26.9351H15.864ZM22.1882 31.2124L20.8483 27.0307C22.5336 26.4744 24.0038 25.3899 25.0495 23.9315C26.095 22.4732 26.6627 20.7154 26.6716 18.9088C26.6805 17.1022 26.1302 15.3388 25.099 13.8697C24.0679 12.4008 22.6084 11.3011 20.9287 10.7276L22.2686 6.54586C24.8161 7.41118 27.0295 9.07661 28.5919 11.3037C30.1544 13.5308 30.9855 16.2052 30.966 18.9436C30.9467 21.6821 30.078 24.344 28.4843 26.5479C26.8906 28.7519 24.6538 30.3847 22.0944 31.2124H22.1882Z" fill="url(#paint0_linear_185_5987)"/>
<path d="M50.2577 50.4816H47.3501V41.7629H52.388V42.6375H48.3684V45.3706H50.2443C51.9593 45.3706 53.0714 46.0676 53.0714 47.8168V47.8988C53.0714 49.607 51.9593 50.4816 50.2577 50.4816ZM50.2577 49.7026C51.5975 49.7026 52.0531 49.0877 52.0531 48.0491V47.9671C52.0531 46.9148 51.4501 46.3136 50.1773 46.3136H48.3684V49.7163L50.2577 49.7026ZM54.0227 48.746C54.0227 47.2702 55.5635 46.7372 57.1848 46.7372H58.1227V46.2999C58.1227 45.2476 57.7743 44.824 56.7828 44.824C55.7913 44.824 55.4429 45.1793 55.3357 45.9583H54.304C54.3338 45.6588 54.4221 45.3686 54.5636 45.1046C54.7052 44.8405 54.8971 44.6079 55.1281 44.4207C55.3591 44.2335 55.6245 44.0953 55.9087 44.0144C56.1929 43.9335 56.49 43.9114 56.7828 43.9494C57.0883 43.9063 57.3994 43.9346 57.6927 44.0322C57.9859 44.1298 58.2536 44.2939 58.4756 44.5124C58.6975 44.7309 58.8679 44.998 58.9739 45.2934C59.0799 45.5889 59.1186 45.905 59.0874 46.2179V50.3996H57.9753V49.607C57.7561 49.9265 57.4594 50.1826 57.1141 50.3503C56.769 50.5179 56.387 50.5915 56.0057 50.5636C54.9606 50.5636 53.9557 50.0443 53.9557 48.7324L54.0227 48.746ZM58.1227 48.3087V47.5298H57.2651C55.9253 47.5298 55.1348 47.8851 55.1348 48.746C55.1348 49.607 55.4831 49.7983 56.3272 49.7983C57.1714 49.7983 58.1227 49.2517 58.1227 48.2951V48.3087ZM64.822 47.6938H61.7403V50.5636H60.655V44.1954H61.6867V46.9285H64.7684V44.1954H65.8001V50.5636H64.7684L64.822 47.6938ZM68.587 47.2565V50.4816H67.5553V44.1134H68.587V47.0788L71.1461 44.1134H72.3386L69.6589 47.0788L72.5664 50.4816H71.3739L68.587 47.2565ZM188.29 22.3166L190.34 24.8448C189.441 25.7844 188.363 26.5254 187.172 27.0214C185.979 27.5175 184.7 27.7582 183.413 27.7282C181.768 27.7844 180.132 27.4572 178.63 26.7716C177.302 26.0424 176.21 24.937 175.485 23.5889C174.76 22.2406 174.433 20.7071 174.543 19.1735C174.543 14.0352 177.96 10.1952 183.011 10.1952C188.652 10.1952 191.385 14.4725 190.957 20.0481H178.134C178.177 20.7332 178.378 21.3982 178.721 21.9893C179.063 22.5805 179.537 23.0812 180.104 23.4509C181.165 24.0874 182.386 24.3916 183.614 24.3255C184.486 24.334 185.352 24.1601 186.156 23.8147C186.96 23.4692 187.686 22.9593 188.29 22.3166ZM178.295 17.0007H187.352C187.206 15.9214 186.668 14.9376 185.844 14.244C185.02 13.5506 183.971 13.1981 182.904 13.2563C181.824 13.2169 180.766 13.5726 179.92 14.2593C179.076 14.946 178.499 15.9184 178.295 17.0007ZM92.1418 27.2909H96.7508L89.4889 18.6542L96.6704 10.5505H92.1418L86.6752 17.0007H85.0405V10.5505H81.5435V27.1953H85.0405V20.5811H86.6618L92.1418 27.2909ZM107.269 13.6253C106.593 13.6184 105.925 13.7532 105.305 14.0213C104.683 14.2894 104.121 14.6852 103.656 15.1838C103.192 15.6825 102.832 16.2734 102.601 16.9198C102.369 17.5662 102.271 18.2542 102.311 18.9412C102.271 19.6282 102.369 20.3162 102.601 20.9626C102.832 21.609 103.192 22.1999 103.656 22.6986C104.121 23.1972 104.683 23.5929 105.305 23.861C105.925 24.1292 106.593 24.264 107.269 24.2572C107.941 24.269 108.609 24.137 109.229 23.8695C109.848 23.602 110.405 23.2049 110.865 22.7039C111.325 22.2029 111.676 21.6093 111.897 20.9611C112.118 20.313 112.202 19.6249 112.146 18.9412C112.206 18.2553 112.124 17.5643 111.906 16.9128C111.686 16.2614 111.335 15.6643 110.876 15.1602C110.416 14.6562 109.857 14.2566 109.236 13.9875C108.614 13.7183 107.944 13.5856 107.269 13.5979V13.6253ZM107.872 10.2225C112.481 10.2225 115.911 13.8849 115.911 18.9412C115.911 23.9975 112.575 27.7419 107.872 27.7419C106.879 27.7882 105.887 27.6185 104.963 27.2439C104.038 26.8692 103.204 26.2983 102.512 25.5691V34.2878H98.975V10.5505H102.485V12.5593C103.142 11.7733 103.97 11.155 104.903 10.754C105.836 10.3529 106.848 10.1803 107.858 10.2498L107.872 10.2225ZM154.365 10.5778H139.707V13.8849H145.267V27.1953H148.858V13.9396H154.445V10.5505L154.365 10.5778ZM79.0647 10.5778H64.4468V13.8849H70.0341V27.1953H73.6249V13.9396H79.1451V10.5505L79.0647 10.5778ZM60.0789 18.9139C60.0789 17.5257 59.5381 16.1944 58.5758 15.2129C57.6134 14.2313 56.3081 13.6799 54.9472 13.6799C53.5861 13.6799 52.2808 14.2313 51.3184 15.2129C50.3561 16.1944 49.8155 17.5257 49.8155 18.9139C49.8155 20.302 50.3561 21.6332 51.3184 22.6148C52.2808 23.5964 53.5861 24.1478 54.9472 24.1478C56.3081 24.1478 57.6134 23.5964 58.5758 22.6148C59.5381 21.6332 60.0789 20.302 60.0789 18.9139ZM46.2381 18.9139C46.2034 17.1309 46.6901 15.3779 47.6361 13.8783C48.5822 12.3787 49.9445 11.2003 51.5497 10.4934C53.1548 9.78643 54.93 9.58308 56.6489 9.90928C58.3679 10.2353 59.9526 11.0762 61.2013 12.3244C62.4499 13.5728 63.3058 15.1719 63.6598 16.9183C64.0138 18.6646 63.8499 20.4789 63.1891 22.1298C62.5283 23.7808 61.4004 25.1935 59.9492 26.1882C58.498 27.1828 56.7894 27.7142 55.041 27.7146C53.8873 27.7613 52.7365 27.5671 51.6593 27.1438C50.5822 26.7203 49.6011 26.0767 48.7767 25.2524C47.9523 24.4282 47.3018 23.4408 46.8651 22.3507C46.4286 21.2607 46.2152 20.091 46.2381 18.9139ZM171.716 10.5505V27.1953H168.206V16.4814L159.657 27.2089H156.83V10.5505H160.341V21.36L168.889 10.6325H171.716V10.5505ZM137.349 27.2909H133.838V10.5505H137.349V27.2909ZM128.197 21.5377C128.214 21.2082 128.164 20.8787 128.05 20.5697C127.938 20.2608 127.762 19.979 127.537 19.7419C127.312 19.5046 127.042 19.3173 126.742 19.1913C126.444 19.0653 126.122 19.0035 125.799 19.0095H122.289V24.1478H125.879C126.204 24.1413 126.523 24.0675 126.817 23.931C127.112 23.7946 127.377 23.5982 127.596 23.354C127.813 23.1096 127.98 22.8227 128.086 22.5104C128.192 22.1981 128.235 21.8672 128.211 21.5377H128.197ZM131.788 21.5377C131.804 22.3094 131.664 23.076 131.374 23.7891C131.085 24.502 130.652 25.1458 130.105 25.6792C129.559 26.2127 128.909 26.6242 128.197 26.8875C127.486 27.1509 126.729 27.2603 125.973 27.2089H118.711V10.5505H122.289V16.0167H126.308C127.034 15.9719 127.762 16.0833 128.443 16.3438C129.123 16.6042 129.744 17.0079 130.261 17.5286C130.779 18.0492 131.184 18.6753 131.449 19.3659C131.715 20.0567 131.835 20.7966 131.802 21.5377H131.788Z" fill="url(#paint1_linear_185_5987)"/>
<defs>
<linearGradient id="paint0_linear_185_5987" x1="-2.59211e-07" y1="18.9657" x2="36.6685" y2="19.3726" gradientUnits="userSpaceOnUse">
<stop stop-color="#BA975C"/>
<stop offset="0.505208" stop-color="#F6E7CC"/>
<stop offset="1" stop-color="#D7A250"/>
</linearGradient>
<linearGradient id="paint1_linear_185_5987" x1="46.2363" y1="30.2201" x2="189.152" y2="35.957" gradientUnits="userSpaceOnUse">
<stop stop-color="#BA975C"/>
<stop offset="0.505208" stop-color="#F6E7CC"/>
<stop offset="1" stop-color="#D7A250"/>
</linearGradient>
</defs>
</svg>
