<svg width="179" height="45" viewBox="0 0 179 45" fill="none" xmlns="http://www.w3.org/2000/svg">
<path d="M70.705 8.757H49.3593L50.9076 4.5H72.2265L70.705 8.757ZM69.9442 10.872H48.5985L47.0591 15.12H68.378L69.9442 10.872ZM67.6351 17.217H46.2983L44.75 21.465H66.051L67.6351 17.217Z" fill="url(#paint0_linear_185_5912)"/>
<path d="M121.478 32.0849H125.3C125.846 32.154 126.401 32.0849 126.914 31.8836C127.426 31.6825 127.88 31.3557 128.236 30.9328C128.769 30.2407 129.033 29.3768 128.978 28.5029C129.011 27.9464 128.907 27.3904 128.676 26.8836C128.445 26.3768 128.094 25.9347 127.654 25.5959C126.939 25.1274 126.089 24.912 125.237 24.9839H121.434V32.0758L121.478 32.0849ZM116.44 36.3599V10.8719H132.934L131.476 15.1469H121.478V20.7899H125.551C128.844 20.7899 130.545 21.5819 131.726 22.5899C132.57 23.3449 133.233 24.2817 133.667 25.3304C134.101 26.3791 134.295 27.5128 134.232 28.6469C134.294 29.8631 134.054 31.0757 133.533 32.1755C133.013 33.2752 132.229 34.2276 131.252 34.9469C129.659 36.0539 128.003 36.3689 124.629 36.3689L116.44 36.3599ZM101.824 36.3599V15.1469H94.4852V10.8719H114.846L113.388 15.1469H106.899V36.3869H101.815L101.824 36.3599ZM81.5077 21.0598H84.3985C84.9985 21.1102 85.6028 21.0646 86.1885 20.9248C86.7885 20.7299 87.3053 20.3366 87.6547 19.8088C88.0041 19.2809 88.1656 18.6497 88.1128 18.0179C88.195 17.39 88.0442 16.7538 87.6892 16.2307C87.3342 15.7077 86.7999 15.3347 86.1885 15.1829C85.5586 15.0328 84.9109 14.9723 84.2643 15.0029H81.5793V21.0598H81.5077ZM81.5077 25.4698V32.1569H85.025C85.9821 32.262 86.9428 31.9947 87.71 31.4099C88.0705 31.0818 88.3544 30.6777 88.5416 30.2265C88.7288 29.7754 88.8146 29.2882 88.793 28.7999C88.8118 28.0169 88.5761 27.249 88.1217 26.6129C87.3789 25.6409 86.4391 25.4609 84.8729 25.4609H81.5166L81.5077 25.4698ZM89.6343 22.7698V22.8598C90.498 23.2123 91.3008 23.6982 92.015 24.2998C92.7399 24.9029 93.3118 25.6699 93.6851 26.5381C94.0583 27.4062 94.2221 28.3509 94.163 29.2948C94.163 32.7868 92.3282 35.3069 89.3031 36.0448C88.095 36.3451 86.8498 36.4663 85.6068 36.4049H76.4778V10.8719H84.6044C85.8973 10.8231 87.1911 10.944 88.4529 11.2319C91.3885 12.0239 93.3127 14.0668 93.3127 17.2888C93.3378 18.0527 93.2071 18.8136 92.9306 19.5254C92.6531 20.2372 92.2352 20.8847 91.7017 21.4288C91.1334 22.0092 90.455 22.4683 89.7059 22.7788H89.6343V22.7698Z" fill="url(#paint1_linear_185_5912)"/>
<defs>
<linearGradient id="paint0_linear_185_5912" x1="44.75" y1="13.006" x2="71.9103" y2="13.5038" gradientUnits="userSpaceOnUse">
<stop stop-color="#BA975C"/>
<stop offset="0.505208" stop-color="#F6E7CC"/>
<stop offset="1" stop-color="#D7A250"/>
</linearGradient>
<linearGradient id="paint1_linear_185_5912" x1="76.4778" y1="23.6763" x2="133.561" y2="25.1362" gradientUnits="userSpaceOnUse">
<stop stop-color="#BA975C"/>
<stop offset="0.505208" stop-color="#F6E7CC"/>
<stop offset="1" stop-color="#D7A250"/>
</linearGradient>
</defs>
</svg>
