<svg width="58" height="59" viewBox="0 0 58 59" fill="none" xmlns="http://www.w3.org/2000/svg">
<path d="M31.9346 38.8577H27.8023C28.541 40.5738 29.2154 42.1505 29.8578 43.6628L31.9346 38.8362M29.8578 12.5366L27.8344 17.3739H31.9775C31.2388 15.6793 30.5643 14.1026 29.9006 12.5473M40.6061 26.0404C40.6061 27.4562 40.6061 28.8183 40.6061 30.1912L45.4343 28.1212L40.5954 26.0404M14.3133 28.1855L19.1522 30.2663C19.1522 28.8505 19.1522 27.4776 19.1522 26.1047L14.324 28.1855M15.4909 13.695L15.4267 13.7701C16.2831 15.1215 17.1396 16.4837 18.0067 17.8352C20.5046 21.6727 21.5279 26.2879 20.8865 30.8241C20.3539 34.0026 19.1054 37.0178 17.2359 39.6407L15.341 42.5902C15.5483 42.5478 15.745 42.4639 15.9191 42.3436C17.1396 41.5498 18.3493 40.7454 19.5804 39.9624C23.42 37.4839 28.024 36.4784 32.5448 37.1308C35.7238 37.6436 38.7464 38.8681 41.3876 40.7132L44.2674 42.5688C43.411 41.0243 42.501 39.5548 41.5696 38.0961C39.3811 34.6553 38.3841 30.5882 38.7327 26.523C39.0459 23.0775 40.2487 19.773 42.2227 16.9342C42.9292 15.8616 43.6251 14.789 44.3638 13.6521C44.1599 13.6828 43.9658 13.7598 43.7964 13.8773L40.6489 15.9045C37.9615 17.7261 34.856 18.8333 31.6242 19.1222C27.277 19.528 22.9211 18.4426 19.27 16.0439C18.0281 15.2288 16.7756 14.4351 15.523 13.6414M18.7347 24.0025C18.3069 22.156 17.545 20.4038 16.4865 18.8326C14.9021 16.3014 13.2749 13.7915 11.6583 11.3246C11.1552 10.5309 11.1016 10.1126 11.5085 9.70501C11.9153 9.29743 12.3007 9.35106 13.1143 9.8659C15.887 11.6357 18.6383 13.4269 21.4325 15.1537C22.7891 15.9975 24.2759 16.61 25.8325 16.9664C26.1215 16.4408 26.4106 15.8938 26.6889 15.3682C27.6023 13.4433 28.3197 11.431 28.83 9.36179C28.9906 8.80405 29.1084 8.19268 29.9006 8.17123C30.4359 8.17123 30.7035 8.43937 30.9711 9.35106C31.5797 11.8232 32.5044 14.2061 33.7225 16.4408C33.8081 16.6017 33.9045 16.7626 34.0222 16.9449C35.4541 16.6649 36.8222 16.1232 38.0582 15.3468C40.9594 13.5556 43.8392 11.7 46.719 9.8659C47.5326 9.35106 47.918 9.29743 48.3248 9.70501C48.7316 10.1126 48.6888 10.5202 48.1856 11.3139C46.4085 14.1026 44.61 16.8806 42.8329 19.6907C41.9919 21.0507 41.3907 22.5455 41.0558 24.1097C42.212 24.6567 43.3682 25.2681 44.5672 25.7401C45.7662 26.212 47.083 26.5874 48.3462 26.995L49.192 27.2738C49.3771 27.3359 49.5382 27.4548 49.6522 27.6136C49.7663 27.7724 49.8277 27.9631 49.8277 28.1587C49.8277 28.3544 49.7663 28.5451 49.6522 28.7038C49.5382 28.8626 49.3771 28.9815 49.192 29.0436C48.5068 29.2688 47.8003 29.4726 47.0509 29.6764C44.9412 30.2709 42.9185 31.1399 41.0343 32.2613C41.3597 33.8472 41.9808 35.3573 42.865 36.7125C44.61 39.4476 46.3764 42.2041 48.1749 45.0035C48.2606 45.1323 48.3355 45.261 48.4105 45.3897C48.515 45.5705 48.556 45.7813 48.5267 45.9882C48.4975 46.1951 48.3998 46.3862 48.2492 46.5309C48.0987 46.6755 47.904 46.7654 47.6964 46.786C47.4888 46.8066 47.2804 46.7568 47.1044 46.6446L40.4241 42.3543C38.5421 41.0423 36.4594 40.0461 34.2577 39.4047L33.8295 39.3082C33.2086 40.6811 32.5341 42.0432 31.9775 43.459C31.5064 44.6818 31.1852 45.9581 30.7998 47.2131C30.65 47.7172 30.4037 48.114 29.8149 48.1033C29.2261 48.0926 28.9906 47.685 28.8514 47.1809C28.2642 44.7585 27.3833 42.4172 26.2286 40.2091C25.6184 39.1365 25.9502 39.2438 24.7298 39.6085C22.4736 40.4095 20.3431 41.5291 18.4028 42.9335C16.5722 44.1348 14.7415 45.3146 12.9002 46.5052L12.6111 46.666C12.4312 46.7956 12.211 46.8566 11.9902 46.8382C11.7694 46.8197 11.5623 46.723 11.4063 46.5654C11.2503 46.4078 11.1554 46.1995 11.1388 45.9782C11.1222 45.7568 11.185 45.5367 11.3158 45.3575C12.0866 44.1669 12.8681 42.9871 13.6175 41.7751C14.8914 39.7265 16.1868 37.6993 17.3751 35.597C17.9064 34.516 18.3677 33.4018 18.7561 32.2613C17.9463 31.8172 17.1137 31.4163 16.2617 31.06C14.5702 30.4165 12.8574 29.848 11.1445 29.2581C10.5771 29.065 9.91333 28.9685 9.91333 28.1855C9.91333 27.4025 10.5664 27.2738 11.1338 27.1129C13.5997 26.4843 15.9745 25.5398 18.1994 24.3028L18.7026 24.0025" fill="#BA975C"/>
<path d="M43.8927 9.60848C43.518 9.98388 43.0898 9.94098 42.4689 9.60848C41.1545 8.80368 39.7884 8.08706 38.3794 7.46333C34.9892 6.04296 31.2981 5.49516 27.6425 5.86984C23.9869 6.24452 20.483 7.52978 17.45 9.60848L17.1182 9.81227C17.0123 9.88194 16.8935 9.92925 16.7688 9.95133C16.6441 9.9734 16.5162 9.96978 16.393 9.94066C16.2697 9.91155 16.1537 9.85757 16.052 9.78201C15.9503 9.70646 15.865 9.61091 15.8014 9.50122C15.6876 9.2822 15.6619 9.02782 15.7296 8.79041C15.7974 8.553 15.9533 8.35061 16.1654 8.22486C17.7208 7.12687 19.4122 6.23631 21.197 5.57559C24.844 4.12875 28.7893 3.59907 32.6878 4.03286C36.5864 4.46664 40.3195 5.85068 43.5609 8.06397C43.7089 8.11799 43.8408 8.20874 43.9443 8.32773C44.0478 8.44673 44.1195 8.59008 44.1526 8.74438C44.1858 8.89868 44.1793 9.05888 44.1339 9.21C44.0884 9.36112 44.0055 9.49823 43.8927 9.60848Z" fill="#BA975C"/>
<path d="M49.7487 42.0432C49.593 42.2147 49.3814 42.3251 49.1519 42.3545C48.9224 42.384 48.69 42.3307 48.4961 42.2041C48.3982 42.1374 48.3144 42.0519 48.2495 41.9527C48.1847 41.8534 48.14 41.7423 48.1181 41.6257C48.0963 41.5091 48.0976 41.3893 48.122 41.2732C48.1465 41.1571 48.1936 41.047 48.2606 40.9492C48.7745 40.0482 49.3954 39.1902 49.8343 38.2463C51.6621 34.6955 52.4978 30.7155 52.2528 26.7278C52.0078 22.7401 50.6913 18.8929 48.4426 15.5935C48.2874 15.3851 48.1747 15.1482 48.1107 14.8963C48.067 14.6906 48.1022 14.4759 48.2093 14.295C48.3164 14.1142 48.4876 13.9803 48.6888 13.9202C48.8979 13.8341 49.1312 13.8281 49.3444 13.9033C49.5577 13.9784 49.7358 14.1295 49.845 14.3278C51.0764 16.0945 52.053 18.0263 52.7462 20.0661C54.0202 23.6534 54.4274 27.4922 53.9342 31.2677C53.4411 35.0432 52.0617 38.6477 49.9092 41.7858C49.845 41.8716 49.7915 41.9681 49.7487 42.0325" fill="#BA975C"/>
<path d="M43.6786 48.1569C42.7044 48.7039 41.6124 49.4333 40.467 49.9696C32.0453 53.8094 23.9626 53.2266 16.2189 48.2213C16.0941 48.1683 15.9821 48.0892 15.8902 47.9893C15.7984 47.8895 15.7288 47.7711 15.6863 47.6422C15.6437 47.5132 15.6291 47.3767 15.6434 47.2417C15.6577 47.1066 15.7006 46.9762 15.7693 46.8591C16.0904 46.355 16.6685 46.2799 17.2895 46.7089C19.3859 48.1579 21.7246 49.2186 24.1945 49.8409C27.2717 50.6639 30.4896 50.814 33.6298 50.281C36.77 49.748 39.759 48.5444 42.3939 46.7519C42.5279 46.6521 42.6713 46.5659 42.8222 46.4944C43.0182 46.3957 43.2443 46.3752 43.4549 46.4369C43.6655 46.4986 43.8449 46.638 43.957 46.8269C44.2353 47.2452 44.139 47.6528 43.7107 48.1784" fill="#BA975C"/>
<path d="M11.3479 42.0861C11.2454 42.1889 11.1204 42.2662 10.9829 42.312C10.8453 42.3578 10.699 42.3708 10.5555 42.35C10.4121 42.3292 10.2754 42.2751 10.1565 42.192C10.0376 42.109 9.93966 41.9993 9.87051 41.8716C7.75658 38.8339 6.38841 35.339 5.87734 31.6714C4.9647 25.6587 6.36935 19.5233 9.80628 14.5102C9.86365 14.3823 9.94814 14.2684 10.0539 14.1766C10.1596 14.0847 10.2841 14.017 10.4186 13.9782C10.553 13.9394 10.6944 13.9305 10.8327 13.9519C10.971 13.9734 11.1029 14.0248 11.2194 14.1026C11.6797 14.4244 11.7226 15.0035 11.3158 15.6042C9.80525 17.7768 8.71579 20.2146 8.1041 22.7905C7.3443 25.8373 7.23769 29.011 7.79127 32.1021C8.34486 35.1933 9.54608 38.1318 11.3158 40.724C11.7119 41.3246 11.7333 41.7965 11.3158 42.1398" fill="#BA975C"/>
<path d="M26.0894 31.9288C26.8379 32.679 27.7917 33.1899 28.8301 33.397C29.8685 33.604 30.9448 33.4979 31.923 33.0921C32.9012 32.6862 33.7373 31.9988 34.3255 31.1169C34.9138 30.2349 35.2277 29.198 35.2277 28.1373C35.2277 27.0765 34.9138 26.0396 34.3255 25.1576C33.7373 24.2757 32.9012 23.5883 31.923 23.1824C30.9448 22.7766 29.8685 22.6705 28.8301 22.8775C27.7917 23.0846 26.8379 23.5955 26.0894 24.3457C25.0859 25.3514 24.5222 26.7152 24.5222 28.1373C24.5222 29.5593 25.0859 30.9231 26.0894 31.9288ZM34.975 33.2052C33.9703 34.2219 32.6866 34.9166 31.2871 35.201C29.8875 35.4853 28.4352 35.3466 27.1145 34.8024C25.7938 34.2582 24.6643 33.333 23.8694 32.1444C23.0746 30.9558 22.6502 29.5573 22.6502 28.1265C22.6502 26.6958 23.0746 25.2973 23.8694 24.1087C24.6643 22.9201 25.7938 21.9949 27.1145 21.4507C28.4352 20.9065 29.8875 20.7677 31.2871 21.0521C32.6866 21.3365 33.9703 22.0311 34.975 23.0479C36.3132 24.3981 37.0642 26.2237 37.0642 28.1265C37.0642 30.0293 36.3132 31.855 34.975 33.2052Z" fill="#BA975C"/>
<path d="M56.6751 1.27455C57.1844 1.78626 57.5646 2.41218 57.7843 3.10046C58.004 3.78874 58.0568 4.51956 57.9384 5.23237L56.0328 4.93204C56.1191 4.51837 56.1006 4.08965 55.979 3.68497C55.8575 3.2803 55.6367 2.91255 55.3369 2.61528C55.0657 2.36433 54.7468 2.17065 54.3993 2.04576C54.0518 1.92088 53.6827 1.86735 53.3141 1.88837C52.9455 1.90939 52.5849 2.00452 52.2537 2.1681C51.9226 2.33168 51.6277 2.56036 51.3866 2.84052C51.1164 3.08221 50.8978 3.37615 50.7438 3.70466C50.5899 4.03317 50.5038 4.38948 50.4908 4.75216C50.4778 5.11484 50.5381 5.47641 50.6682 5.81513C50.7982 6.15386 50.9952 6.46276 51.2474 6.72325C51.555 7.04527 51.9401 7.28251 52.3658 7.41213C52.7914 7.54175 53.2432 7.55938 53.6776 7.46333L54.1808 9.32961C53.4222 9.5105 52.63 9.49306 51.8801 9.27894C51.1303 9.06482 50.4479 8.66123 49.8985 8.10687C49.4671 7.66928 49.127 7.15002 48.898 6.57937C48.669 6.00872 48.5557 5.39809 48.5646 4.7831C48.5736 4.16811 48.7047 3.56107 48.9502 2.99736C49.1958 2.43366 49.5509 1.92457 49.9949 1.4998C50.4191 1.04243 50.9301 0.674376 51.498 0.417158C52.0659 0.159939 52.6792 0.0187139 53.3022 0.00173699C53.9251 -0.0152399 54.5452 0.0923723 55.1262 0.318283C55.7072 0.544194 56.2374 0.88387 56.6859 1.31746" fill="#BA975C"/>
<path d="M11.4228 2.39003C12.8467 3.85947 12.8467 5.52196 11.8296 6.58381C11.535 6.88988 11.1655 7.1133 10.758 7.23185C10.3504 7.3504 9.91892 7.35995 9.50652 7.25954C9.6092 7.6591 9.60696 8.07847 9.50004 8.47691C9.39311 8.87535 9.18513 9.2393 8.89631 9.5334C8.58915 9.78912 8.23473 9.9817 7.85327 10.1002C7.47181 10.2186 7.0708 10.2606 6.67314 10.2238C6.27548 10.1869 5.88896 10.0719 5.53567 9.88537C5.18237 9.69882 4.86921 9.44437 4.61409 9.13655C3.29731 7.828 3.21166 6.04752 3.95035 5.17874L5.51335 6.02607C5.32151 6.30077 5.24028 6.63792 5.28594 6.97004C5.33159 7.30217 5.50076 7.60477 5.75958 7.81728C5.87048 7.96335 6.0097 8.08547 6.16888 8.1763C6.32805 8.26713 6.50391 8.32479 6.68589 8.34583C6.86786 8.36686 7.0522 8.35084 7.22785 8.29872C7.40349 8.2466 7.5668 8.15945 7.70799 8.04252C7.8187 7.91755 7.90291 7.77134 7.95551 7.61278C8.00811 7.45421 8.028 7.28659 8.01399 7.12009C7.99997 6.95359 7.95234 6.79168 7.87397 6.64418C7.79561 6.49668 7.68815 6.36667 7.55811 6.26204L6.80873 5.52196L7.97563 4.35285L8.72502 5.09293C9.15324 5.53269 9.79557 5.75793 10.2452 5.31817C10.3538 5.18695 10.4354 5.03542 10.4851 4.87237C10.5348 4.70932 10.5517 4.538 10.5347 4.36836C10.5178 4.19872 10.4674 4.03414 10.3865 3.88417C10.3055 3.73421 10.1956 3.60185 10.0632 3.49479C9.84484 3.24839 9.54586 3.08817 9.22008 3.04294C8.8943 2.99772 8.5631 3.07047 8.28609 3.2481L7.42965 1.69286C8.06365 1.29439 8.82243 1.14514 9.55974 1.27387C10.297 1.4026 10.9607 1.8002 11.4228 2.39003Z" fill="#BA975C"/>
<path d="M50.8406 49.8945L49.5452 51.203L50.9584 52.6188C51.1378 52.8335 51.3939 52.9694 51.6719 52.9974C51.95 53.0255 52.2279 52.9435 52.4465 52.769C52.5348 52.6744 52.6025 52.5624 52.6452 52.4402C52.688 52.3179 52.7048 52.1881 52.6948 52.0589C52.6847 51.9298 52.6479 51.8042 52.5867 51.69C52.5255 51.5759 52.4413 51.4758 52.3394 51.3961L50.8406 49.8945ZM53.3671 47.3632L52.2216 48.5109L53.7204 50.0125C54.1701 50.4522 54.6839 50.5166 55.0372 50.1626C55.3905 49.8087 55.3048 49.3153 54.8659 48.8648L53.3671 47.3632ZM56.4182 47.6528C56.6953 47.8812 56.92 48.1668 57.0769 48.4901C57.2338 48.8134 57.3192 49.1668 57.3274 49.5262C57.3355 49.8856 57.2661 50.2426 57.124 50.5727C56.9819 50.9028 56.7704 51.1983 56.5039 51.439C56.2265 51.7688 55.8453 51.9942 55.4231 52.078C55.0008 52.1618 54.5627 52.0991 54.1808 51.9002C54.374 52.2885 54.4325 52.7302 54.3472 53.1556C54.2619 53.581 54.0376 53.9657 53.7097 54.2492C53.4555 54.5267 53.1452 54.7467 52.7994 54.8946C52.4536 55.0424 52.0803 55.1147 51.7045 55.1066C51.3286 55.0984 50.9588 55.0101 50.6197 54.8475C50.2806 54.6848 49.98 54.4516 49.738 54.1634L46.7725 51.1923L53.3671 44.5852L56.4182 47.6528Z" fill="#BA975C"/>
<path d="M7.36541 56.2656C7.62171 56.52 7.9265 56.72 8.26161 56.8538C8.59671 56.9876 8.95529 57.0524 9.31594 57.0444C9.67659 57.0364 10.0319 56.9557 10.3608 56.8072C10.6897 56.6586 10.9853 56.4453 11.2301 56.1798C11.5084 55.9352 11.7346 55.6367 11.895 55.3025C12.0555 54.9682 12.1469 54.6049 12.1639 54.2343C12.1809 53.8638 12.1231 53.4936 11.9939 53.146C11.8647 52.7984 11.6668 52.4804 11.4121 52.2113C11.1443 51.9469 10.826 51.7394 10.4763 51.6012C10.1265 51.4629 9.75253 51.3969 9.37669 51.4069C9.00085 51.4169 8.6309 51.5028 8.28898 51.6594C7.94707 51.8161 7.64022 52.0403 7.38682 52.3185C7.12129 52.5738 6.91001 52.8802 6.76568 53.2193C6.62135 53.5585 6.54695 53.9234 6.54695 54.2921C6.54695 54.6608 6.62135 55.0256 6.76568 55.3648C6.91001 55.7039 7.12129 56.0103 7.38682 56.2656M0 51.439L6.60532 44.789L7.98633 46.1727L5.35277 48.8005L6.90508 50.3664C7.78696 49.747 8.85733 49.4562 9.93075 49.5443C11.0042 49.6325 12.013 50.094 12.7824 50.8491C13.2162 51.3004 13.5563 51.8334 13.7832 52.4172C14.0101 53.0011 14.1192 53.6242 14.1043 54.2505C14.0894 54.8769 13.9507 55.4941 13.6962 56.0664C13.4418 56.6387 13.0766 57.1548 12.6218 57.5849C12.1922 58.0272 11.6794 58.38 11.113 58.6229C10.5466 58.8657 9.93788 58.9938 9.32185 58.9998C8.70581 59.0058 8.09469 58.8895 7.52372 58.6577C6.95274 58.4259 6.43322 58.0832 5.9951 57.6492C5.2295 56.8785 4.76106 55.861 4.67288 54.7772C4.58469 53.6935 4.88245 52.6134 5.51335 51.7286L3.98246 50.1841L1.38101 52.7905L0 51.439Z" fill="#BA975C"/>
</svg>
