<svg width="48" height="48" viewBox="0 0 48 48" fill="none" xmlns="http://www.w3.org/2000/svg">
<circle cx="24" cy="24" r="23" stroke="#BA975C" stroke-width="2"/>
<path d="M25.0457 21.9203L25.0455 30.7311C25.0457 31.3043 24.5823 31.7676 24.0091 31.7675C23.436 31.7675 22.9727 31.3042 22.9727 30.7311L22.9728 11.0364C22.9727 10.4632 23.436 9.99987 24.0092 10C24.295 9.99987 24.5546 10.1158 24.7422 10.3035C24.9298 10.4911 25.0457 10.7506 25.0457 11.0364L25.0455 19.8472C25.0455 19.8472 25.0457 21.6344 25.0457 21.9203Z" fill="#BA975C"/>
<path d="M22.9722 36.9207L14.1614 36.9205C13.5882 36.9207 13.1249 36.4573 13.125 35.8841C13.125 35.311 13.5883 34.8477 14.1614 34.8477L33.8561 34.8478C34.4293 34.8477 34.8926 35.311 34.8925 35.8842C34.8926 36.17 34.7767 36.4296 34.589 36.6172C34.4014 36.8048 34.142 36.9207 33.8561 36.9207L25.0453 36.9205C25.0453 36.9205 23.2581 36.9207 22.9722 36.9207Z" fill="#BA975C"/>
<path d="M32.0337 24.2925L24.7238 31.6022C24.3186 32.0076 23.6633 32.0076 23.2581 31.6022C22.8528 31.1969 22.8528 30.5417 23.2581 30.1364L30.568 22.8267C30.9733 22.4213 31.6285 22.4213 32.0337 22.8267C32.2359 23.0287 32.3374 23.2942 32.3374 23.5596C32.3374 23.8249 32.2359 24.0903 32.0337 24.2925Z" fill="#BA975C"/>
<path d="M17.3979 22.8256L24.7077 30.1355C25.1131 30.5408 25.1131 31.196 24.7077 31.6013C24.3024 32.0065 23.6472 32.0065 23.2419 31.6013L15.9322 24.2914C15.5267 23.8861 15.5267 23.2309 15.9322 22.8256C16.1341 22.6235 16.3997 22.5219 16.6651 22.5219C16.9304 22.5219 17.1958 22.6235 17.3979 22.8256Z" fill="#BA975C"/>
</svg>
