<svg width="73" height="70" viewBox="0 0 73 70" fill="none" xmlns="http://www.w3.org/2000/svg">
<mask id="path-1-outside-1_8_298" maskUnits="userSpaceOnUse" x="0" y="0" width="73" height="70" fill="black">
<rect fill="white" width="73" height="70"/>
<path fill-rule="evenodd" clip-rule="evenodd" d="M45.5554 1V1.25547H45.562V39.0576H45.5554V39.0642H27.6923V1H45.5554ZM42.4604 11.192V38.5533H45.0467V5.48889C44.5282 7.55914 43.6429 9.48673 42.4604 11.192ZM28.2076 18.6901H28.2043V38.5533H30.5528V18.5308C29.7865 18.637 29.0036 18.6901 28.2076 18.6901ZM39.1045 14.815C38.3679 15.4122 37.5851 15.953 36.7593 16.4208V38.5533H39.1045V14.815ZM36.2539 16.6995C35.5008 17.0976 34.7213 17.4426 33.9087 17.7246V38.5533H36.2539V16.6995ZM31.0582 38.5533H33.4033V17.8905C32.6403 18.1327 31.8575 18.3218 31.0582 18.4512V38.5533ZM39.6099 38.5533H41.9551V11.8888C41.2548 12.7978 40.4687 13.6339 39.6099 14.387V38.5533ZM28.2076 16.0824H28.2043V18.1858H28.2076C29.0003 18.1858 29.7865 18.1294 30.5528 18.0199C30.7212 17.9967 30.8897 17.9701 31.0582 17.9403C31.8608 17.8043 32.6436 17.6085 33.4033 17.3597C33.5718 17.3033 33.7403 17.2469 33.9087 17.1838C34.7246 16.8919 35.5041 16.5369 36.2539 16.1255L36.2549 16.1249C36.4231 16.0322 36.5912 15.9395 36.7593 15.8368C37.5917 15.3425 38.3745 14.7818 39.1045 14.1581C39.2762 14.0121 39.4447 13.8595 39.6099 13.7069C40.4819 12.9007 41.2713 12.0049 41.9551 11.0328C42.1301 10.7873 42.2986 10.5351 42.4604 10.2764C44.003 7.82455 44.9378 4.9514 45.0467 1.87256V1.51424H42.9658C42.9427 2.75839 42.7709 3.96936 42.4604 5.1206C42.3217 5.64481 42.1533 6.15905 41.9551 6.66003C41.3836 8.11983 40.5876 9.47015 39.6099 10.6612C39.448 10.8636 39.2796 11.056 39.1045 11.2484C38.4009 12.0248 37.6148 12.7248 36.7593 13.3353C36.5941 13.4514 36.4257 13.5675 36.2539 13.6803C35.514 14.1614 34.7312 14.5827 33.9087 14.9311C33.7436 14.9975 33.5751 15.0671 33.4033 15.1302C32.6469 15.4188 31.8641 15.6444 31.0582 15.8037C30.893 15.8402 30.7212 15.87 30.5528 15.8966C29.7898 16.0193 29.0036 16.0824 28.2076 16.0824ZM28.2076 13.4746H28.2043V15.5747H28.2076C30.0408 15.5747 31.7914 15.2231 33.4033 14.5894C33.5718 14.523 33.7403 14.45 33.9087 14.3771C34.7345 14.0154 35.5173 13.5775 36.2539 13.0699C36.4257 12.9538 36.5908 12.831 36.7593 12.7049C37.6214 12.0513 38.4075 11.3082 39.1045 10.4787C39.2762 10.2697 39.448 10.0574 39.6099 9.83841C40.6701 8.42174 41.4761 6.80269 41.9551 5.05094C42.0376 4.7457 42.1136 4.43383 42.1764 4.11867C42.3481 3.27263 42.4406 2.40007 42.4571 1.51092H40.3663C40.2969 4.80211 38.9327 7.77478 36.7593 9.93794C36.5941 10.1005 36.429 10.2597 36.2539 10.4124C34.1102 12.3201 31.2894 13.4746 28.2076 13.4746ZM37.7733 1.51424C37.6346 6.69652 33.4001 10.8702 28.2076 10.8702V12.9703H28.2109C34.5528 12.9703 39.7288 7.8544 39.8642 1.51424H37.7733ZM35.1771 1.51424C35.0417 5.25664 31.9698 8.26249 28.2076 8.26249V10.3626H28.2109C33.1259 10.3626 37.1325 6.41452 37.268 1.51424H35.1771ZM28.2076 5.65477H28.2043V7.75155H28.2076C31.689 7.75155 34.5363 4.97462 34.6717 1.51092H32.5743C32.4421 3.82006 30.5363 5.65477 28.2076 5.65477ZM32.0689 1.51424H28.2043V5.14715H28.2076C30.2588 5.14715 31.9368 3.54136 32.0689 1.51424Z"/>
<path d="M1 50.8487V50.444H8.41876V50.8487H4.91086V59.926H4.50788V50.8487H1Z"/>
<path d="M57.2781 55.8419L54.2558 50.9184V59.926H53.8528V50.444H54.5266L57.2781 55.049V55.8419Z"/>
<path d="M59.511 55.049L62.2625 50.444H62.9363V59.926H62.53V50.9184L59.511 55.8419V55.049Z"/>
<path d="M10.034 50.444H10.4402V54.913H16.508V50.444H16.9143V59.926H16.508V55.321H10.4402V59.926H10.034V50.444Z"/>
<path d="M25.9483 50.444H19.8805V59.926H25.9483V59.518H20.2835V55.321H24.9375V54.913H20.2835V50.8487H25.9483V50.444Z"/>
<path fill-rule="evenodd" clip-rule="evenodd" d="M31.8806 50.444H35.5206C37.5289 50.444 38.7577 51.6516 38.7577 53.4233C38.7577 55.195 37.5289 56.4026 35.5206 56.4026H32.2836V59.926H31.8806V50.444ZM35.5206 55.9979C37.3538 55.9979 38.3547 54.9959 38.3547 53.4233C38.3547 51.8507 37.3572 50.8487 35.5206 50.8487H32.2836V55.9979H35.5206Z"/>
<path fill-rule="evenodd" clip-rule="evenodd" d="M44.6239 50.444H40.9146L40.9179 50.4473V59.9293H41.3208V56.1372H44.7594L47.1871 59.9293H47.6595L45.2317 56.0941C46.9196 55.8651 47.7949 54.7935 47.7949 53.2906C47.7949 51.5952 46.6455 50.444 44.6239 50.444ZM47.3886 53.2873C47.3886 54.7902 46.4572 55.7258 44.6239 55.7258H41.3208V50.8487H44.6239C46.4572 50.8487 47.3886 51.7843 47.3886 53.2873Z"/>
<path d="M50.4869 50.444H50.084V59.926H50.4869V50.444Z"/>
<path d="M65.9289 59.926V50.444H72V50.8487H66.3352V54.913H70.9893V55.321H66.3352V59.518H72V59.926H65.9289Z"/>
<path d="M15.124 66.9364L14.2124 67.9615V66.9364H14.001V67.9615L13.0959 66.9364H12.8317L13.7499 67.9715L12.7458 68.9735H13.0332L14.001 68.0014V68.9735H14.2124V68.0014L15.1868 68.9735H15.4675L14.4634 67.9715L15.385 66.9364H15.124Z"/>
<path d="M17.4527 66.9364V68.4924L18.9226 66.9131V68.9735H18.7112V67.4174L17.2446 68.9967V66.9364H17.4527Z"/>
<path d="M20.703 68.9735H20.9309L21.684 67.3677L22.4338 68.9735H22.6617L21.684 66.9131L20.703 68.9735Z"/>
<path fill-rule="evenodd" clip-rule="evenodd" d="M25.281 68.9967C25.5717 68.9967 25.8195 68.8971 26.0176 68.6981C26.2191 68.499 26.3182 68.2502 26.3182 67.9582C26.3182 67.6663 26.2158 67.4174 26.0176 67.2184C25.8161 67.0193 25.5717 66.9198 25.281 66.9198C24.9904 66.9198 24.7426 67.0193 24.5444 67.2184C24.343 67.4174 24.2439 67.6663 24.2439 67.9582C24.2439 68.2502 24.343 68.499 24.5444 68.6981C24.7459 68.8971 24.9904 68.9967 25.281 68.9967ZM25.281 68.7943C25.0498 68.7943 24.8549 68.7113 24.6964 68.5521C24.5378 68.3895 24.4586 68.1938 24.4586 67.9549C24.4586 67.716 24.5378 67.517 24.6964 67.3577C24.8549 67.1952 25.0465 67.1155 25.281 67.1155C25.5156 67.1155 25.7104 67.1985 25.8657 67.3577C26.0209 67.5203 26.1002 67.716 26.1002 67.9549C26.1002 68.1938 26.0209 68.3929 25.8657 68.5521C25.7071 68.7147 25.5123 68.7943 25.281 68.7943Z"/>
<path d="M29.4066 66.3624H29.5718C29.5685 66.4951 29.5255 66.6013 29.4429 66.6743C29.3604 66.7506 29.2547 66.7871 29.1192 66.7871C28.9838 66.7871 28.8781 66.7506 28.7955 66.6743C28.713 66.6013 28.67 66.4951 28.6667 66.3624H28.8385C28.8418 66.4553 28.8682 66.525 28.9211 66.5748C28.9706 66.6212 29.04 66.6444 29.1225 66.6444C29.2051 66.6444 29.2745 66.6212 29.324 66.5748C29.3736 66.5283 29.4033 66.4586 29.4066 66.3624Z"/>
<path d="M28.2505 68.9967V66.9397H28.4586V68.4957L29.9318 66.9165V68.9735H29.7204V67.4174L28.2505 68.9967Z"/>
<path d="M34.4636 67.9649L35.4314 66.9364H35.6924L34.718 67.9715L35.7783 68.9735H35.4909L34.4636 68.0014V68.9735H34.2555V66.9364H34.4636V67.9649Z"/>
<path fill-rule="evenodd" clip-rule="evenodd" d="M39.0285 68.6981C38.8303 68.8971 38.5826 68.9967 38.2919 68.9967C38.0013 68.9967 37.7568 68.8971 37.5553 68.6981C37.3572 68.499 37.2548 68.2502 37.2548 67.9582C37.2548 67.6663 37.3538 67.4174 37.5553 67.2184C37.7535 67.0193 38.0013 66.9198 38.2919 66.9198C38.5826 66.9198 38.827 67.0193 39.0285 67.2184C39.2267 67.4174 39.3291 67.6663 39.3291 67.9582C39.3291 68.2502 39.23 68.499 39.0285 68.6981ZM37.7073 68.5521C37.8658 68.7113 38.0607 68.7943 38.2919 68.7943C38.5232 68.7943 38.718 68.7147 38.8766 68.5521C39.0318 68.3929 39.1111 68.1938 39.1111 67.9549C39.1111 67.716 39.0318 67.5203 38.8766 67.3577C38.718 67.1985 38.5264 67.1155 38.2919 67.1155C38.0574 67.1155 37.8658 67.1952 37.7073 67.3577C37.5487 67.517 37.4695 67.716 37.4695 67.9549C37.4695 68.1938 37.5487 68.3895 37.7073 68.5521Z"/>
<path d="M41.2581 66.9131L42.2358 68.0279L43.2069 66.9131V68.9735H42.9955V67.4407L42.2358 68.3265L41.4695 67.4407V68.9735H41.2581V66.9131Z"/>
<path d="M45.2846 68.9735H45.4927V67.1421H46.5959V68.9735H46.8073V66.9364H45.2846V68.9735Z"/>
<path d="M48.8156 68.9735H48.5877L49.5687 66.9131L50.5464 68.9735H50.3185L49.5687 67.3677L48.8156 68.9735Z"/>
<path d="M52.3268 68.9735H53.4829V68.7644H52.5349V68.0312H53.3111V67.8255H52.5349V67.1421H53.4829V66.9364H52.3268V68.9735Z"/>
<path d="M55.6266 67.9649L56.5944 66.9364H56.8586L55.8842 67.9715L56.9445 68.9735H56.6571L55.6266 68.0014V68.9735H55.4185V66.9364H55.6266V67.9649Z"/>
<path d="M59.4548 68.9967C59.1642 68.9967 58.9197 68.8971 58.7216 68.6981C58.5234 68.499 58.4243 68.2502 58.4243 67.9582C58.4243 67.6663 58.5234 67.4208 58.7248 67.2184C58.923 67.016 59.1708 66.9165 59.4581 66.9165C59.6233 66.9165 59.7785 66.953 59.9206 67.0226C60.0626 67.0923 60.1749 67.1819 60.2542 67.2914L60.1022 67.4241C60.0296 67.3312 59.9371 67.2549 59.8248 67.2018C59.7125 67.1454 59.5903 67.1188 59.4548 67.1188C59.2236 67.1188 59.0287 67.1985 58.8735 67.361C58.7183 67.5236 58.639 67.7227 58.639 67.9582C58.639 68.1938 58.7183 68.3929 58.8735 68.5554C59.0287 68.7147 59.2236 68.7943 59.4548 68.7943C59.5903 68.7943 59.7125 68.7678 59.8248 68.7113C59.9371 68.6549 60.0296 68.582 60.1022 68.4891L60.2542 68.6251C60.1749 68.7346 60.0626 68.8242 59.9206 68.8938C59.7785 68.9635 59.6233 69 59.4581 69L59.4548 68.9967Z"/>
</mask>
<path fill-rule="evenodd" clip-rule="evenodd" d="M45.5554 1V1.25547H45.562V39.0576H45.5554V39.0642H27.6923V1H45.5554ZM42.4604 11.192V38.5533H45.0467V5.48889C44.5282 7.55914 43.6429 9.48673 42.4604 11.192ZM28.2076 18.6901H28.2043V38.5533H30.5528V18.5308C29.7865 18.637 29.0036 18.6901 28.2076 18.6901ZM39.1045 14.815C38.3679 15.4122 37.5851 15.953 36.7593 16.4208V38.5533H39.1045V14.815ZM36.2539 16.6995C35.5008 17.0976 34.7213 17.4426 33.9087 17.7246V38.5533H36.2539V16.6995ZM31.0582 38.5533H33.4033V17.8905C32.6403 18.1327 31.8575 18.3218 31.0582 18.4512V38.5533ZM39.6099 38.5533H41.9551V11.8888C41.2548 12.7978 40.4687 13.6339 39.6099 14.387V38.5533ZM28.2076 16.0824H28.2043V18.1858H28.2076C29.0003 18.1858 29.7865 18.1294 30.5528 18.0199C30.7212 17.9967 30.8897 17.9701 31.0582 17.9403C31.8608 17.8043 32.6436 17.6085 33.4033 17.3597C33.5718 17.3033 33.7403 17.2469 33.9087 17.1838C34.7246 16.8919 35.5041 16.5369 36.2539 16.1255L36.2549 16.1249C36.4231 16.0322 36.5912 15.9395 36.7593 15.8368C37.5917 15.3425 38.3745 14.7818 39.1045 14.1581C39.2762 14.0121 39.4447 13.8595 39.6099 13.7069C40.4819 12.9007 41.2713 12.0049 41.9551 11.0328C42.1301 10.7873 42.2986 10.5351 42.4604 10.2764C44.003 7.82455 44.9378 4.9514 45.0467 1.87256V1.51424H42.9658C42.9427 2.75839 42.7709 3.96936 42.4604 5.1206C42.3217 5.64481 42.1533 6.15905 41.9551 6.66003C41.3836 8.11983 40.5876 9.47015 39.6099 10.6612C39.448 10.8636 39.2796 11.056 39.1045 11.2484C38.4009 12.0248 37.6148 12.7248 36.7593 13.3353C36.5941 13.4514 36.4257 13.5675 36.2539 13.6803C35.514 14.1614 34.7312 14.5827 33.9087 14.9311C33.7436 14.9975 33.5751 15.0671 33.4033 15.1302C32.6469 15.4188 31.8641 15.6444 31.0582 15.8037C30.893 15.8402 30.7212 15.87 30.5528 15.8966C29.7898 16.0193 29.0036 16.0824 28.2076 16.0824ZM28.2076 13.4746H28.2043V15.5747H28.2076C30.0408 15.5747 31.7914 15.2231 33.4033 14.5894C33.5718 14.523 33.7403 14.45 33.9087 14.3771C34.7345 14.0154 35.5173 13.5775 36.2539 13.0699C36.4257 12.9538 36.5908 12.831 36.7593 12.7049C37.6214 12.0513 38.4075 11.3082 39.1045 10.4787C39.2762 10.2697 39.448 10.0574 39.6099 9.83841C40.6701 8.42174 41.4761 6.80269 41.9551 5.05094C42.0376 4.7457 42.1136 4.43383 42.1764 4.11867C42.3481 3.27263 42.4406 2.40007 42.4571 1.51092H40.3663C40.2969 4.80211 38.9327 7.77478 36.7593 9.93794C36.5941 10.1005 36.429 10.2597 36.2539 10.4124C34.1102 12.3201 31.2894 13.4746 28.2076 13.4746ZM37.7733 1.51424C37.6346 6.69652 33.4001 10.8702 28.2076 10.8702V12.9703H28.2109C34.5528 12.9703 39.7288 7.8544 39.8642 1.51424H37.7733ZM35.1771 1.51424C35.0417 5.25664 31.9698 8.26249 28.2076 8.26249V10.3626H28.2109C33.1259 10.3626 37.1325 6.41452 37.268 1.51424H35.1771ZM28.2076 5.65477H28.2043V7.75155H28.2076C31.689 7.75155 34.5363 4.97462 34.6717 1.51092H32.5743C32.4421 3.82006 30.5363 5.65477 28.2076 5.65477ZM32.0689 1.51424H28.2043V5.14715H28.2076C30.2588 5.14715 31.9368 3.54136 32.0689 1.51424Z" fill="#C3AD79"/>
<path d="M1 50.8487V50.444H8.41876V50.8487H4.91086V59.926H4.50788V50.8487H1Z" fill="#C3AD79"/>
<path d="M57.2781 55.8419L54.2558 50.9184V59.926H53.8528V50.444H54.5266L57.2781 55.049V55.8419Z" fill="#C3AD79"/>
<path d="M59.511 55.049L62.2625 50.444H62.9363V59.926H62.53V50.9184L59.511 55.8419V55.049Z" fill="#C3AD79"/>
<path d="M10.034 50.444H10.4402V54.913H16.508V50.444H16.9143V59.926H16.508V55.321H10.4402V59.926H10.034V50.444Z" fill="#C3AD79"/>
<path d="M25.9483 50.444H19.8805V59.926H25.9483V59.518H20.2835V55.321H24.9375V54.913H20.2835V50.8487H25.9483V50.444Z" fill="#C3AD79"/>
<path fill-rule="evenodd" clip-rule="evenodd" d="M31.8806 50.444H35.5206C37.5289 50.444 38.7577 51.6516 38.7577 53.4233C38.7577 55.195 37.5289 56.4026 35.5206 56.4026H32.2836V59.926H31.8806V50.444ZM35.5206 55.9979C37.3538 55.9979 38.3547 54.9959 38.3547 53.4233C38.3547 51.8507 37.3572 50.8487 35.5206 50.8487H32.2836V55.9979H35.5206Z" fill="#C3AD79"/>
<path fill-rule="evenodd" clip-rule="evenodd" d="M44.6239 50.444H40.9146L40.9179 50.4473V59.9293H41.3208V56.1372H44.7594L47.1871 59.9293H47.6595L45.2317 56.0941C46.9196 55.8651 47.7949 54.7935 47.7949 53.2906C47.7949 51.5952 46.6455 50.444 44.6239 50.444ZM47.3886 53.2873C47.3886 54.7902 46.4572 55.7258 44.6239 55.7258H41.3208V50.8487H44.6239C46.4572 50.8487 47.3886 51.7843 47.3886 53.2873Z" fill="#C3AD79"/>
<path d="M50.4869 50.444H50.084V59.926H50.4869V50.444Z" fill="#C3AD79"/>
<path d="M65.9289 59.926V50.444H72V50.8487H66.3352V54.913H70.9893V55.321H66.3352V59.518H72V59.926H65.9289Z" fill="#C3AD79"/>
<path d="M15.124 66.9364L14.2124 67.9615V66.9364H14.001V67.9615L13.0959 66.9364H12.8317L13.7499 67.9715L12.7458 68.9735H13.0332L14.001 68.0014V68.9735H14.2124V68.0014L15.1868 68.9735H15.4675L14.4634 67.9715L15.385 66.9364H15.124Z" fill="#C3AD79"/>
<path d="M17.4527 66.9364V68.4924L18.9226 66.9131V68.9735H18.7112V67.4174L17.2446 68.9967V66.9364H17.4527Z" fill="#C3AD79"/>
<path d="M20.703 68.9735H20.9309L21.684 67.3677L22.4338 68.9735H22.6617L21.684 66.9131L20.703 68.9735Z" fill="#C3AD79"/>
<path fill-rule="evenodd" clip-rule="evenodd" d="M25.281 68.9967C25.5717 68.9967 25.8195 68.8971 26.0176 68.6981C26.2191 68.499 26.3182 68.2502 26.3182 67.9582C26.3182 67.6663 26.2158 67.4174 26.0176 67.2184C25.8161 67.0193 25.5717 66.9198 25.281 66.9198C24.9904 66.9198 24.7426 67.0193 24.5444 67.2184C24.343 67.4174 24.2439 67.6663 24.2439 67.9582C24.2439 68.2502 24.343 68.499 24.5444 68.6981C24.7459 68.8971 24.9904 68.9967 25.281 68.9967ZM25.281 68.7943C25.0498 68.7943 24.8549 68.7113 24.6964 68.5521C24.5378 68.3895 24.4586 68.1938 24.4586 67.9549C24.4586 67.716 24.5378 67.517 24.6964 67.3577C24.8549 67.1952 25.0465 67.1155 25.281 67.1155C25.5156 67.1155 25.7104 67.1985 25.8657 67.3577C26.0209 67.5203 26.1002 67.716 26.1002 67.9549C26.1002 68.1938 26.0209 68.3929 25.8657 68.5521C25.7071 68.7147 25.5123 68.7943 25.281 68.7943Z" fill="#C3AD79"/>
<path d="M29.4066 66.3624H29.5718C29.5685 66.4951 29.5255 66.6013 29.4429 66.6743C29.3604 66.7506 29.2547 66.7871 29.1192 66.7871C28.9838 66.7871 28.8781 66.7506 28.7955 66.6743C28.713 66.6013 28.67 66.4951 28.6667 66.3624H28.8385C28.8418 66.4553 28.8682 66.525 28.9211 66.5748C28.9706 66.6212 29.04 66.6444 29.1225 66.6444C29.2051 66.6444 29.2745 66.6212 29.324 66.5748C29.3736 66.5283 29.4033 66.4586 29.4066 66.3624Z" fill="#C3AD79"/>
<path d="M28.2505 68.9967V66.9397H28.4586V68.4957L29.9318 66.9165V68.9735H29.7204V67.4174L28.2505 68.9967Z" fill="#C3AD79"/>
<path d="M34.4636 67.9649L35.4314 66.9364H35.6924L34.718 67.9715L35.7783 68.9735H35.4909L34.4636 68.0014V68.9735H34.2555V66.9364H34.4636V67.9649Z" fill="#C3AD79"/>
<path fill-rule="evenodd" clip-rule="evenodd" d="M39.0285 68.6981C38.8303 68.8971 38.5826 68.9967 38.2919 68.9967C38.0013 68.9967 37.7568 68.8971 37.5553 68.6981C37.3572 68.499 37.2548 68.2502 37.2548 67.9582C37.2548 67.6663 37.3538 67.4174 37.5553 67.2184C37.7535 67.0193 38.0013 66.9198 38.2919 66.9198C38.5826 66.9198 38.827 67.0193 39.0285 67.2184C39.2267 67.4174 39.3291 67.6663 39.3291 67.9582C39.3291 68.2502 39.23 68.499 39.0285 68.6981ZM37.7073 68.5521C37.8658 68.7113 38.0607 68.7943 38.2919 68.7943C38.5232 68.7943 38.718 68.7147 38.8766 68.5521C39.0318 68.3929 39.1111 68.1938 39.1111 67.9549C39.1111 67.716 39.0318 67.5203 38.8766 67.3577C38.718 67.1985 38.5264 67.1155 38.2919 67.1155C38.0574 67.1155 37.8658 67.1952 37.7073 67.3577C37.5487 67.517 37.4695 67.716 37.4695 67.9549C37.4695 68.1938 37.5487 68.3895 37.7073 68.5521Z" fill="#C3AD79"/>
<path d="M41.2581 66.9131L42.2358 68.0279L43.2069 66.9131V68.9735H42.9955V67.4407L42.2358 68.3265L41.4695 67.4407V68.9735H41.2581V66.9131Z" fill="#C3AD79"/>
<path d="M45.2846 68.9735H45.4927V67.1421H46.5959V68.9735H46.8073V66.9364H45.2846V68.9735Z" fill="#C3AD79"/>
<path d="M48.8156 68.9735H48.5877L49.5687 66.9131L50.5464 68.9735H50.3185L49.5687 67.3677L48.8156 68.9735Z" fill="#C3AD79"/>
<path d="M52.3268 68.9735H53.4829V68.7644H52.5349V68.0312H53.3111V67.8255H52.5349V67.1421H53.4829V66.9364H52.3268V68.9735Z" fill="#C3AD79"/>
<path d="M55.6266 67.9649L56.5944 66.9364H56.8586L55.8842 67.9715L56.9445 68.9735H56.6571L55.6266 68.0014V68.9735H55.4185V66.9364H55.6266V67.9649Z" fill="#C3AD79"/>
<path d="M59.4548 68.9967C59.1642 68.9967 58.9197 68.8971 58.7216 68.6981C58.5234 68.499 58.4243 68.2502 58.4243 67.9582C58.4243 67.6663 58.5234 67.4208 58.7248 67.2184C58.923 67.016 59.1708 66.9165 59.4581 66.9165C59.6233 66.9165 59.7785 66.953 59.9206 67.0226C60.0626 67.0923 60.1749 67.1819 60.2542 67.2914L60.1022 67.4241C60.0296 67.3312 59.9371 67.2549 59.8248 67.2018C59.7125 67.1454 59.5903 67.1188 59.4548 67.1188C59.2236 67.1188 59.0287 67.1985 58.8735 67.361C58.7183 67.5236 58.639 67.7227 58.639 67.9582C58.639 68.1938 58.7183 68.3929 58.8735 68.5554C59.0287 68.7147 59.2236 68.7943 59.4548 68.7943C59.5903 68.7943 59.7125 68.7678 59.8248 68.7113C59.9371 68.6549 60.0296 68.582 60.1022 68.4891L60.2542 68.6251C60.1749 68.7346 60.0626 68.8242 59.9206 68.8938C59.7785 68.9635 59.6233 69 59.4581 69L59.4548 68.9967Z" fill="#C3AD79"/>
<path fill-rule="evenodd" clip-rule="evenodd" d="M45.5554 1V1.25547H45.562V39.0576H45.5554V39.0642H27.6923V1H45.5554ZM42.4604 11.192V38.5533H45.0467V5.48889C44.5282 7.55914 43.6429 9.48673 42.4604 11.192ZM28.2076 18.6901H28.2043V38.5533H30.5528V18.5308C29.7865 18.637 29.0036 18.6901 28.2076 18.6901ZM39.1045 14.815C38.3679 15.4122 37.5851 15.953 36.7593 16.4208V38.5533H39.1045V14.815ZM36.2539 16.6995C35.5008 17.0976 34.7213 17.4426 33.9087 17.7246V38.5533H36.2539V16.6995ZM31.0582 38.5533H33.4033V17.8905C32.6403 18.1327 31.8575 18.3218 31.0582 18.4512V38.5533ZM39.6099 38.5533H41.9551V11.8888C41.2548 12.7978 40.4687 13.6339 39.6099 14.387V38.5533ZM28.2076 16.0824H28.2043V18.1858H28.2076C29.0003 18.1858 29.7865 18.1294 30.5528 18.0199C30.7212 17.9967 30.8897 17.9701 31.0582 17.9403C31.8608 17.8043 32.6436 17.6085 33.4033 17.3597C33.5718 17.3033 33.7403 17.2469 33.9087 17.1838C34.7246 16.8919 35.5041 16.5369 36.2539 16.1255L36.2549 16.1249C36.4231 16.0322 36.5912 15.9395 36.7593 15.8368C37.5917 15.3425 38.3745 14.7818 39.1045 14.1581C39.2762 14.0121 39.4447 13.8595 39.6099 13.7069C40.4819 12.9007 41.2713 12.0049 41.9551 11.0328C42.1301 10.7873 42.2986 10.5351 42.4604 10.2764C44.003 7.82455 44.9378 4.9514 45.0467 1.87256V1.51424H42.9658C42.9427 2.75839 42.7709 3.96936 42.4604 5.1206C42.3217 5.64481 42.1533 6.15905 41.9551 6.66003C41.3836 8.11983 40.5876 9.47015 39.6099 10.6612C39.448 10.8636 39.2796 11.056 39.1045 11.2484C38.4009 12.0248 37.6148 12.7248 36.7593 13.3353C36.5941 13.4514 36.4257 13.5675 36.2539 13.6803C35.514 14.1614 34.7312 14.5827 33.9087 14.9311C33.7436 14.9975 33.5751 15.0671 33.4033 15.1302C32.6469 15.4188 31.8641 15.6444 31.0582 15.8037C30.893 15.8402 30.7212 15.87 30.5528 15.8966C29.7898 16.0193 29.0036 16.0824 28.2076 16.0824ZM28.2076 13.4746H28.2043V15.5747H28.2076C30.0408 15.5747 31.7914 15.2231 33.4033 14.5894C33.5718 14.523 33.7403 14.45 33.9087 14.3771C34.7345 14.0154 35.5173 13.5775 36.2539 13.0699C36.4257 12.9538 36.5908 12.831 36.7593 12.7049C37.6214 12.0513 38.4075 11.3082 39.1045 10.4787C39.2762 10.2697 39.448 10.0574 39.6099 9.83841C40.6701 8.42174 41.4761 6.80269 41.9551 5.05094C42.0376 4.7457 42.1136 4.43383 42.1764 4.11867C42.3481 3.27263 42.4406 2.40007 42.4571 1.51092H40.3663C40.2969 4.80211 38.9327 7.77478 36.7593 9.93794C36.5941 10.1005 36.429 10.2597 36.2539 10.4124C34.1102 12.3201 31.2894 13.4746 28.2076 13.4746ZM37.7733 1.51424C37.6346 6.69652 33.4001 10.8702 28.2076 10.8702V12.9703H28.2109C34.5528 12.9703 39.7288 7.8544 39.8642 1.51424H37.7733ZM35.1771 1.51424C35.0417 5.25664 31.9698 8.26249 28.2076 8.26249V10.3626H28.2109C33.1259 10.3626 37.1325 6.41452 37.268 1.51424H35.1771ZM28.2076 5.65477H28.2043V7.75155H28.2076C31.689 7.75155 34.5363 4.97462 34.6717 1.51092H32.5743C32.4421 3.82006 30.5363 5.65477 28.2076 5.65477ZM32.0689 1.51424H28.2043V5.14715H28.2076C30.2588 5.14715 31.9368 3.54136 32.0689 1.51424Z" stroke="#C3AD79" stroke-linejoin="round" mask="url(#path-1-outside-1_8_298)"/>
<path d="M1 50.8487V50.444H8.41876V50.8487H4.91086V59.926H4.50788V50.8487H1Z" stroke="#C3AD79" stroke-linejoin="round" mask="url(#path-1-outside-1_8_298)"/>
<path d="M57.2781 55.8419L54.2558 50.9184V59.926H53.8528V50.444H54.5266L57.2781 55.049V55.8419Z" stroke="#C3AD79" stroke-linejoin="round" mask="url(#path-1-outside-1_8_298)"/>
<path d="M59.511 55.049L62.2625 50.444H62.9363V59.926H62.53V50.9184L59.511 55.8419V55.049Z" stroke="#C3AD79" stroke-linejoin="round" mask="url(#path-1-outside-1_8_298)"/>
<path d="M10.034 50.444H10.4402V54.913H16.508V50.444H16.9143V59.926H16.508V55.321H10.4402V59.926H10.034V50.444Z" stroke="#C3AD79" stroke-linejoin="round" mask="url(#path-1-outside-1_8_298)"/>
<path d="M25.9483 50.444H19.8805V59.926H25.9483V59.518H20.2835V55.321H24.9375V54.913H20.2835V50.8487H25.9483V50.444Z" stroke="#C3AD79" stroke-linejoin="round" mask="url(#path-1-outside-1_8_298)"/>
<path fill-rule="evenodd" clip-rule="evenodd" d="M31.8806 50.444H35.5206C37.5289 50.444 38.7577 51.6516 38.7577 53.4233C38.7577 55.195 37.5289 56.4026 35.5206 56.4026H32.2836V59.926H31.8806V50.444ZM35.5206 55.9979C37.3538 55.9979 38.3547 54.9959 38.3547 53.4233C38.3547 51.8507 37.3572 50.8487 35.5206 50.8487H32.2836V55.9979H35.5206Z" stroke="#C3AD79" stroke-linejoin="round" mask="url(#path-1-outside-1_8_298)"/>
<path fill-rule="evenodd" clip-rule="evenodd" d="M44.6239 50.444H40.9146L40.9179 50.4473V59.9293H41.3208V56.1372H44.7594L47.1871 59.9293H47.6595L45.2317 56.0941C46.9196 55.8651 47.7949 54.7935 47.7949 53.2906C47.7949 51.5952 46.6455 50.444 44.6239 50.444ZM47.3886 53.2873C47.3886 54.7902 46.4572 55.7258 44.6239 55.7258H41.3208V50.8487H44.6239C46.4572 50.8487 47.3886 51.7843 47.3886 53.2873Z" stroke="#C3AD79" stroke-linejoin="round" mask="url(#path-1-outside-1_8_298)"/>
<path d="M50.4869 50.444H50.084V59.926H50.4869V50.444Z" stroke="#C3AD79" stroke-linejoin="round" mask="url(#path-1-outside-1_8_298)"/>
<path d="M65.9289 59.926V50.444H72V50.8487H66.3352V54.913H70.9893V55.321H66.3352V59.518H72V59.926H65.9289Z" stroke="#C3AD79" stroke-linejoin="round" mask="url(#path-1-outside-1_8_298)"/>
<path d="M15.124 66.9364L14.2124 67.9615V66.9364H14.001V67.9615L13.0959 66.9364H12.8317L13.7499 67.9715L12.7458 68.9735H13.0332L14.001 68.0014V68.9735H14.2124V68.0014L15.1868 68.9735H15.4675L14.4634 67.9715L15.385 66.9364H15.124Z" stroke="#C3AD79" stroke-linejoin="round" mask="url(#path-1-outside-1_8_298)"/>
<path d="M17.4527 66.9364V68.4924L18.9226 66.9131V68.9735H18.7112V67.4174L17.2446 68.9967V66.9364H17.4527Z" stroke="#C3AD79" stroke-linejoin="round" mask="url(#path-1-outside-1_8_298)"/>
<path d="M20.703 68.9735H20.9309L21.684 67.3677L22.4338 68.9735H22.6617L21.684 66.9131L20.703 68.9735Z" stroke="#C3AD79" stroke-linejoin="round" mask="url(#path-1-outside-1_8_298)"/>
<path fill-rule="evenodd" clip-rule="evenodd" d="M25.281 68.9967C25.5717 68.9967 25.8195 68.8971 26.0176 68.6981C26.2191 68.499 26.3182 68.2502 26.3182 67.9582C26.3182 67.6663 26.2158 67.4174 26.0176 67.2184C25.8161 67.0193 25.5717 66.9198 25.281 66.9198C24.9904 66.9198 24.7426 67.0193 24.5444 67.2184C24.343 67.4174 24.2439 67.6663 24.2439 67.9582C24.2439 68.2502 24.343 68.499 24.5444 68.6981C24.7459 68.8971 24.9904 68.9967 25.281 68.9967ZM25.281 68.7943C25.0498 68.7943 24.8549 68.7113 24.6964 68.5521C24.5378 68.3895 24.4586 68.1938 24.4586 67.9549C24.4586 67.716 24.5378 67.517 24.6964 67.3577C24.8549 67.1952 25.0465 67.1155 25.281 67.1155C25.5156 67.1155 25.7104 67.1985 25.8657 67.3577C26.0209 67.5203 26.1002 67.716 26.1002 67.9549C26.1002 68.1938 26.0209 68.3929 25.8657 68.5521C25.7071 68.7147 25.5123 68.7943 25.281 68.7943Z" stroke="#C3AD79" stroke-linejoin="round" mask="url(#path-1-outside-1_8_298)"/>
<path d="M29.4066 66.3624H29.5718C29.5685 66.4951 29.5255 66.6013 29.4429 66.6743C29.3604 66.7506 29.2547 66.7871 29.1192 66.7871C28.9838 66.7871 28.8781 66.7506 28.7955 66.6743C28.713 66.6013 28.67 66.4951 28.6667 66.3624H28.8385C28.8418 66.4553 28.8682 66.525 28.9211 66.5748C28.9706 66.6212 29.04 66.6444 29.1225 66.6444C29.2051 66.6444 29.2745 66.6212 29.324 66.5748C29.3736 66.5283 29.4033 66.4586 29.4066 66.3624Z" stroke="#C3AD79" stroke-linejoin="round" mask="url(#path-1-outside-1_8_298)"/>
<path d="M28.2505 68.9967V66.9397H28.4586V68.4957L29.9318 66.9165V68.9735H29.7204V67.4174L28.2505 68.9967Z" stroke="#C3AD79" stroke-linejoin="round" mask="url(#path-1-outside-1_8_298)"/>
<path d="M34.4636 67.9649L35.4314 66.9364H35.6924L34.718 67.9715L35.7783 68.9735H35.4909L34.4636 68.0014V68.9735H34.2555V66.9364H34.4636V67.9649Z" stroke="#C3AD79" stroke-linejoin="round" mask="url(#path-1-outside-1_8_298)"/>
<path fill-rule="evenodd" clip-rule="evenodd" d="M39.0285 68.6981C38.8303 68.8971 38.5826 68.9967 38.2919 68.9967C38.0013 68.9967 37.7568 68.8971 37.5553 68.6981C37.3572 68.499 37.2548 68.2502 37.2548 67.9582C37.2548 67.6663 37.3538 67.4174 37.5553 67.2184C37.7535 67.0193 38.0013 66.9198 38.2919 66.9198C38.5826 66.9198 38.827 67.0193 39.0285 67.2184C39.2267 67.4174 39.3291 67.6663 39.3291 67.9582C39.3291 68.2502 39.23 68.499 39.0285 68.6981ZM37.7073 68.5521C37.8658 68.7113 38.0607 68.7943 38.2919 68.7943C38.5232 68.7943 38.718 68.7147 38.8766 68.5521C39.0318 68.3929 39.1111 68.1938 39.1111 67.9549C39.1111 67.716 39.0318 67.5203 38.8766 67.3577C38.718 67.1985 38.5264 67.1155 38.2919 67.1155C38.0574 67.1155 37.8658 67.1952 37.7073 67.3577C37.5487 67.517 37.4695 67.716 37.4695 67.9549C37.4695 68.1938 37.5487 68.3895 37.7073 68.5521Z" stroke="#C3AD79" stroke-linejoin="round" mask="url(#path-1-outside-1_8_298)"/>
<path d="M41.2581 66.9131L42.2358 68.0279L43.2069 66.9131V68.9735H42.9955V67.4407L42.2358 68.3265L41.4695 67.4407V68.9735H41.2581V66.9131Z" stroke="#C3AD79" stroke-linejoin="round" mask="url(#path-1-outside-1_8_298)"/>
<path d="M45.2846 68.9735H45.4927V67.1421H46.5959V68.9735H46.8073V66.9364H45.2846V68.9735Z" stroke="#C3AD79" stroke-linejoin="round" mask="url(#path-1-outside-1_8_298)"/>
<path d="M48.8156 68.9735H48.5877L49.5687 66.9131L50.5464 68.9735H50.3185L49.5687 67.3677L48.8156 68.9735Z" stroke="#C3AD79" stroke-linejoin="round" mask="url(#path-1-outside-1_8_298)"/>
<path d="M52.3268 68.9735H53.4829V68.7644H52.5349V68.0312H53.3111V67.8255H52.5349V67.1421H53.4829V66.9364H52.3268V68.9735Z" stroke="#C3AD79" stroke-linejoin="round" mask="url(#path-1-outside-1_8_298)"/>
<path d="M55.6266 67.9649L56.5944 66.9364H56.8586L55.8842 67.9715L56.9445 68.9735H56.6571L55.6266 68.0014V68.9735H55.4185V66.9364H55.6266V67.9649Z" stroke="#C3AD79" stroke-linejoin="round" mask="url(#path-1-outside-1_8_298)"/>
<path d="M59.4548 68.9967C59.1642 68.9967 58.9197 68.8971 58.7216 68.6981C58.5234 68.499 58.4243 68.2502 58.4243 67.9582C58.4243 67.6663 58.5234 67.4208 58.7248 67.2184C58.923 67.016 59.1708 66.9165 59.4581 66.9165C59.6233 66.9165 59.7785 66.953 59.9206 67.0226C60.0626 67.0923 60.1749 67.1819 60.2542 67.2914L60.1022 67.4241C60.0296 67.3312 59.9371 67.2549 59.8248 67.2018C59.7125 67.1454 59.5903 67.1188 59.4548 67.1188C59.2236 67.1188 59.0287 67.1985 58.8735 67.361C58.7183 67.5236 58.639 67.7227 58.639 67.9582C58.639 68.1938 58.7183 68.3929 58.8735 68.5554C59.0287 68.7147 59.2236 68.7943 59.4548 68.7943C59.5903 68.7943 59.7125 68.7678 59.8248 68.7113C59.9371 68.6549 60.0296 68.582 60.1022 68.4891L60.2542 68.6251C60.1749 68.7346 60.0626 68.8242 59.9206 68.8938C59.7785 68.9635 59.6233 69 59.4581 69L59.4548 68.9967Z" stroke="#C3AD79" stroke-linejoin="round" mask="url(#path-1-outside-1_8_298)"/>
</svg>
