<svg width="304" height="67" viewBox="0 0 304 67" fill="none" xmlns="http://www.w3.org/2000/svg">
<mask id="path-1-outside-1_127_19" maskUnits="userSpaceOnUse" x="0" y="0" width="304" height="67" fill="black">
<rect fill="white" width="304" height="67"/>
<path fill-rule="evenodd" clip-rule="evenodd" d="M55.6401 1V66H1V1H55.6401ZM14.3756 2.5543H2.55817L2.5757 13.5914C5.57813 13.5847 8.46623 12.4416 10.6566 10.3929C12.8469 8.34428 14.176 5.54277 14.3756 2.5543ZM11.7505 11.4973C9.26444 13.8376 5.97649 15.1426 2.55817 15.1456L2.5757 21.5199C7.68746 21.5149 12.5992 19.5382 16.2832 16.0033C19.9671 12.4684 22.138 7.64931 22.3412 2.5543H15.9337C15.7328 5.95815 14.2367 9.15703 11.7505 11.4973ZM17.3656 17.0958C13.3891 20.9193 8.08133 23.056 2.55817 23.0567L2.5757 29.431C9.78995 29.4248 16.7178 26.6145 21.889 21.5964C27.06 16.5784 30.0671 9.74775 30.2721 2.5543H23.8819C23.678 8.0599 21.3423 13.2724 17.3656 17.0958ZM22.9794 22.6964C17.5133 28.0055 10.1872 30.979 2.55817 30.9852L2.5757 37.3595C11.8948 37.3437 20.8386 33.6951 27.4983 27.1923C34.158 20.6896 38.0056 11.8478 38.2204 2.5543H31.8302C31.6206 10.1615 28.4455 17.3875 22.9794 22.6964ZM27.2609 29.6056C20.4473 35.6192 11.6559 38.9257 2.55817 38.8963L2.5757 45.2705C8.03837 45.2807 13.4543 44.2676 18.5423 42.2843L20.0829 41.6382C22.5938 40.5422 24.997 39.215 27.2609 37.6739L28.7314 36.5562C31.372 34.5805 33.7799 32.3133 35.9093 29.7977C36.4347 29.169 36.96 28.5229 37.45 27.8418C40.7412 23.4941 43.1766 18.5639 44.6281 13.3119C44.7784 12.782 44.9115 12.2406 45.0374 11.6975C45.1312 11.2921 45.221 10.8858 45.3109 10.4828C45.8373 7.87144 46.1245 5.21756 46.1688 2.5543H39.7611C39.5933 12.1871 35.6608 21.3735 28.8015 28.1561C28.2937 28.6626 27.7862 29.1341 27.2609 29.6056ZM9.75362 46.2485C7.37373 46.627 4.96798 46.8197 2.55817 46.8248L2.5757 53.1817C4.97717 53.1812 7.37587 53.012 9.75362 52.6753L9.84894 52.6622C10.3268 52.5965 10.8181 52.529 11.2943 52.4307C13.7289 52.0363 16.1289 51.4524 18.4722 50.6844C18.6913 50.6166 18.9135 50.5455 19.1362 50.4712C19.4298 50.3732 19.7241 50.2697 20.0128 50.1605C22.4836 49.2722 24.8831 48.1979 27.1908 46.9471C27.6986 46.6502 28.2239 46.3708 28.7314 46.0564C31.2648 44.5692 33.666 42.8691 35.9093 40.9745L37.45 39.5948C40.1197 37.1447 42.5254 34.4231 44.6281 31.4743C45.1708 30.7233 45.6785 29.9549 46.1688 29.169C51.0373 21.5124 53.769 12.6985 54.0819 3.63704V2.5543H47.7094C47.6861 6.24584 47.192 9.91947 46.2387 13.4866C45.8177 15.0755 45.3032 16.6383 44.698 18.1669C42.9682 22.5945 40.5456 26.7206 37.5201 30.3915C37.0298 30.9504 36.5047 31.5441 35.9794 32.1379C33.8145 34.4944 31.4088 36.6189 28.8015 38.4772L27.2609 39.525C24.9776 41.0053 22.5633 42.2739 20.0479 43.3146L18.5072 43.9259C16.1669 44.8141 13.7534 45.4978 11.2943 45.9691L9.75362 46.2485ZM37.3976 64.4283H44.5756V34.1287C42.4363 36.8879 40.0323 39.4322 37.3976 41.7255V64.4283ZM11.2943 64.4283H18.5072L18.4722 52.2037C16.1244 52.956 13.7257 53.5396 11.2943 53.9501V64.4283ZM27.2609 48.6935C24.938 49.9086 22.5269 50.9478 20.0479 51.8021L20.0829 64.4108H27.2609V48.6935ZM35.9794 42.9654C33.7222 44.7847 31.3218 46.4199 28.8015 47.8553V64.4283H35.9794V42.9654ZM9.75362 54.2644C7.36839 54.5815 4.96456 54.7391 2.55817 54.736V64.4283H9.75362V54.2644ZM46.1688 31.9632V64.4283H54.0819V14.6392C52.5224 20.8459 49.8408 26.7167 46.1688 31.9632Z"/>
<path d="M108.582 8.38577H85.8225V9.62574H96.5369V37.2009H97.7799V9.62574H108.582V8.38577Z"/>
<path d="M257.971 24.8017L248.728 9.83529V37.2009H247.485V8.38577H249.603L258.024 22.3568L257.971 24.8017Z"/>
<path d="M264.799 22.3916L273.22 8.42063H275.268V37.2358H274.113V9.83519L264.869 24.8016L264.799 22.3916Z"/>
<path d="M113.449 8.38577H114.692V21.9726H133.25V8.38577H134.493V37.2009H133.25V23.23H114.692V37.2009H113.449V8.38577Z"/>
<path d="M162.067 8.38577H143.562V37.2009H162.067V35.961H144.805V23.2125H158.968V21.9726H144.735V9.62574H162.067V8.38577Z"/>
<path fill-rule="evenodd" clip-rule="evenodd" d="M180.274 8.38577H191.409C197.571 8.38577 201.318 12.0531 201.318 17.4495C201.318 22.8458 197.571 26.4957 191.409 26.4957H181.517V37.2009H180.274V8.38577ZM191.409 25.2557C197.029 25.2557 200.075 22.217 200.075 17.4495C200.075 12.6819 197.081 9.62574 191.409 9.62574H181.517V25.3431L191.409 25.2557Z"/>
<path fill-rule="evenodd" clip-rule="evenodd" d="M219.263 8.38577H207.918L207.988 37.2009H209.231V25.6749H219.735L227.158 37.2009H228.594L221.119 25.64C226.283 24.9414 228.962 21.6931 228.962 17.1176C228.962 11.8785 225.443 8.38577 219.263 8.38577ZM227.719 17.0303C227.719 21.6058 224.865 24.435 219.263 24.435H209.161V9.62574H219.263C224.865 9.62574 227.719 12.4549 227.719 17.0303Z"/>
<path d="M235.965 8.38577H237.208V37.2009H235.965V8.38577Z"/>
<path d="M303 8.38577H284.442V37.2009H303V35.961H285.668V23.2125H299.901V21.9726H285.668V9.62574H303V8.38577Z"/>
<path d="M121.8 64.7762L124.864 61.7374L122.063 58.5939H122.868L125.634 61.7025V58.5066H126.282V61.6151L129.066 58.5066H129.871L127.052 61.6501L130.081 64.7762H129.206L126.229 61.8248V64.7762H125.582V61.7374L122.623 64.7762H121.8Z"/>
<path d="M135.508 58.5066V64.7762L139.99 59.9561V64.7762H140.638V58.4368L136.138 63.2219V58.5066H135.508Z"/>
<path d="M152.07 64.7762H151.387L149.076 59.8863L146.783 64.7762H146.083L149.076 58.5241L152.07 64.7762Z"/>
<path fill-rule="evenodd" clip-rule="evenodd" d="M161.311 64.5412C161.698 64.381 162.05 64.1464 162.347 63.8505C162.946 63.2531 163.282 62.4427 163.282 61.5977C163.282 60.7528 162.946 59.9424 162.347 59.345C161.748 58.7474 160.935 58.4118 160.088 58.4118C159.241 58.4118 158.429 58.7474 157.83 59.345C157.533 59.6408 157.298 59.992 157.138 60.3786C156.977 60.7651 156.894 61.1794 156.894 61.5977C156.894 62.0161 156.977 62.4304 157.138 62.8169C157.215 63.0021 157.309 63.1791 157.418 63.3458C157.486 63.4485 157.559 63.5472 157.638 63.6415L157.679 63.6898L157.73 63.7462C157.762 63.7817 157.796 63.8165 157.83 63.8505C158.126 64.1464 158.479 64.381 158.866 64.5412C159.254 64.7013 159.669 64.7837 160.088 64.7837C160.508 64.7837 160.923 64.7013 161.311 64.5412ZM159.102 63.9434C158.801 63.8173 158.529 63.6312 158.303 63.3965C157.833 62.9114 157.571 62.2634 157.571 61.589C157.571 60.9146 157.833 60.2666 158.303 59.7816C158.529 59.5468 158.801 59.3607 159.102 59.2345C159.133 59.2215 159.164 59.2092 159.196 59.1975C159.339 59.1445 159.487 59.1052 159.638 59.0803C159.775 59.0576 159.914 59.0467 160.053 59.048C160.224 59.0459 160.394 59.062 160.56 59.0959C160.712 59.1269 160.861 59.1728 161.005 59.2332C161.306 59.3594 161.578 59.546 161.804 59.7816C162.266 60.2707 162.523 60.9172 162.523 61.589C162.523 62.2608 162.266 62.9073 161.804 63.3965C161.578 63.632 161.306 63.8187 161.005 63.9449C160.704 64.0711 160.38 64.1341 160.053 64.13C159.727 64.133 159.403 64.0696 159.102 63.9434Z"/>
<path d="M169.175 64.7762V58.5067H169.805V63.222L174.322 58.4368V64.7762H173.674V59.9563L169.175 64.7762Z"/>
<path d="M172.676 56.7604H172.696C172.711 56.8906 172.694 57.0226 172.647 57.1452C172.631 57.1882 172.611 57.2298 172.587 57.2693C172.566 57.3059 172.541 57.3407 172.514 57.3736C172.484 57.4106 172.45 57.445 172.414 57.4763C172.238 57.6123 172.023 57.6861 171.801 57.6861C171.773 57.6861 171.745 57.6849 171.717 57.6826C171.672 57.6788 171.627 57.6719 171.582 57.662C171.552 57.6551 171.521 57.6468 171.491 57.6371C171.382 57.6016 171.28 57.5474 171.188 57.4763C171.103 57.3929 171.036 57.2918 170.994 57.1802C170.977 57.1355 170.964 57.0894 170.955 57.0426C170.942 56.9729 170.938 56.9015 170.943 56.8302H170.418C170.409 57.0101 170.44 57.1898 170.51 57.3561C170.579 57.5223 170.686 57.6709 170.82 57.7907C171.111 58.0004 171.463 58.1073 171.822 58.0948C172.18 58.0821 172.524 57.9505 172.799 57.7208C172.931 57.5987 173.035 57.4498 173.104 57.2841C173.174 57.1184 173.207 56.9399 173.201 56.7604H172.696L172.694 56.7429L172.676 56.7604Z"/>
<path d="M187.54 58.5066V64.7762H188.17V61.8248L191.321 64.7762H192.197L188.958 61.6501L191.934 58.5066H191.129L188.17 61.6326V58.5066H187.54Z"/>
<path fill-rule="evenodd" clip-rule="evenodd" d="M202.141 63.8505C201.537 64.4321 200.73 64.7571 199.891 64.7571C199.052 64.7571 198.245 64.4321 197.641 63.8505C197.042 63.2554 196.705 62.4473 196.703 61.6039C196.702 60.7606 197.036 59.9511 197.633 59.3537C198.229 58.7562 199.039 58.4195 199.885 58.4179C200.73 58.4163 201.542 58.7498 202.141 59.345C202.725 59.9502 203.051 60.7576 203.051 61.5977C203.051 62.4379 202.725 63.2453 202.141 63.8505ZM198.097 63.3966C198.324 63.6296 198.596 63.8146 198.897 63.9406C199.198 64.0666 199.521 64.1311 199.847 64.13C200.174 64.1341 200.498 64.0711 200.799 63.9449C200.875 63.913 200.949 63.8774 201.021 63.8381C201.149 63.7684 201.269 63.6871 201.382 63.5956C201.458 63.5338 201.53 63.4674 201.598 63.3966C202.06 62.9073 202.317 62.2608 202.317 61.589C202.317 60.9172 202.06 60.2707 201.598 59.7816C201.372 59.546 201.1 59.3594 200.799 59.2332C200.498 59.1069 200.174 59.044 199.847 59.048C199.521 59.047 199.198 59.1114 198.897 59.2374C198.596 59.3634 198.324 59.5484 198.097 59.7816C197.635 60.2707 197.378 60.9172 197.378 61.589C197.378 62.2608 197.635 62.9073 198.097 63.3966Z"/>
<path d="M208.969 58.4368V64.7762H209.616V60.026L211.945 62.7155L214.273 60.026V64.7762H214.921V58.4368L211.945 61.8073L208.969 58.4368Z"/>
<path d="M225.303 64.7762V59.1353H221.924V64.7762H221.276V58.5066H225.951V64.7762H225.303Z"/>
<path d="M236.648 64.7762H237.348L234.389 58.5241L231.395 64.7762H232.096L234.354 59.8863L236.648 64.7762Z"/>
<path d="M242.828 64.7762V58.5066H246.329V59.1353H243.423V61.2834H245.804V61.9121H243.423V64.1474H246.329V64.7762H242.828Z"/>
<path d="M252.282 58.5066V64.7762H252.929V61.8248L256.063 64.7762H256.939L253.63 61.6501L256.606 58.5066H255.888L252.929 61.6326V58.5066H252.282Z"/>
<path d="M264.624 64.7762C263.784 64.7762 262.978 64.4432 262.383 63.8503C261.789 63.2576 261.455 62.4536 261.455 61.6152C261.455 60.7769 261.789 59.9729 262.383 59.3801C262.978 58.7873 263.784 58.4543 264.624 58.4543C265.115 58.4506 265.599 58.5581 266.042 58.7686C266.456 58.9341 266.822 59.1979 267.11 59.537L266.637 59.9387C266.51 59.7774 266.363 59.6332 266.2 59.5088C266.075 59.4128 265.94 59.3285 265.797 59.2577C265.689 59.2058 265.578 59.1618 265.465 59.1261C265.205 59.0445 264.933 59.006 264.659 59.0131C264.585 59.0124 264.512 59.0151 264.439 59.0211C264.188 59.0419 263.941 59.102 263.708 59.1997C263.407 59.3258 263.135 59.5119 262.908 59.7466C262.447 60.2357 262.19 60.8823 262.19 61.554C262.19 62.2259 262.447 62.8725 262.908 63.3616C262.992 63.4482 263.082 63.5281 263.177 63.6008C263.272 63.674 263.373 63.7399 263.479 63.798C263.553 63.8387 263.629 63.8757 263.708 63.9085C264.009 64.0346 264.333 64.0981 264.659 64.095C265.052 64.0966 265.44 64.0132 265.797 63.8505C266.124 63.6879 266.411 63.4554 266.637 63.1695L267.11 63.5712C266.973 63.7501 266.814 63.9108 266.638 64.0496C266.466 64.1853 266.278 64.3004 266.077 64.3919C265.633 64.6398 265.133 64.7719 264.624 64.7762Z"/>
</mask>
<path fill-rule="evenodd" clip-rule="evenodd" d="M55.6401 1V66H1V1H55.6401ZM14.3756 2.5543H2.55817L2.5757 13.5914C5.57813 13.5847 8.46623 12.4416 10.6566 10.3929C12.8469 8.34428 14.176 5.54277 14.3756 2.5543ZM11.7505 11.4973C9.26444 13.8376 5.97649 15.1426 2.55817 15.1456L2.5757 21.5199C7.68746 21.5149 12.5992 19.5382 16.2832 16.0033C19.9671 12.4684 22.138 7.64931 22.3412 2.5543H15.9337C15.7328 5.95815 14.2367 9.15703 11.7505 11.4973ZM17.3656 17.0958C13.3891 20.9193 8.08133 23.056 2.55817 23.0567L2.5757 29.431C9.78995 29.4248 16.7178 26.6145 21.889 21.5964C27.06 16.5784 30.0671 9.74775 30.2721 2.5543H23.8819C23.678 8.0599 21.3423 13.2724 17.3656 17.0958ZM22.9794 22.6964C17.5133 28.0055 10.1872 30.979 2.55817 30.9852L2.5757 37.3595C11.8948 37.3437 20.8386 33.6951 27.4983 27.1923C34.158 20.6896 38.0056 11.8478 38.2204 2.5543H31.8302C31.6206 10.1615 28.4455 17.3875 22.9794 22.6964ZM27.2609 29.6056C20.4473 35.6192 11.6559 38.9257 2.55817 38.8963L2.5757 45.2705C8.03837 45.2807 13.4543 44.2676 18.5423 42.2843L20.0829 41.6382C22.5938 40.5422 24.997 39.215 27.2609 37.6739L28.7314 36.5562C31.372 34.5805 33.7799 32.3133 35.9093 29.7977C36.4347 29.169 36.96 28.5229 37.45 27.8418C40.7412 23.4941 43.1766 18.5639 44.6281 13.3119C44.7784 12.782 44.9115 12.2406 45.0374 11.6975C45.1312 11.2921 45.221 10.8858 45.3109 10.4828C45.8373 7.87144 46.1245 5.21756 46.1688 2.5543H39.7611C39.5933 12.1871 35.6608 21.3735 28.8015 28.1561C28.2937 28.6626 27.7862 29.1341 27.2609 29.6056ZM9.75362 46.2485C7.37373 46.627 4.96798 46.8197 2.55817 46.8248L2.5757 53.1817C4.97717 53.1812 7.37587 53.012 9.75362 52.6753L9.84894 52.6622C10.3268 52.5965 10.8181 52.529 11.2943 52.4307C13.7289 52.0363 16.1289 51.4524 18.4722 50.6844C18.6913 50.6166 18.9135 50.5455 19.1362 50.4712C19.4298 50.3732 19.7241 50.2697 20.0128 50.1605C22.4836 49.2722 24.8831 48.1979 27.1908 46.9471C27.6986 46.6502 28.2239 46.3708 28.7314 46.0564C31.2648 44.5692 33.666 42.8691 35.9093 40.9745L37.45 39.5948C40.1197 37.1447 42.5254 34.4231 44.6281 31.4743C45.1708 30.7233 45.6785 29.9549 46.1688 29.169C51.0373 21.5124 53.769 12.6985 54.0819 3.63704V2.5543H47.7094C47.6861 6.24584 47.192 9.91947 46.2387 13.4866C45.8177 15.0755 45.3032 16.6383 44.698 18.1669C42.9682 22.5945 40.5456 26.7206 37.5201 30.3915C37.0298 30.9504 36.5047 31.5441 35.9794 32.1379C33.8145 34.4944 31.4088 36.6189 28.8015 38.4772L27.2609 39.525C24.9776 41.0053 22.5633 42.2739 20.0479 43.3146L18.5072 43.9259C16.1669 44.8141 13.7534 45.4978 11.2943 45.9691L9.75362 46.2485ZM37.3976 64.4283H44.5756V34.1287C42.4363 36.8879 40.0323 39.4322 37.3976 41.7255V64.4283ZM11.2943 64.4283H18.5072L18.4722 52.2037C16.1244 52.956 13.7257 53.5396 11.2943 53.9501V64.4283ZM27.2609 48.6935C24.938 49.9086 22.5269 50.9478 20.0479 51.8021L20.0829 64.4108H27.2609V48.6935ZM35.9794 42.9654C33.7222 44.7847 31.3218 46.4199 28.8015 47.8553V64.4283H35.9794V42.9654ZM9.75362 54.2644C7.36839 54.5815 4.96456 54.7391 2.55817 54.736V64.4283H9.75362V54.2644ZM46.1688 31.9632V64.4283H54.0819V14.6392C52.5224 20.8459 49.8408 26.7167 46.1688 31.9632Z" fill="url(#paint0_linear_127_19)"/>
<path d="M108.582 8.38577H85.8225V9.62574H96.5369V37.2009H97.7799V9.62574H108.582V8.38577Z" fill="url(#paint1_linear_127_19)"/>
<path d="M257.971 24.8017L248.728 9.83529V37.2009H247.485V8.38577H249.603L258.024 22.3568L257.971 24.8017Z" fill="url(#paint2_linear_127_19)"/>
<path d="M264.799 22.3916L273.22 8.42063H275.268V37.2358H274.113V9.83519L264.869 24.8016L264.799 22.3916Z" fill="url(#paint3_linear_127_19)"/>
<path d="M113.449 8.38577H114.692V21.9726H133.25V8.38577H134.493V37.2009H133.25V23.23H114.692V37.2009H113.449V8.38577Z" fill="url(#paint4_linear_127_19)"/>
<path d="M162.067 8.38577H143.562V37.2009H162.067V35.961H144.805V23.2125H158.968V21.9726H144.735V9.62574H162.067V8.38577Z" fill="url(#paint5_linear_127_19)"/>
<path fill-rule="evenodd" clip-rule="evenodd" d="M180.274 8.38577H191.409C197.571 8.38577 201.318 12.0531 201.318 17.4495C201.318 22.8458 197.571 26.4957 191.409 26.4957H181.517V37.2009H180.274V8.38577ZM191.409 25.2557C197.029 25.2557 200.075 22.217 200.075 17.4495C200.075 12.6819 197.081 9.62574 191.409 9.62574H181.517V25.3431L191.409 25.2557Z" fill="url(#paint6_linear_127_19)"/>
<path fill-rule="evenodd" clip-rule="evenodd" d="M219.263 8.38577H207.918L207.988 37.2009H209.231V25.6749H219.735L227.158 37.2009H228.594L221.119 25.64C226.283 24.9414 228.962 21.6931 228.962 17.1176C228.962 11.8785 225.443 8.38577 219.263 8.38577ZM227.719 17.0303C227.719 21.6058 224.865 24.435 219.263 24.435H209.161V9.62574H219.263C224.865 9.62574 227.719 12.4549 227.719 17.0303Z" fill="url(#paint7_linear_127_19)"/>
<path d="M235.965 8.38577H237.208V37.2009H235.965V8.38577Z" fill="url(#paint8_linear_127_19)"/>
<path d="M303 8.38577H284.442V37.2009H303V35.961H285.668V23.2125H299.901V21.9726H285.668V9.62574H303V8.38577Z" fill="url(#paint9_linear_127_19)"/>
<path d="M121.8 64.7762L124.864 61.7374L122.063 58.5939H122.868L125.634 61.7025V58.5066H126.282V61.6151L129.066 58.5066H129.871L127.052 61.6501L130.081 64.7762H129.206L126.229 61.8248V64.7762H125.582V61.7374L122.623 64.7762H121.8Z" fill="url(#paint10_linear_127_19)"/>
<path d="M135.508 58.5066V64.7762L139.99 59.9561V64.7762H140.638V58.4368L136.138 63.2219V58.5066H135.508Z" fill="url(#paint11_linear_127_19)"/>
<path d="M152.07 64.7762H151.387L149.076 59.8863L146.783 64.7762H146.083L149.076 58.5241L152.07 64.7762Z" fill="url(#paint12_linear_127_19)"/>
<path fill-rule="evenodd" clip-rule="evenodd" d="M161.311 64.5412C161.698 64.381 162.05 64.1464 162.347 63.8505C162.946 63.2531 163.282 62.4427 163.282 61.5977C163.282 60.7528 162.946 59.9424 162.347 59.345C161.748 58.7474 160.935 58.4118 160.088 58.4118C159.241 58.4118 158.429 58.7474 157.83 59.345C157.533 59.6408 157.298 59.992 157.138 60.3786C156.977 60.7651 156.894 61.1794 156.894 61.5977C156.894 62.0161 156.977 62.4304 157.138 62.8169C157.215 63.0021 157.309 63.1791 157.418 63.3458C157.486 63.4485 157.559 63.5472 157.638 63.6415L157.679 63.6898L157.73 63.7462C157.762 63.7817 157.796 63.8165 157.83 63.8505C158.126 64.1464 158.479 64.381 158.866 64.5412C159.254 64.7013 159.669 64.7837 160.088 64.7837C160.508 64.7837 160.923 64.7013 161.311 64.5412ZM159.102 63.9434C158.801 63.8173 158.529 63.6312 158.303 63.3965C157.833 62.9114 157.571 62.2634 157.571 61.589C157.571 60.9146 157.833 60.2666 158.303 59.7816C158.529 59.5468 158.801 59.3607 159.102 59.2345C159.133 59.2215 159.164 59.2092 159.196 59.1975C159.339 59.1445 159.487 59.1052 159.638 59.0803C159.775 59.0576 159.914 59.0467 160.053 59.048C160.224 59.0459 160.394 59.062 160.56 59.0959C160.712 59.1269 160.861 59.1728 161.005 59.2332C161.306 59.3594 161.578 59.546 161.804 59.7816C162.266 60.2707 162.523 60.9172 162.523 61.589C162.523 62.2608 162.266 62.9073 161.804 63.3965C161.578 63.632 161.306 63.8187 161.005 63.9449C160.704 64.0711 160.38 64.1341 160.053 64.13C159.727 64.133 159.403 64.0696 159.102 63.9434Z" fill="url(#paint13_linear_127_19)"/>
<path d="M169.175 64.7762V58.5067H169.805V63.222L174.322 58.4368V64.7762H173.674V59.9563L169.175 64.7762Z" fill="url(#paint14_linear_127_19)"/>
<path d="M172.676 56.7604H172.696C172.711 56.8906 172.694 57.0226 172.647 57.1452C172.631 57.1882 172.611 57.2298 172.587 57.2693C172.566 57.3059 172.541 57.3407 172.514 57.3736C172.484 57.4106 172.45 57.445 172.414 57.4763C172.238 57.6123 172.023 57.6861 171.801 57.6861C171.773 57.6861 171.745 57.6849 171.717 57.6826C171.672 57.6788 171.627 57.6719 171.582 57.662C171.552 57.6551 171.521 57.6468 171.491 57.6371C171.382 57.6016 171.28 57.5474 171.188 57.4763C171.103 57.3929 171.036 57.2918 170.994 57.1802C170.977 57.1355 170.964 57.0894 170.955 57.0426C170.942 56.9729 170.938 56.9015 170.943 56.8302H170.418C170.409 57.0101 170.44 57.1898 170.51 57.3561C170.579 57.5223 170.686 57.6709 170.82 57.7907C171.111 58.0004 171.463 58.1073 171.822 58.0948C172.18 58.0821 172.524 57.9505 172.799 57.7208C172.931 57.5987 173.035 57.4498 173.104 57.2841C173.174 57.1184 173.207 56.9399 173.201 56.7604H172.696L172.694 56.7429L172.676 56.7604Z" fill="url(#paint15_linear_127_19)"/>
<path d="M187.54 58.5066V64.7762H188.17V61.8248L191.321 64.7762H192.197L188.958 61.6501L191.934 58.5066H191.129L188.17 61.6326V58.5066H187.54Z" fill="url(#paint16_linear_127_19)"/>
<path fill-rule="evenodd" clip-rule="evenodd" d="M202.141 63.8505C201.537 64.4321 200.73 64.7571 199.891 64.7571C199.052 64.7571 198.245 64.4321 197.641 63.8505C197.042 63.2554 196.705 62.4473 196.703 61.6039C196.702 60.7606 197.036 59.9511 197.633 59.3537C198.229 58.7562 199.039 58.4195 199.885 58.4179C200.73 58.4163 201.542 58.7498 202.141 59.345C202.725 59.9502 203.051 60.7576 203.051 61.5977C203.051 62.4379 202.725 63.2453 202.141 63.8505ZM198.097 63.3966C198.324 63.6296 198.596 63.8146 198.897 63.9406C199.198 64.0666 199.521 64.1311 199.847 64.13C200.174 64.1341 200.498 64.0711 200.799 63.9449C200.875 63.913 200.949 63.8774 201.021 63.8381C201.149 63.7684 201.269 63.6871 201.382 63.5956C201.458 63.5338 201.53 63.4674 201.598 63.3966C202.06 62.9073 202.317 62.2608 202.317 61.589C202.317 60.9172 202.06 60.2707 201.598 59.7816C201.372 59.546 201.1 59.3594 200.799 59.2332C200.498 59.1069 200.174 59.044 199.847 59.048C199.521 59.047 199.198 59.1114 198.897 59.2374C198.596 59.3634 198.324 59.5484 198.097 59.7816C197.635 60.2707 197.378 60.9172 197.378 61.589C197.378 62.2608 197.635 62.9073 198.097 63.3966Z" fill="url(#paint17_linear_127_19)"/>
<path d="M208.969 58.4368V64.7762H209.616V60.026L211.945 62.7155L214.273 60.026V64.7762H214.921V58.4368L211.945 61.8073L208.969 58.4368Z" fill="url(#paint18_linear_127_19)"/>
<path d="M225.303 64.7762V59.1353H221.924V64.7762H221.276V58.5066H225.951V64.7762H225.303Z" fill="url(#paint19_linear_127_19)"/>
<path d="M236.648 64.7762H237.348L234.389 58.5241L231.395 64.7762H232.096L234.354 59.8863L236.648 64.7762Z" fill="url(#paint20_linear_127_19)"/>
<path d="M242.828 64.7762V58.5066H246.329V59.1353H243.423V61.2834H245.804V61.9121H243.423V64.1474H246.329V64.7762H242.828Z" fill="url(#paint21_linear_127_19)"/>
<path d="M252.282 58.5066V64.7762H252.929V61.8248L256.063 64.7762H256.939L253.63 61.6501L256.606 58.5066H255.888L252.929 61.6326V58.5066H252.282Z" fill="url(#paint22_linear_127_19)"/>
<path d="M264.624 64.7762C263.784 64.7762 262.978 64.4432 262.383 63.8503C261.789 63.2576 261.455 62.4536 261.455 61.6152C261.455 60.7769 261.789 59.9729 262.383 59.3801C262.978 58.7873 263.784 58.4543 264.624 58.4543C265.115 58.4506 265.599 58.5581 266.042 58.7686C266.456 58.9341 266.822 59.1979 267.11 59.537L266.637 59.9387C266.51 59.7774 266.363 59.6332 266.2 59.5088C266.075 59.4128 265.94 59.3285 265.797 59.2577C265.689 59.2058 265.578 59.1618 265.465 59.1261C265.205 59.0445 264.933 59.006 264.659 59.0131C264.585 59.0124 264.512 59.0151 264.439 59.0211C264.188 59.0419 263.941 59.102 263.708 59.1997C263.407 59.3258 263.135 59.5119 262.908 59.7466C262.447 60.2357 262.19 60.8823 262.19 61.554C262.19 62.2259 262.447 62.8725 262.908 63.3616C262.992 63.4482 263.082 63.5281 263.177 63.6008C263.272 63.674 263.373 63.7399 263.479 63.798C263.553 63.8387 263.629 63.8757 263.708 63.9085C264.009 64.0346 264.333 64.0981 264.659 64.095C265.052 64.0966 265.44 64.0132 265.797 63.8505C266.124 63.6879 266.411 63.4554 266.637 63.1695L267.11 63.5712C266.973 63.7501 266.814 63.9108 266.638 64.0496C266.466 64.1853 266.278 64.3004 266.077 64.3919C265.633 64.6398 265.133 64.7719 264.624 64.7762Z" fill="url(#paint23_linear_127_19)"/>
<path d="M55.6401 1H56.1401C56.1401 0.723858 55.9162 0.5 55.6401 0.5V1ZM55.6401 66V66.5C55.9162 66.5 56.1401 66.2761 56.1401 66H55.6401ZM1 66H0.5C0.5 66.2761 0.723858 66.5 1 66.5V66ZM1 1V0.5C0.723858 0.5 0.5 0.723858 0.5 1H1ZM2.55817 2.5543V2.0543C2.42542 2.0543 2.29813 2.10709 2.20434 2.20103C2.11055 2.29497 2.05796 2.42235 2.05817 2.55509L2.55817 2.5543ZM14.3756 2.5543L14.8745 2.58762C14.8837 2.44953 14.8353 2.3138 14.7407 2.21273C14.6462 2.11166 14.514 2.0543 14.3756 2.0543V2.5543ZM2.5757 13.5914L2.0757 13.5922C2.07591 13.7249 2.12883 13.852 2.22282 13.9456C2.31681 14.0393 2.44415 14.0917 2.57681 14.0914L2.5757 13.5914ZM2.55817 15.1456L2.55773 14.6456C2.42496 14.6457 2.29769 14.6986 2.20398 14.7927C2.11026 14.8867 2.05781 15.0142 2.05817 15.147L2.55817 15.1456ZM2.5757 21.5199L2.0757 21.5213C2.07646 21.7971 2.30039 22.0202 2.57619 22.0199L2.5757 21.5199ZM16.2832 16.0033L16.6293 16.3641L16.6293 16.3641L16.2832 16.0033ZM22.3412 2.5543L22.8408 2.57423C22.8463 2.43827 22.796 2.30597 22.7018 2.20786C22.6075 2.10975 22.4773 2.0543 22.3412 2.0543V2.5543ZM15.9337 2.5543V2.0543C15.669 2.0543 15.4502 2.2606 15.4346 2.52484L15.9337 2.5543ZM2.55817 23.0567L2.5581 22.5567C2.42527 22.5567 2.2979 22.6096 2.20411 22.7037C2.11031 22.7977 2.05781 22.9253 2.05817 23.0581L2.55817 23.0567ZM17.3656 17.0958L17.0191 16.7353L17.019 16.7353L17.3656 17.0958ZM2.5757 29.431L2.0757 29.4324C2.07646 29.7082 2.30035 29.9313 2.57612 29.931L2.5757 29.431ZM21.889 21.5964L22.2372 21.9553L22.2372 21.9552L21.889 21.5964ZM30.2721 2.5543L30.7719 2.56854C30.7757 2.43352 30.7248 2.30268 30.6306 2.20582C30.5365 2.10895 30.4071 2.0543 30.2721 2.0543V2.5543ZM23.8819 2.5543V2.0543C23.6129 2.0543 23.3922 2.26704 23.3822 2.5358L23.8819 2.5543ZM2.55817 30.9852L2.55777 30.4852C2.42499 30.4853 2.29771 30.5382 2.20399 30.6323C2.11027 30.7263 2.05781 30.8538 2.05817 30.9866L2.55817 30.9852ZM22.9794 22.6964L22.631 22.3378L22.631 22.3378L22.9794 22.6964ZM2.5757 37.3595L2.0757 37.3609C2.07646 37.6368 2.30061 37.86 2.57654 37.8595L2.5757 37.3595ZM38.2204 2.5543L38.7203 2.56585C38.7234 2.43128 38.6721 2.30113 38.578 2.20485C38.484 2.10858 38.355 2.0543 38.2204 2.0543V2.5543ZM31.8302 2.5543V2.0543C31.5595 2.0543 31.3379 2.26985 31.3304 2.54052L31.8302 2.5543ZM2.55817 38.8963L2.55978 38.3963C2.42666 38.3959 2.29886 38.4486 2.2047 38.5427C2.11054 38.6368 2.05781 38.7646 2.05817 38.8977L2.55817 38.8963ZM27.2609 29.6056L27.5917 29.9805L27.5949 29.9777L27.2609 29.6056ZM2.5757 45.2705L2.0757 45.2719C2.07645 45.5472 2.29952 45.77 2.57477 45.7705L2.5757 45.2705ZM18.5423 42.2843L18.7239 42.7503L18.7357 42.7454L18.5423 42.2843ZM20.0829 41.6382L20.2763 42.0993L20.283 42.0964L20.0829 41.6382ZM27.2609 37.6739L27.5422 38.0872C27.5494 38.0823 27.5565 38.0772 27.5634 38.0719L27.2609 37.6739ZM28.7314 36.5562L28.4319 36.1558L28.4289 36.1581L28.7314 36.5562ZM35.9093 29.7977L36.291 30.1207L36.293 30.1183L35.9093 29.7977ZM37.45 27.8418L37.0512 27.5399L37.0441 27.5498L37.45 27.8418ZM44.6281 13.3119L44.1471 13.1755L44.1462 13.1787L44.6281 13.3119ZM45.0374 11.6975L45.5245 11.8104L45.5245 11.8102L45.0374 11.6975ZM45.3109 10.4828L45.799 10.5918L45.8011 10.5816L45.3109 10.4828ZM46.1688 2.5543L46.6687 2.5626C46.6709 2.42857 46.6193 2.29926 46.5253 2.20369C46.4313 2.10812 46.3028 2.0543 46.1688 2.0543V2.5543ZM39.7611 2.5543V2.0543C39.4883 2.0543 39.2659 2.27289 39.2611 2.54559L39.7611 2.5543ZM28.8015 28.1561L28.45 27.8006L28.4484 27.8021L28.8015 28.1561ZM2.55817 46.8248L2.55711 46.3248C2.42445 46.3251 2.29733 46.3781 2.20376 46.4722C2.11018 46.5662 2.05781 46.6936 2.05817 46.8262L2.55817 46.8248ZM9.75362 46.2485L9.83218 46.7424L9.84284 46.7405L9.75362 46.2485ZM2.5757 53.1817L2.0757 53.183C2.07646 53.4587 2.30014 53.6817 2.57578 53.6817L2.5757 53.1817ZM9.75362 52.6753L9.68551 52.1799L9.68352 52.1802L9.75362 52.6753ZM9.84894 52.6622L9.78088 52.1668L9.78083 52.1668L9.84894 52.6622ZM11.2943 52.4307L11.2143 51.9372C11.2072 51.9383 11.2002 51.9396 11.1932 51.9411L11.2943 52.4307ZM18.4722 50.6844L18.3244 50.2067L18.3165 50.2092L18.4722 50.6844ZM19.1362 50.4712L18.978 49.9969L18.978 49.9969L19.1362 50.4712ZM20.0128 50.1605L19.8437 49.6899L19.8359 49.6928L20.0128 50.1605ZM27.1908 46.9471L27.429 47.3867C27.4338 47.3841 27.4385 47.3815 27.4431 47.3788L27.1908 46.9471ZM28.7314 46.0564L28.4782 45.6251L28.4682 45.6314L28.7314 46.0564ZM35.9093 40.9745L36.232 41.3565C36.2357 41.3534 36.2393 41.3502 36.2429 41.347L35.9093 40.9745ZM37.45 39.5948L37.7836 39.9673L37.7881 39.9632L37.45 39.5948ZM44.6281 31.4743L44.2229 31.1814L44.221 31.184L44.6281 31.4743ZM46.1688 29.169L45.7468 28.9007L45.7446 28.9044L46.1688 29.169ZM54.0819 3.63704L54.5816 3.6543C54.5818 3.64855 54.5819 3.6428 54.5819 3.63704L54.0819 3.63704ZM54.0819 2.5543H54.5819C54.5819 2.27816 54.358 2.0543 54.0819 2.0543V2.5543ZM47.7094 2.5543V2.0543C47.4345 2.0543 47.2112 2.27624 47.2094 2.55114L47.7094 2.5543ZM46.2387 13.4866L45.7556 13.3575L45.7553 13.3585L46.2387 13.4866ZM44.698 18.1669L44.2331 17.9828L44.2323 17.9849L44.698 18.1669ZM37.5201 30.3915L37.896 30.7212C37.8993 30.7174 37.9027 30.7135 37.9059 30.7095L37.5201 30.3915ZM35.9794 32.1379L36.3477 32.4762L36.3539 32.4692L35.9794 32.1379ZM28.8015 38.4772L29.0828 38.8908L29.0917 38.8844L28.8015 38.4772ZM27.2609 39.525L27.5329 39.9447L27.5421 39.9385L27.2609 39.525ZM20.0479 43.3146L20.2323 43.7794L20.2391 43.7766L20.0479 43.3146ZM18.5072 43.9259L18.6847 44.3934L18.6916 44.3907L18.5072 43.9259ZM11.2943 45.9691L11.3835 46.4611L11.3884 46.4602L11.2943 45.9691ZM44.5756 64.4283V64.9283C44.8517 64.9283 45.0756 64.7045 45.0756 64.4283H44.5756ZM37.3976 64.4283H36.8976C36.8976 64.7045 37.1215 64.9283 37.3976 64.9283V64.4283ZM44.5756 34.1287H45.0756C45.0756 33.9149 44.9397 33.7248 44.7375 33.6556C44.5352 33.5864 44.3114 33.6534 44.1804 33.8223L44.5756 34.1287ZM37.3976 41.7255L37.0694 41.3483C36.9603 41.4433 36.8976 41.5808 36.8976 41.7255H37.3976ZM18.5072 64.4283V64.9283C18.6401 64.9283 18.7675 64.8755 18.8613 64.7814C18.9551 64.6873 19.0076 64.5597 19.0072 64.4269L18.5072 64.4283ZM11.2943 64.4283H10.7943C10.7943 64.7045 11.0181 64.9283 11.2943 64.9283V64.4283ZM18.4722 52.2037L18.9722 52.2023C18.9717 52.0428 18.8953 51.8932 18.7663 51.7994C18.6374 51.7056 18.4715 51.6789 18.3196 51.7276L18.4722 52.2037ZM11.2943 53.9501L11.211 53.4571C10.9704 53.4977 10.7943 53.7061 10.7943 53.9501H11.2943ZM20.0479 51.8021L19.885 51.3294C19.6828 51.399 19.5473 51.5896 19.5479 51.8035L20.0479 51.8021ZM27.2609 48.6935H27.7609C27.7609 48.5186 27.6695 48.3564 27.5198 48.2658C27.3702 48.1752 27.1841 48.1694 27.0291 48.2504L27.2609 48.6935ZM20.0829 64.4108L19.5829 64.4122C19.5837 64.6878 19.8073 64.9108 20.0829 64.9108V64.4108ZM27.2609 64.4108V64.9108C27.537 64.9108 27.7609 64.687 27.7609 64.4108H27.2609ZM28.8015 47.8553L28.5541 47.4208C28.3979 47.5097 28.3015 47.6756 28.3015 47.8553H28.8015ZM35.9794 42.9654H36.4794C36.4794 42.7729 36.3689 42.5975 36.1952 42.5144C36.0215 42.4313 35.8156 42.4553 35.6657 42.5761L35.9794 42.9654ZM28.8015 64.4283H28.3015C28.3015 64.7045 28.5254 64.9283 28.8015 64.9283V64.4283ZM35.9794 64.4283V64.9283C36.2556 64.9283 36.4794 64.7045 36.4794 64.4283H35.9794ZM2.55817 54.736L2.55881 54.236C2.42609 54.2358 2.29875 54.2884 2.20484 54.3822C2.11094 54.476 2.05817 54.6033 2.05817 54.736H2.55817ZM9.75362 54.2644H10.2536C10.2536 54.1203 10.1915 53.9832 10.0831 53.8883C9.97466 53.7933 9.83057 53.7498 9.68773 53.7688L9.75362 54.2644ZM2.55817 64.4283H2.05817C2.05817 64.7045 2.28203 64.9283 2.55817 64.9283V64.4283ZM9.75362 64.4283V64.9283C10.0298 64.9283 10.2536 64.7045 10.2536 64.4283H9.75362ZM46.1688 64.4283H45.6688C45.6688 64.7045 45.8926 64.9283 46.1688 64.9283V64.4283ZM46.1688 31.9632L45.7591 31.6765C45.7003 31.7605 45.6688 31.8606 45.6688 31.9632H46.1688ZM54.0819 64.4283V64.9283C54.358 64.9283 54.5819 64.7045 54.5819 64.4283H54.0819ZM54.0819 14.6392H54.5819C54.5819 14.3868 54.3938 14.1739 54.1433 14.143C53.8928 14.112 53.6585 14.2725 53.5969 14.5173L54.0819 14.6392ZM85.8225 8.38577V7.88577C85.5464 7.88577 85.3225 8.10963 85.3225 8.38577H85.8225ZM108.582 8.38577H109.082C109.082 8.10963 108.858 7.88577 108.582 7.88577V8.38577ZM85.8225 9.62574H85.3225C85.3225 9.90188 85.5464 10.1257 85.8225 10.1257V9.62574ZM96.5369 9.62574H97.0369C97.0369 9.3496 96.8131 9.12574 96.5369 9.12574V9.62574ZM96.5369 37.2009H96.0369C96.0369 37.4771 96.2608 37.7009 96.5369 37.7009V37.2009ZM97.7799 37.2009V37.7009C98.056 37.7009 98.2799 37.4771 98.2799 37.2009H97.7799ZM97.7799 9.62574V9.12574C97.5038 9.12574 97.2799 9.3496 97.2799 9.62574H97.7799ZM108.582 9.62574V10.1257C108.858 10.1257 109.082 9.90188 109.082 9.62574H108.582ZM248.728 9.83529L249.153 9.57255C249.035 9.38236 248.806 9.29325 248.591 9.35431C248.376 9.41536 248.228 9.61175 248.228 9.83529H248.728ZM257.971 24.8017L257.546 25.0645C257.662 25.253 257.889 25.3424 258.103 25.2842C258.317 25.2259 258.467 25.034 258.471 24.8125L257.971 24.8017ZM248.728 37.2009V37.7009C249.004 37.7009 249.228 37.4771 249.228 37.2009H248.728ZM247.485 37.2009H246.985C246.985 37.4771 247.208 37.7009 247.485 37.7009V37.2009ZM247.485 8.38577V7.88577C247.208 7.88577 246.985 8.10963 246.985 8.38577H247.485ZM249.603 8.38577L250.031 8.12766C249.941 7.97755 249.778 7.88577 249.603 7.88577V8.38577ZM258.024 22.3568L258.524 22.3675C258.526 22.2729 258.501 22.1797 258.452 22.0987L258.024 22.3568ZM273.22 8.42063V7.92063C273.045 7.92063 272.882 8.0124 272.792 8.16251L273.22 8.42063ZM264.799 22.3916L264.371 22.1335C264.321 22.2156 264.297 22.3103 264.299 22.4062L264.799 22.3916ZM275.268 8.42063H275.768C275.768 8.14449 275.545 7.92063 275.268 7.92063V8.42063ZM275.268 37.2358V37.7358C275.545 37.7358 275.768 37.5119 275.768 37.2358H275.268ZM274.113 37.2358H273.613C273.613 37.5119 273.837 37.7358 274.113 37.7358V37.2358ZM274.113 9.83519H274.613C274.613 9.61164 274.465 9.41526 274.25 9.3542C274.035 9.29314 273.805 9.38225 273.688 9.57244L274.113 9.83519ZM264.869 24.8016L264.369 24.8162C264.376 25.0369 264.526 25.2273 264.74 25.2846C264.953 25.3418 265.179 25.2523 265.295 25.0644L264.869 24.8016ZM114.692 8.38577H115.192C115.192 8.10963 114.968 7.88577 114.692 7.88577V8.38577ZM113.449 8.38577V7.88577C113.173 7.88577 112.949 8.10963 112.949 8.38577H113.449ZM114.692 21.9726H114.192C114.192 22.2488 114.416 22.4726 114.692 22.4726V21.9726ZM133.25 21.9726V22.4726C133.526 22.4726 133.75 22.2488 133.75 21.9726H133.25ZM133.25 8.38577V7.88577C132.974 7.88577 132.75 8.10963 132.75 8.38577H133.25ZM134.493 8.38577H134.993C134.993 8.10963 134.769 7.88577 134.493 7.88577V8.38577ZM134.493 37.2009V37.7009C134.769 37.7009 134.993 37.4771 134.993 37.2009H134.493ZM133.25 37.2009H132.75C132.75 37.4771 132.974 37.7009 133.25 37.7009V37.2009ZM133.25 23.23H133.75C133.75 22.9538 133.526 22.73 133.25 22.73V23.23ZM114.692 23.23V22.73C114.416 22.73 114.192 22.9538 114.192 23.23H114.692ZM114.692 37.2009V37.7009C114.968 37.7009 115.192 37.4771 115.192 37.2009H114.692ZM113.449 37.2009H112.949C112.949 37.4771 113.173 37.7009 113.449 37.7009V37.2009ZM143.562 8.38577V7.88577C143.285 7.88577 143.062 8.10963 143.062 8.38577H143.562ZM162.067 8.38577H162.567C162.567 8.10963 162.343 7.88577 162.067 7.88577V8.38577ZM143.562 37.2009H143.062C143.062 37.4771 143.285 37.7009 143.562 37.7009V37.2009ZM162.067 37.2009V37.7009C162.343 37.7009 162.567 37.4771 162.567 37.2009H162.067ZM162.067 35.961H162.567C162.567 35.6848 162.343 35.461 162.067 35.461V35.961ZM144.805 35.961H144.305C144.305 36.2371 144.528 36.461 144.805 36.461V35.961ZM144.805 23.2125V22.7125C144.528 22.7125 144.305 22.9363 144.305 23.2125H144.805ZM158.968 23.2125V23.7125C159.244 23.7125 159.468 23.4886 159.468 23.2125H158.968ZM158.968 21.9726H159.468C159.468 21.6965 159.244 21.4726 158.968 21.4726V21.9726ZM144.735 21.9726H144.235C144.235 22.2488 144.459 22.4726 144.735 22.4726V21.9726ZM144.735 9.62574V9.12574C144.459 9.12574 144.235 9.3496 144.235 9.62574H144.735ZM162.067 9.62574V10.1257C162.343 10.1257 162.567 9.90188 162.567 9.62574H162.067ZM180.274 8.38577V7.88577C179.998 7.88577 179.774 8.10963 179.774 8.38577H180.274ZM181.517 26.4957V25.9957C181.241 25.9957 181.017 26.2195 181.017 26.4957H181.517ZM181.517 37.2009V37.7009C181.793 37.7009 182.017 37.4771 182.017 37.2009H181.517ZM180.274 37.2009H179.774C179.774 37.4771 179.998 37.7009 180.274 37.7009V37.2009ZM191.409 25.2557L191.409 24.7557L191.404 24.7557L191.409 25.2557ZM181.517 9.62574V9.12574C181.241 9.12574 181.017 9.3496 181.017 9.62574H181.517ZM181.517 25.3431H181.017C181.017 25.4765 181.07 25.6043 181.165 25.6982C181.26 25.7921 181.388 25.8443 181.522 25.8431L181.517 25.3431ZM207.918 8.38577V7.88577C207.785 7.88577 207.658 7.93862 207.564 8.03265C207.47 8.12668 207.418 8.25417 207.418 8.38699L207.918 8.38577ZM207.988 37.2009L207.488 37.2022C207.489 37.4778 207.712 37.7009 207.988 37.7009V37.2009ZM209.231 37.2009V37.7009C209.507 37.7009 209.731 37.4771 209.731 37.2009H209.231ZM209.231 25.6749V25.1749C208.955 25.1749 208.731 25.3988 208.731 25.6749H209.231ZM219.735 25.6749L220.156 25.4042C220.064 25.2613 219.905 25.1749 219.735 25.1749V25.6749ZM227.158 37.2009L226.738 37.4717C226.83 37.6146 226.988 37.7009 227.158 37.7009V37.2009ZM228.594 37.2009V37.7009C228.777 37.7009 228.946 37.6008 229.033 37.44C229.121 37.2791 229.114 37.0832 229.014 36.9295L228.594 37.2009ZM221.119 25.64L221.052 25.1445C220.882 25.1674 220.736 25.2755 220.664 25.431C220.593 25.5865 220.606 25.7677 220.699 25.9115L221.119 25.64ZM209.161 24.435H208.661C208.661 24.7111 208.885 24.935 209.161 24.935V24.435ZM209.161 9.62574V9.12574C208.885 9.12574 208.661 9.3496 208.661 9.62574H209.161ZM237.208 8.38577H237.708C237.708 8.10963 237.484 7.88577 237.208 7.88577V8.38577ZM235.965 8.38577V7.88577C235.689 7.88577 235.465 8.10963 235.465 8.38577H235.965ZM237.208 37.2009V37.7009C237.484 37.7009 237.708 37.4771 237.708 37.2009H237.208ZM235.965 37.2009H235.465C235.465 37.4771 235.689 37.7009 235.965 37.7009V37.2009ZM284.442 8.38577V7.88577C284.166 7.88577 283.942 8.10963 283.942 8.38577H284.442ZM303 8.38577H303.5C303.5 8.10963 303.276 7.88577 303 7.88577V8.38577ZM284.442 37.2009H283.942C283.942 37.4771 284.166 37.7009 284.442 37.7009V37.2009ZM303 37.2009V37.7009C303.276 37.7009 303.5 37.4771 303.5 37.2009H303ZM303 35.961H303.5C303.5 35.6848 303.276 35.461 303 35.461V35.961ZM285.668 35.961H285.168C285.168 36.2371 285.392 36.461 285.668 36.461V35.961ZM285.668 23.2125V22.7125C285.392 22.7125 285.168 22.9363 285.168 23.2125H285.668ZM299.901 23.2125V23.7125C300.177 23.7125 300.401 23.4886 300.401 23.2125H299.901ZM299.901 21.9726H300.401C300.401 21.6965 300.177 21.4726 299.901 21.4726V21.9726ZM285.668 21.9726H285.168C285.168 22.2488 285.392 22.4726 285.668 22.4726V21.9726ZM285.668 9.62574V9.12574C285.392 9.12574 285.168 9.3496 285.168 9.62574H285.668ZM303 9.62574V10.1257C303.276 10.1257 303.5 9.90188 303.5 9.62574H303ZM124.864 61.7374L125.216 62.0924C125.405 61.9052 125.414 61.6032 125.237 61.4047L124.864 61.7374ZM121.8 64.7762L121.448 64.4212C121.304 64.5638 121.261 64.7792 121.338 64.9666C121.415 65.1539 121.597 65.2762 121.8 65.2762V64.7762ZM122.063 58.5939V58.0939C121.866 58.0939 121.687 58.2096 121.606 58.3894C121.526 58.5691 121.558 58.7795 121.689 58.9266L122.063 58.5939ZM122.868 58.5939L123.241 58.2616C123.147 58.1549 123.011 58.0939 122.868 58.0939V58.5939ZM125.634 61.7025L125.26 62.0349C125.398 62.1899 125.618 62.2436 125.812 62.1698C126.006 62.096 126.134 61.9101 126.134 61.7025H125.634ZM125.634 58.5066V58.0066C125.358 58.0066 125.134 58.2305 125.134 58.5066H125.634ZM126.282 58.5066H126.782C126.782 58.2305 126.558 58.0066 126.282 58.0066V58.5066ZM126.282 61.6151H125.782C125.782 61.8224 125.91 62.0081 126.103 62.0822C126.297 62.1562 126.516 62.1031 126.654 61.9487L126.282 61.6151ZM129.066 58.5066V58.0066C128.923 58.0066 128.788 58.0672 128.693 58.1731L129.066 58.5066ZM129.871 58.5066L130.243 58.8404C130.375 58.6935 130.408 58.4829 130.327 58.3028C130.247 58.1226 130.068 58.0066 129.871 58.0066V58.5066ZM127.052 61.6501L126.68 61.3163C126.505 61.5117 126.51 61.8095 126.693 61.998L127.052 61.6501ZM130.081 64.7762V65.2762C130.282 65.2762 130.463 65.156 130.541 64.9712C130.62 64.7863 130.58 64.5725 130.44 64.4282L130.081 64.7762ZM129.206 64.7762L128.853 65.1312C128.947 65.2241 129.074 65.2762 129.206 65.2762V64.7762ZM126.229 61.8248L126.581 61.4698C126.438 61.3276 126.223 61.2856 126.037 61.3632C125.851 61.4409 125.729 61.6229 125.729 61.8248H126.229ZM126.229 64.7762V65.2762C126.506 65.2762 126.729 65.0523 126.729 64.7762H126.229ZM125.582 64.7762H125.082C125.082 65.0523 125.305 65.2762 125.582 65.2762V64.7762ZM125.582 61.7374H126.082C126.082 61.5339 125.958 61.3508 125.77 61.2742C125.581 61.1976 125.365 61.2428 125.223 61.3886L125.582 61.7374ZM122.623 64.7762V65.2762C122.758 65.2762 122.887 65.2216 122.981 65.125L122.623 64.7762ZM135.508 64.7762H135.008C135.008 64.9817 135.134 65.1663 135.325 65.2415C135.516 65.3167 135.734 65.2672 135.874 65.1166L135.508 64.7762ZM135.508 58.5066V58.0066C135.232 58.0066 135.008 58.2305 135.008 58.5066H135.508ZM139.99 59.9561H140.49C140.49 59.7506 140.364 59.566 140.173 59.4908C139.981 59.4156 139.764 59.4651 139.624 59.6157L139.99 59.9561ZM139.99 64.7762H139.49C139.49 65.0523 139.714 65.2762 139.99 65.2762V64.7762ZM140.638 64.7762V65.2762C140.914 65.2762 141.138 65.0523 141.138 64.7762H140.638ZM140.638 58.4368H141.138C141.138 58.2318 141.013 58.0475 140.822 57.972C140.631 57.8964 140.414 57.9449 140.274 58.0943L140.638 58.4368ZM136.138 63.2219H135.638C135.638 63.4269 135.764 63.6111 135.954 63.6867C136.145 63.7622 136.362 63.7137 136.503 63.5644L136.138 63.2219ZM136.138 58.5066H136.638C136.638 58.2305 136.414 58.0066 136.138 58.0066V58.5066ZM151.387 64.7762L150.935 64.9898C151.018 65.1647 151.194 65.2762 151.387 65.2762V64.7762ZM152.07 64.7762V65.2762C152.242 65.2762 152.402 65.188 152.493 65.0426C152.585 64.8973 152.595 64.7151 152.521 64.5602L152.07 64.7762ZM149.076 59.8863L149.528 59.6727C149.446 59.4976 149.269 59.386 149.075 59.3863C148.882 59.3866 148.706 59.4987 148.624 59.674L149.076 59.8863ZM146.783 64.7762V65.2762C146.977 65.2762 147.153 65.164 147.236 64.9885L146.783 64.7762ZM146.083 64.7762L145.632 64.5602C145.557 64.7152 145.568 64.8973 145.659 65.0426C145.751 65.188 145.911 65.2762 146.083 65.2762V64.7762ZM149.076 58.5241L149.527 58.3082C149.444 58.1346 149.269 58.0241 149.076 58.0241C148.884 58.0241 148.708 58.1346 148.625 58.3082L149.076 58.5241ZM162.347 63.8505L162.7 64.2045L162.7 64.2045L162.347 63.8505ZM161.311 64.5412L161.502 65.0033L161.502 65.0033L161.311 64.5412ZM162.347 59.345L162.7 58.991L162.7 58.991L162.347 59.345ZM157.83 59.345L157.477 58.991L157.477 58.991L157.83 59.345ZM157.138 60.3786L157.599 60.5703L157.599 60.5703L157.138 60.3786ZM157.138 62.8169L156.676 63.0087L156.676 63.0088L157.138 62.8169ZM157.418 63.3458L157 63.6206L157.001 63.6206L157.418 63.3458ZM157.638 63.6415L157.255 63.9627L157.257 63.9653L157.638 63.6415ZM157.679 63.6898L157.298 64.0137L157.307 64.0231L157.679 63.6898ZM157.73 63.7462L157.357 64.0795L157.361 64.0837L157.73 63.7462ZM157.83 63.8505L158.183 63.4965L158.182 63.496L157.83 63.8505ZM158.866 64.5412L158.675 65.0033L158.675 65.0033L158.866 64.5412ZM158.303 63.3965L158.662 63.0492L158.662 63.0487L158.303 63.3965ZM159.102 63.9434L159.295 63.4822L159.295 63.4822L159.102 63.9434ZM158.303 59.7816L158.662 60.1293L158.662 60.1288L158.303 59.7816ZM159.102 59.2345L159.295 59.6957L159.296 59.6956L159.102 59.2345ZM159.196 59.1975L159.368 59.6669L159.369 59.6665L159.196 59.1975ZM159.638 59.0803L159.556 58.587L159.556 58.587L159.638 59.0803ZM160.053 59.048L160.049 59.5481L160.06 59.548L160.053 59.048ZM160.56 59.0959L160.46 59.5858L160.46 59.5858L160.56 59.0959ZM161.005 59.2332L161.198 58.772L161.198 58.772L161.005 59.2332ZM161.804 59.7816L162.168 59.4384L162.165 59.4357L161.804 59.7816ZM161.804 63.3965L162.165 63.7424L162.168 63.7396L161.804 63.3965ZM160.053 64.13L160.059 63.6299L160.049 63.63L160.053 64.13ZM169.175 58.5067V58.0067C168.899 58.0067 168.675 58.2306 168.675 58.5067H169.175ZM169.175 64.7762H168.675C168.675 64.9815 168.8 65.166 168.991 65.2413C169.182 65.3166 169.4 65.2675 169.54 65.1173L169.175 64.7762ZM169.805 58.5067H170.305C170.305 58.2306 170.081 58.0067 169.805 58.0067V58.5067ZM169.805 63.222H169.305C169.305 63.4268 169.43 63.611 169.62 63.6866C169.811 63.7623 170.028 63.7142 170.169 63.5652L169.805 63.222ZM174.322 58.4368H174.822C174.822 58.232 174.697 58.0478 174.506 57.9722C174.316 57.8965 174.099 57.9446 173.958 58.0936L174.322 58.4368ZM174.322 64.7762V65.2762C174.598 65.2762 174.822 65.0523 174.822 64.7762H174.322ZM173.674 64.7762H173.174C173.174 65.0523 173.398 65.2762 173.674 65.2762V64.7762ZM173.674 59.9563H174.174C174.174 59.7509 174.048 59.5664 173.857 59.4911C173.666 59.4158 173.449 59.4649 173.308 59.6151L173.674 59.9563ZM172.676 56.7604L172.323 56.4064C172.18 56.5493 172.137 56.7645 172.214 56.9514C172.291 57.1384 172.474 57.2604 172.676 57.2604V56.7604ZM172.647 57.1452L173.114 57.3236L173.114 57.3235L172.647 57.1452ZM172.587 57.2693L172.157 57.0138L172.157 57.0151L172.587 57.2693ZM172.514 57.3736L172.901 57.6907L172.901 57.6907L172.514 57.3736ZM172.414 57.4763L172.72 57.8711C172.726 57.8665 172.732 57.8617 172.738 57.8568L172.414 57.4763ZM171.717 57.6826L171.76 57.1844L171.758 57.1843L171.717 57.6826ZM171.582 57.662L171.473 58.1498L171.473 58.1499L171.582 57.662ZM171.491 57.6371L171.336 58.1124L171.337 58.1127L171.491 57.6371ZM171.188 57.4763L170.839 57.8341C170.852 57.8473 170.867 57.8598 170.882 57.8714L171.188 57.4763ZM170.994 57.1802L170.526 57.3567L170.527 57.3575L170.994 57.1802ZM170.955 57.0426L170.464 57.136L170.464 57.1368L170.955 57.0426ZM170.943 56.8302L171.442 56.8675C171.452 56.7288 171.404 56.5921 171.309 56.4901C171.215 56.3881 171.082 56.3302 170.943 56.3302V56.8302ZM170.418 56.8302V56.3302C170.151 56.3302 169.932 56.5391 169.918 56.8053L170.418 56.8302ZM170.51 57.3561L170.049 57.5493L170.049 57.5494L170.51 57.3561ZM170.82 57.7907L170.488 58.1642C170.501 58.1755 170.514 58.1861 170.528 58.1961L170.82 57.7907ZM171.822 58.0948L171.839 58.5945L171.839 58.5945L171.822 58.0948ZM172.799 57.7208L173.119 58.1045C173.126 58.0991 173.132 58.0936 173.138 58.0879L172.799 57.7208ZM173.104 57.2841L173.566 57.4775L173.566 57.4774L173.104 57.2841ZM173.201 56.7604L173.701 56.7449C173.693 56.4749 173.472 56.2604 173.201 56.2604V56.7604ZM172.694 56.7429L173.19 56.6826C173.167 56.4928 173.038 56.3328 172.857 56.2703C172.676 56.2079 172.476 56.2539 172.341 56.3889L172.694 56.7429ZM187.54 64.7762H187.04C187.04 65.0523 187.264 65.2762 187.54 65.2762V64.7762ZM187.54 58.5066V58.0066C187.264 58.0066 187.04 58.2305 187.04 58.5066H187.54ZM188.17 64.7762V65.2762C188.446 65.2762 188.67 65.0523 188.67 64.7762H188.17ZM188.17 61.8248L188.512 61.4598C188.366 61.3236 188.154 61.2868 187.971 61.366C187.788 61.4453 187.67 61.6255 187.67 61.8248H188.17ZM191.321 64.7762L190.98 65.1411C191.072 65.2279 191.194 65.2762 191.321 65.2762V64.7762ZM192.197 64.7762V65.2762C192.401 65.2762 192.584 65.1524 192.66 64.9634C192.737 64.7744 192.691 64.558 192.544 64.4164L192.197 64.7762ZM188.958 61.6501L188.595 61.3063C188.406 61.5055 188.413 61.8194 188.611 62.0098L188.958 61.6501ZM191.934 58.5066L192.297 58.8504C192.435 58.7053 192.472 58.4925 192.393 58.309C192.314 58.1255 192.134 58.0066 191.934 58.0066V58.5066ZM191.129 58.5066V58.0066C190.992 58.0066 190.86 58.0632 190.766 58.1629L191.129 58.5066ZM188.17 61.6326H187.67C187.67 61.8373 187.795 62.0214 187.985 62.0971C188.175 62.1729 188.392 62.125 188.533 61.9763L188.17 61.6326ZM188.17 58.5066H188.67C188.67 58.2305 188.446 58.0066 188.17 58.0066V58.5066ZM202.141 63.8505L202.488 64.2107C202.492 64.2065 202.496 64.2021 202.501 64.1977L202.141 63.8505ZM197.641 63.8505L197.289 64.2052L197.294 64.2107L197.641 63.8505ZM197.633 59.3537L197.986 59.707L197.986 59.707L197.633 59.3537ZM202.141 59.345L202.501 58.9977L202.493 58.9903L202.141 59.345ZM198.897 63.9406L199.091 63.4794L199.09 63.4794L198.897 63.9406ZM198.097 63.3966L197.733 63.7397L197.739 63.7459L198.097 63.3966ZM199.847 64.13L199.853 63.63L199.846 63.63L199.847 64.13ZM200.799 63.9449L200.992 64.406L200.993 64.4058L200.799 63.9449ZM201.021 63.8381L200.781 63.3993L200.781 63.3995L201.021 63.8381ZM201.382 63.5956L201.698 63.9835L201.698 63.9834L201.382 63.5956ZM201.598 63.3966L201.959 63.7426L201.962 63.7397L201.598 63.3966ZM201.598 59.7816L201.962 59.4384L201.959 59.4357L201.598 59.7816ZM199.847 59.048L199.846 59.5481L199.853 59.548L199.847 59.048ZM198.897 59.2374L199.09 59.6986L199.091 59.6986L198.897 59.2374ZM198.097 59.7816L197.739 59.4322L197.733 59.4384L198.097 59.7816ZM208.969 64.7762H208.469C208.469 65.0523 208.692 65.2762 208.969 65.2762V64.7762ZM208.969 58.4368L209.343 58.1059C209.206 57.95 208.986 57.8956 208.792 57.9692C208.597 58.0427 208.469 58.2289 208.469 58.4368H208.969ZM209.616 64.7762V65.2762C209.893 65.2762 210.116 65.0523 210.116 64.7762H209.616ZM209.616 60.026L209.994 59.6987C209.858 59.5409 209.637 59.4845 209.442 59.5575C209.246 59.6304 209.116 59.8172 209.116 60.026H209.616ZM211.945 62.7155L211.567 63.0427C211.662 63.1524 211.8 63.2154 211.945 63.2155C212.09 63.2155 212.228 63.1524 212.323 63.0427L211.945 62.7155ZM214.273 60.026H214.773C214.773 59.8172 214.644 59.6304 214.448 59.5575C214.252 59.4845 214.032 59.5408 213.895 59.6987L214.273 60.026ZM214.273 64.7762H213.773C213.773 65.0523 213.997 65.2762 214.273 65.2762V64.7762ZM214.921 64.7762V65.2762C215.197 65.2762 215.421 65.0523 215.421 64.7762H214.921ZM214.921 58.4368H215.421C215.421 58.2289 215.293 58.0427 215.098 57.9692C214.904 57.8956 214.684 57.95 214.546 58.1059L214.921 58.4368ZM211.945 61.8073L211.57 62.1382C211.665 62.2457 211.801 62.3073 211.945 62.3073C212.088 62.3073 212.225 62.2457 212.32 62.1383L211.945 61.8073ZM225.303 59.1353H225.803C225.803 58.8592 225.579 58.6353 225.303 58.6353V59.1353ZM225.303 64.7762H224.803C224.803 65.0523 225.027 65.2762 225.303 65.2762V64.7762ZM221.924 59.1353V58.6353C221.648 58.6353 221.424 58.8592 221.424 59.1353H221.924ZM221.924 64.7762V65.2762C222.2 65.2762 222.424 65.0523 222.424 64.7762H221.924ZM221.276 64.7762H220.776C220.776 65.0523 221 65.2762 221.276 65.2762V64.7762ZM221.276 58.5066V58.0066C221 58.0066 220.776 58.2305 220.776 58.5066H221.276ZM225.951 58.5066H226.451C226.451 58.2305 226.227 58.0066 225.951 58.0066V58.5066ZM225.951 64.7762V65.2762C226.227 65.2762 226.451 65.0523 226.451 64.7762H225.951ZM237.348 64.7762V65.2762C237.519 65.2762 237.679 65.1884 237.77 65.0436C237.862 64.8988 237.873 64.7172 237.8 64.5623L237.348 64.7762ZM236.648 64.7762L236.195 64.9885C236.277 65.164 236.454 65.2762 236.648 65.2762V64.7762ZM234.389 58.5241L234.841 58.3102C234.758 58.1359 234.583 58.0245 234.39 58.0241C234.197 58.0237 234.021 58.1342 233.938 58.3082L234.389 58.5241ZM231.395 64.7762L230.944 64.5602C230.87 64.7151 230.881 64.8973 230.972 65.0426C231.064 65.188 231.224 65.2762 231.395 65.2762V64.7762ZM232.096 64.7762V65.2762C232.291 65.2762 232.468 65.1628 232.55 64.9858L232.096 64.7762ZM234.354 59.8863L234.807 59.674C234.724 59.498 234.547 59.3858 234.352 59.3863C234.158 59.3869 233.982 59.5002 233.9 59.6767L234.354 59.8863ZM242.828 58.5066V58.0066C242.551 58.0066 242.328 58.2305 242.328 58.5066H242.828ZM242.828 64.7762H242.328C242.328 65.0523 242.551 65.2762 242.828 65.2762V64.7762ZM246.329 58.5066H246.829C246.829 58.2305 246.605 58.0066 246.329 58.0066V58.5066ZM246.329 59.1353V59.6353C246.605 59.6353 246.829 59.4114 246.829 59.1353H246.329ZM243.423 59.1353V58.6353C243.147 58.6353 242.923 58.8592 242.923 59.1353H243.423ZM243.423 61.2834H242.923C242.923 61.5596 243.147 61.7834 243.423 61.7834V61.2834ZM245.804 61.2834H246.304C246.304 61.0073 246.08 60.7834 245.804 60.7834V61.2834ZM245.804 61.9121V62.4121C246.08 62.4121 246.304 62.1882 246.304 61.9121H245.804ZM243.423 61.9121V61.4121C243.147 61.4121 242.923 61.6359 242.923 61.9121H243.423ZM243.423 64.1474H242.923C242.923 64.4235 243.147 64.6474 243.423 64.6474V64.1474ZM246.329 64.1474H246.829C246.829 63.8712 246.605 63.6474 246.329 63.6474V64.1474ZM246.329 64.7762V65.2762C246.605 65.2762 246.829 65.0523 246.829 64.7762H246.329ZM252.282 64.7762H251.782C251.782 65.0523 252.005 65.2762 252.282 65.2762V64.7762ZM252.282 58.5066V58.0066C252.005 58.0066 251.782 58.2305 251.782 58.5066H252.282ZM252.929 64.7762V65.2762C253.205 65.2762 253.429 65.0523 253.429 64.7762H252.929ZM252.929 61.8248L253.272 61.4608C253.127 61.324 252.914 61.2867 252.731 61.3658C252.548 61.4449 252.429 61.6253 252.429 61.8248H252.929ZM256.063 64.7762L255.72 65.1402C255.813 65.2275 255.936 65.2762 256.063 65.2762V64.7762ZM256.939 64.7762V65.2762C257.143 65.2762 257.327 65.1512 257.403 64.9609C257.479 64.7706 257.431 64.5534 257.282 64.4127L256.939 64.7762ZM253.63 61.6501L253.267 61.3063C253.175 61.4027 253.126 61.5314 253.13 61.664C253.134 61.7967 253.19 61.9224 253.286 62.0135L253.63 61.6501ZM256.606 58.5066L256.969 58.8504C257.106 58.7053 257.144 58.4925 257.065 58.309C256.986 58.1255 256.806 58.0066 256.606 58.0066V58.5066ZM255.888 58.5066V58.0066C255.751 58.0066 255.619 58.0632 255.525 58.1629L255.888 58.5066ZM252.929 61.6326H252.429C252.429 61.8373 252.554 62.0214 252.744 62.0971C252.935 62.1729 253.152 62.125 253.292 61.9763L252.929 61.6326ZM252.929 58.5066H253.429C253.429 58.2305 253.205 58.0066 252.929 58.0066V58.5066ZM262.383 63.8503L262.737 63.4963L262.737 63.4963L262.383 63.8503ZM264.624 64.7762V65.2762L264.628 65.2761L264.624 64.7762ZM262.383 59.3801L262.737 59.7342L262.737 59.7341L262.383 59.3801ZM264.624 58.4543V58.9543L264.628 58.9543L264.624 58.4543ZM266.042 58.7686L265.828 59.2202C265.837 59.2247 265.847 59.2289 265.857 59.2329L266.042 58.7686ZM267.11 59.537L267.434 59.9181C267.644 59.7394 267.67 59.424 267.491 59.2135L267.11 59.537ZM266.637 59.9387L266.246 60.2492C266.33 60.3555 266.453 60.423 266.588 60.4363C266.723 60.4496 266.858 60.4075 266.961 60.3197L266.637 59.9387ZM266.2 59.5088L266.504 59.1118L266.504 59.1115L266.2 59.5088ZM265.797 59.2577L266.02 58.8099L266.014 58.8072L265.797 59.2577ZM265.465 59.1261L265.615 58.6492L265.615 58.6492L265.465 59.1261ZM264.659 59.0131L264.654 59.5131C264.66 59.5132 264.666 59.5131 264.672 59.513L264.659 59.0131ZM264.439 59.0211L264.48 59.5194L264.48 59.5194L264.439 59.0211ZM263.708 59.1997L263.515 58.7385L263.515 58.7385L263.708 59.1997ZM262.908 59.7466L262.549 59.3993L262.545 59.4034L262.908 59.7466ZM262.908 63.3616L262.545 63.7048L262.549 63.7089L262.908 63.3616ZM263.177 63.6008L263.481 63.204L263.48 63.2036L263.177 63.6008ZM263.479 63.798L263.238 64.236L263.238 64.2363L263.479 63.798ZM263.708 63.9085L263.901 63.4473L263.901 63.4473L263.708 63.9085ZM264.659 64.095L264.661 63.595L264.654 63.5951L264.659 64.095ZM265.797 63.8505L266.004 64.3056C266.01 64.3032 266.015 64.3007 266.02 64.2982L265.797 63.8505ZM266.637 63.1695L266.961 62.7885C266.858 62.7007 266.723 62.6586 266.588 62.6719C266.453 62.6852 266.33 62.7527 266.246 62.859L266.637 63.1695ZM267.11 63.5712L267.507 63.876C267.669 63.6646 267.637 63.3628 267.434 63.1901L267.11 63.5712ZM266.638 64.0496L266.328 63.6572L266.328 63.6572L266.638 64.0496ZM266.077 64.3919L265.87 63.9368C265.858 63.9425 265.846 63.9486 265.834 63.9553L266.077 64.3919ZM1 66.5H55.6401V65.5H1V66.5ZM0.5 1V66H1.5V1H0.5ZM55.6401 0.5H1V1.5H55.6401V0.5ZM2.55817 3.0543H14.3756V2.0543H2.55817V3.0543ZM3.07569 13.5906L3.05817 2.55351L2.05817 2.55509L2.0757 13.5922L3.07569 13.5906ZM10.315 10.0278C8.21715 11.99 5.45073 13.085 2.57458 13.0914L2.57681 14.0914C5.70552 14.0844 8.71531 12.8933 10.9981 10.7581L10.315 10.0278ZM13.8767 2.52098C13.6855 5.38271 12.4128 8.06565 10.315 10.0278L10.9981 10.7581C13.2809 8.62291 14.6664 5.70283 14.8745 2.58762L13.8767 2.52098ZM2.55861 15.6456C6.104 15.6425 9.5144 14.289 12.0933 11.8614L11.4078 11.1333C9.01448 13.3862 5.84897 14.6427 2.55773 14.6456L2.55861 15.6456ZM3.07569 21.5185L3.05817 15.1442L2.05817 15.147L2.0757 21.5213L3.07569 21.5185ZM15.937 15.6425C12.3461 19.0881 7.55828 21.015 2.5752 21.0199L2.57619 22.0199C7.81664 22.0148 12.8523 19.9883 16.6293 16.3641L15.937 15.6425ZM21.8416 2.53437C21.6435 7.5 19.5278 12.197 15.937 15.6425L16.6293 16.3641C20.4064 12.7398 22.6324 7.79862 22.8408 2.57423L21.8416 2.53437ZM15.9337 3.0543H22.3412V2.0543H15.9337V3.0543ZM12.0933 11.8614C14.6722 9.43373 16.2244 6.1152 16.4329 2.58376L15.4346 2.52484C15.2412 5.80111 13.8011 8.88033 11.4078 11.1333L12.0933 11.8614ZM2.55824 23.5567C8.21041 23.556 13.6424 21.3693 17.7121 17.4562L17.019 16.7353C13.1358 20.4692 7.95225 22.556 2.5581 22.5567L2.55824 23.5567ZM3.07569 29.4296L3.05817 23.0553L2.05817 23.0581L2.0757 29.4324L3.07569 29.4296ZM21.5408 21.2376C16.463 26.1651 9.65984 28.925 2.57527 28.931L2.57612 29.931C9.92007 29.9247 16.9727 27.0639 22.2372 21.9553L21.5408 21.2376ZM29.7723 2.54006C29.571 9.6031 26.6184 16.3101 21.5408 21.2376L22.2372 21.9552C27.5015 16.8466 30.5632 9.8924 30.7719 2.56854L29.7723 2.54006ZM23.8819 3.0543H30.2721V2.0543H23.8819V3.0543ZM17.7121 17.4562C21.7822 13.5431 24.1729 8.20809 24.3815 2.5728L23.3822 2.5358C23.1831 7.9117 20.9025 13.0016 17.0191 16.7353L17.7121 17.4562ZM2.55858 31.4852C10.3174 31.4789 17.7683 28.4548 23.3277 23.0551L22.631 22.3378C17.2583 27.5562 10.0571 30.4791 2.55777 30.4852L2.55858 31.4852ZM3.07569 37.3582L3.05817 30.9838L2.05817 30.9866L2.0757 37.3609L3.07569 37.3582ZM27.149 26.8346C20.5826 33.2462 11.7639 36.844 2.57485 36.8595L2.57654 37.8595C12.0257 37.8435 21.0946 34.1439 27.8476 27.5501L27.149 26.8346ZM37.7206 2.54275C37.5088 11.7054 33.7153 20.423 27.149 26.8346L27.8476 27.5501C34.6007 20.9561 38.5025 11.9902 38.7203 2.56585L37.7206 2.54275ZM31.8302 3.0543H38.2204V2.0543H31.8302V3.0543ZM23.3277 23.0551C28.8872 17.6555 32.1168 10.3058 32.33 2.56807L31.3304 2.54052C31.1244 10.0173 28.0037 17.1195 22.631 22.3378L23.3277 23.0551ZM2.55656 39.3963C11.7765 39.4261 20.6863 36.0752 27.5917 29.9805L26.93 29.2307C20.2083 35.1633 11.5352 38.4253 2.55978 38.3963L2.55656 39.3963ZM3.07569 45.2692L3.05817 38.895L2.05817 38.8977L2.0757 45.2719L3.07569 45.2692ZM18.3607 41.8185C13.3308 43.7791 7.97688 44.7806 2.57662 44.7705L2.57477 45.7705C8.09987 45.7808 13.5777 44.7562 18.7239 42.7502L18.3607 41.8185ZM19.8896 41.1771L18.3489 41.8232L18.7357 42.7454L20.2763 42.0993L19.8896 41.1771ZM26.9795 37.2605C24.7413 38.7842 22.3654 40.0964 19.8829 41.1799L20.283 42.0964C22.8223 40.988 25.2527 39.6458 27.5422 38.0872L26.9795 37.2605ZM28.4289 36.1581L26.9583 37.2758L27.5634 38.0719L29.034 36.9542L28.4289 36.1581ZM35.5277 29.4747C33.4227 31.9615 31.0423 34.2027 28.4319 36.1558L29.031 36.9565C31.7017 34.9583 34.1372 32.6652 36.291 30.1207L35.5277 29.4747ZM37.0441 27.5498C36.5648 28.216 36.0487 28.8511 35.5257 29.4771L36.293 30.1183C36.8206 29.487 37.3551 28.8298 37.8559 28.1338L37.0441 27.5498ZM44.1462 13.1787C42.7115 18.3698 40.3043 23.2427 37.0513 27.54L37.8487 28.1435C41.178 23.7454 43.6417 18.7581 45.1101 13.4451L44.1462 13.1787ZM44.5503 11.5846C44.4253 12.1238 44.2942 12.6565 44.1471 13.1755L45.1092 13.4483C45.2625 12.9074 45.3977 12.3574 45.5245 11.8104L44.5503 11.5846ZM44.823 10.3739C44.7326 10.7784 44.6435 11.1819 44.5503 11.5848L45.5245 11.8102C45.6189 11.4024 45.7093 10.9932 45.7989 10.5917L44.823 10.3739ZM45.6689 2.54599C45.6251 5.17884 45.3412 7.80243 44.8208 10.384L45.8011 10.5816C46.3335 7.94046 46.624 5.25629 46.6687 2.5626L45.6689 2.54599ZM39.7611 3.0543H46.1688V2.0543H39.7611V3.0543ZM29.1531 28.5116C36.1051 21.6374 40.091 12.3265 40.261 2.56301L39.2611 2.54559C39.0957 12.0476 35.2165 21.1097 28.45 27.8006L29.1531 28.5116ZM27.5949 29.9777C28.1243 29.5025 28.6387 29.0247 29.1546 28.5101L28.4484 27.8021C27.9488 28.3005 27.4481 28.7657 26.9269 29.2335L27.5949 29.9777ZM2.55923 47.3248C4.99499 47.3197 7.42665 47.1249 9.83216 46.7423L9.67509 45.7547C7.32082 46.1291 4.94097 46.3198 2.55711 46.3248L2.55923 47.3248ZM3.07569 53.1803L3.05817 46.8235L2.05817 46.8262L2.0757 53.183L3.07569 53.1803ZM9.68352 52.1802C7.32895 52.5136 4.95365 52.6812 2.57561 52.6817L2.57578 53.6817C5.00069 53.6812 7.42279 53.5103 9.82373 53.1703L9.68352 52.1802ZM9.78083 52.1668L9.68551 52.1799L9.82173 53.1706L9.91705 53.1575L9.78083 52.1668ZM11.1932 51.9411C10.7363 52.0354 10.2617 52.1007 9.78088 52.1668L9.917 53.1575C10.3919 53.0922 10.9 53.0227 11.3953 52.9204L11.1932 51.9411ZM18.3165 50.2092C15.9979 50.9691 13.6232 51.5469 11.2143 51.9372L11.3742 52.9243C13.8345 52.5257 16.2598 51.9356 18.6279 51.1595L18.3165 50.2092ZM18.978 49.9969C18.7591 50.0699 18.5404 50.1399 18.3244 50.2067L18.62 51.162C18.8421 51.0933 19.0679 51.0211 19.2944 50.9455L18.978 49.9969ZM19.8359 49.6928C19.5545 49.7993 19.2666 49.9006 18.978 49.9969L19.2944 50.9455C19.5931 50.8459 19.8938 50.7401 20.1898 50.6281L19.8359 49.6928ZM26.9525 46.5075C24.6671 47.7463 22.2906 48.8102 19.8437 49.69L20.182 50.631C22.6765 49.7341 25.0992 48.6496 27.429 47.3867L26.9525 46.5075ZM28.4682 45.6314C27.9636 45.9438 27.4735 46.2026 26.9384 46.5155L27.4431 47.3788C27.9236 47.0979 28.4841 46.7977 28.9947 46.4815L28.4682 45.6314ZM35.5867 40.5925C33.3651 42.4687 30.9871 44.1524 28.4783 45.6253L28.9846 46.4876C31.5424 44.986 33.9669 43.2694 36.232 41.3565L35.5867 40.5925ZM37.1164 39.2224L35.5758 40.6021L36.2429 41.347L37.7836 39.9673L37.1164 39.2224ZM44.221 31.184C42.1386 34.1044 39.7559 36.7999 37.1119 39.2265L37.7881 39.9632C40.4834 37.4896 42.9123 34.7417 45.0352 31.7645L44.221 31.184ZM45.7446 28.9044C45.2588 29.683 44.7574 30.4416 44.2229 31.1814L45.0334 31.7671C45.5841 31.005 46.0982 30.2268 46.593 29.4337L45.7446 28.9044ZM53.5822 3.61979C53.2724 12.5921 50.5676 21.3193 45.7469 28.9007L46.5907 29.4373C51.5071 21.7055 54.2656 12.8049 54.5816 3.6543L53.5822 3.61979ZM53.5819 2.5543V3.63704H54.5819V2.5543H53.5819ZM47.7094 3.0543H54.0819V2.0543H47.7094V3.0543ZM46.7217 13.6157C47.6861 10.0075 48.1859 6.29152 48.2094 2.55745L47.2094 2.55114C47.1864 6.20016 46.698 9.83147 45.7556 13.3575L46.7217 13.6157ZM45.1629 18.351C45.7754 16.804 46.2959 15.2225 46.722 13.6147L45.7553 13.3585C45.3394 14.9284 44.8311 16.4725 44.2331 17.9828L45.1629 18.351ZM37.9059 30.7095C40.9651 26.9978 43.4147 22.8258 45.1637 18.3488L44.2323 17.9849C42.5218 22.3633 40.1261 26.4435 37.1343 30.0735L37.9059 30.7095ZM36.3539 32.4692C36.8791 31.8755 37.4049 31.281 37.896 30.7212L37.1442 30.0618C36.6548 30.6197 36.1304 31.2127 35.6049 31.8066L36.3539 32.4692ZM29.0917 38.8844C31.7273 37.0059 34.1592 34.8583 36.3477 32.4762L35.6112 31.7996C33.4699 34.1305 31.0903 36.2319 28.5113 38.0701L29.0917 38.8844ZM27.5421 39.9385L29.0827 38.8907L28.5203 38.0638L26.9797 39.1116L27.5421 39.9385ZM20.2391 43.7766C22.7826 42.7242 25.224 41.4415 27.5329 39.9446L26.9889 39.1055C24.7312 40.5692 22.3439 41.8235 19.8567 42.8526L20.2391 43.7766ZM18.6916 44.3907L20.2323 43.7794L19.8635 42.8499L18.3228 43.4612L18.6916 44.3907ZM11.3884 46.4602C13.876 45.9834 16.3173 45.2919 18.6847 44.3934L18.3298 43.4584C16.0165 44.3364 13.6309 45.0122 11.2001 45.4781L11.3884 46.4602ZM9.84284 46.7405L11.3835 46.4611L11.2051 45.4772L9.66441 45.7565L9.84284 46.7405ZM44.5756 63.9283H37.3976V64.9283H44.5756V63.9283ZM44.0756 34.1287V64.4283H45.0756V34.1287H44.0756ZM37.7259 42.1026C40.3851 39.788 42.8115 37.22 44.9707 34.435L44.1804 33.8223C42.0611 36.5558 39.6795 39.0764 37.0694 41.3483L37.7259 42.1026ZM37.8976 64.4283V41.7255H36.8976V64.4283H37.8976ZM18.5072 63.9283H11.2943V64.9283H18.5072V63.9283ZM17.9722 52.2051L18.0072 64.4298L19.0072 64.4269L18.9722 52.2023L17.9722 52.2051ZM11.3775 54.4431C13.8324 54.0287 16.2542 53.4394 18.6248 52.6799L18.3196 51.7276C15.9945 52.4726 13.619 53.0505 11.211 53.4571L11.3775 54.4431ZM11.7943 64.4283V53.9501H10.7943V64.4283H11.7943ZM20.2108 52.2748C22.7135 51.4123 25.1476 50.3632 27.4926 49.1365L27.0291 48.2504C24.7285 49.454 22.3404 50.4832 19.885 51.3294L20.2108 52.2748ZM20.5829 64.4095L20.5479 51.8007L19.5479 51.8035L19.5829 64.4122L20.5829 64.4095ZM27.2609 63.9108H20.0829V64.9108H27.2609V63.9108ZM26.7609 48.6935V64.4108H27.7609V48.6935H26.7609ZM29.049 48.2897C31.5925 46.8411 34.0151 45.1908 36.2932 43.3547L35.6657 42.5761C33.4293 44.3786 31.0511 45.9987 28.5541 47.4208L29.049 48.2897ZM29.3015 64.4283V47.8553H28.3015V64.4283H29.3015ZM35.9794 63.9283H28.8015V64.9283H35.9794V63.9283ZM35.4794 42.9654V64.4283H36.4794V42.9654H35.4794ZM2.55753 55.236C4.98617 55.2391 7.41223 55.0801 9.81952 54.7601L9.68773 53.7688C7.32455 54.0829 4.94295 54.239 2.55881 54.236L2.55753 55.236ZM3.05817 64.4283V54.736H2.05817V64.4283H3.05817ZM9.75362 63.9283H2.55817V64.9283H9.75362V63.9283ZM9.25362 54.2644V64.4283H10.2536V54.2644H9.25362ZM46.6688 64.4283V31.9632H45.6688V64.4283H46.6688ZM54.0819 63.9283H46.1688V64.9283H54.0819V63.9283ZM53.5819 14.6392V64.4283H54.5819V14.6392H53.5819ZM46.5784 32.2499C50.2853 26.9535 52.9925 21.0269 54.5668 14.761L53.5969 14.5173C52.0524 20.665 49.3962 26.4799 45.7591 31.6765L46.5784 32.2499ZM85.8225 8.88577H108.582V7.88577H85.8225V8.88577ZM86.3225 9.62574V8.38577H85.3225V9.62574H86.3225ZM96.5369 9.12574H85.8225V10.1257H96.5369V9.12574ZM97.0369 37.2009V9.62574H96.0369V37.2009H97.0369ZM97.7799 36.7009H96.5369V37.7009H97.7799V36.7009ZM97.2799 9.62574V37.2009H98.2799V9.62574H97.2799ZM108.582 9.12574H97.7799V10.1257H108.582V9.12574ZM108.082 8.38577V9.62574H109.082V8.38577H108.082ZM248.302 10.098L257.546 25.0645L258.397 24.539L249.153 9.57255L248.302 10.098ZM249.228 37.2009V9.83529H248.228V37.2009H249.228ZM247.485 37.7009H248.728V36.7009H247.485V37.7009ZM246.985 8.38577V37.2009H247.985V8.38577H246.985ZM249.603 7.88577H247.485V8.88577H249.603V7.88577ZM258.452 22.0987L250.031 8.12766L249.175 8.64389L257.596 22.6149L258.452 22.0987ZM258.471 24.8125L258.524 22.3675L257.524 22.346L257.472 24.791L258.471 24.8125ZM272.792 8.16251L264.371 22.1335L265.227 22.6497L273.648 8.67874L272.792 8.16251ZM275.268 7.92063H273.22V8.92063H275.268V7.92063ZM275.768 37.2358V8.42063H274.768V37.2358H275.768ZM274.113 37.7358H275.268V36.7358H274.113V37.7358ZM273.613 9.83519V37.2358H274.613V9.83519H273.613ZM265.295 25.0644L274.538 10.0979L273.688 9.57244L264.444 24.5389L265.295 25.0644ZM264.299 22.4062L264.369 24.8162L265.369 24.7871L265.299 22.3771L264.299 22.4062ZM114.692 7.88577H113.449V8.88577H114.692V7.88577ZM115.192 21.9726V8.38577H114.192V21.9726H115.192ZM133.25 21.4726H114.692V22.4726H133.25V21.4726ZM132.75 8.38577V21.9726H133.75V8.38577H132.75ZM134.493 7.88577H133.25V8.88577H134.493V7.88577ZM134.993 37.2009V8.38577H133.993V37.2009H134.993ZM133.25 37.7009H134.493V36.7009H133.25V37.7009ZM132.75 23.23V37.2009H133.75V23.23H132.75ZM114.692 23.73H133.25V22.73H114.692V23.73ZM115.192 37.2009V23.23H114.192V37.2009H115.192ZM113.449 37.7009H114.692V36.7009H113.449V37.7009ZM112.949 8.38577V37.2009H113.949V8.38577H112.949ZM143.562 8.88577H162.067V7.88577H143.562V8.88577ZM144.062 37.2009V8.38577H143.062V37.2009H144.062ZM162.067 36.7009H143.562V37.7009H162.067V36.7009ZM161.567 35.961V37.2009H162.567V35.961H161.567ZM144.805 36.461H162.067V35.461H144.805V36.461ZM144.305 23.2125V35.961H145.305V23.2125H144.305ZM158.968 22.7125H144.805V23.7125H158.968V22.7125ZM158.468 21.9726V23.2125H159.468V21.9726H158.468ZM144.735 22.4726H158.968V21.4726H144.735V22.4726ZM144.235 9.62574V21.9726H145.235V9.62574H144.235ZM162.067 9.12574H144.735V10.1257H162.067V9.12574ZM161.567 8.38577V9.62574H162.567V8.38577H161.567ZM191.409 7.88577H180.274V8.88577H191.409V7.88577ZM201.818 17.4495C201.818 14.631 200.836 12.2261 199.015 10.5283C197.197 8.83331 194.589 7.88577 191.409 7.88577V8.88577C194.391 8.88577 196.738 9.77191 198.333 11.2597C199.926 12.7446 200.818 14.8715 200.818 17.4495H201.818ZM191.409 26.9957C194.588 26.9957 197.197 26.0529 199.015 24.3624C200.836 22.6688 201.818 20.268 201.818 17.4495H200.818C200.818 20.0273 199.926 22.1495 198.334 23.63C196.738 25.1135 194.392 25.9957 191.409 25.9957V26.9957ZM181.517 26.9957H191.409V25.9957H181.517V26.9957ZM182.017 37.2009V26.4957H181.017V37.2009H182.017ZM180.274 37.7009H181.517V36.7009H180.274V37.7009ZM179.774 8.38577V37.2009H180.774V8.38577H179.774ZM199.575 17.4495C199.575 19.7238 198.851 21.5311 197.51 22.7735C196.163 24.0203 194.132 24.7557 191.409 24.7557V25.7557C194.306 25.7557 196.607 24.9717 198.189 23.5073C199.775 22.0385 200.575 19.9426 200.575 17.4495H199.575ZM191.409 10.1257C194.158 10.1257 196.189 10.8656 197.528 12.1153C198.863 13.3611 199.575 15.1725 199.575 17.4495H200.575C200.575 14.9588 199.79 12.8584 198.21 11.3842C196.634 9.91394 194.332 9.12574 191.409 9.12574V10.1257ZM181.517 10.1257H191.409V9.12574H181.517V10.1257ZM182.017 25.3431V9.62574H181.017V25.3431H182.017ZM191.404 24.7557L181.513 24.8431L181.522 25.8431L191.413 25.7557L191.404 24.7557ZM207.918 8.88577H219.263V7.88577H207.918V8.88577ZM208.488 37.1997L208.418 8.38456L207.418 8.38699L207.488 37.2022L208.488 37.1997ZM209.231 36.7009H207.988V37.7009H209.231V36.7009ZM208.731 25.6749V37.2009H209.731V25.6749H208.731ZM219.735 25.1749H209.231V26.1749H219.735V25.1749ZM227.579 36.9302L220.156 25.4042L219.315 25.9456L226.738 37.4717L227.579 36.9302ZM228.594 36.7009H227.158V37.7009H228.594V36.7009ZM220.699 25.9115L228.174 37.4724L229.014 36.9295L221.538 25.3685L220.699 25.9115ZM228.462 17.1176C228.462 19.3059 227.823 21.1358 226.604 22.4994C225.385 23.8638 223.543 24.8075 221.052 25.1445L221.186 26.1354C223.859 25.7738 225.939 24.7442 227.35 23.1659C228.761 21.5868 229.462 19.5049 229.462 17.1176H228.462ZM219.263 8.88577C222.26 8.88577 224.552 9.73177 226.09 11.1541C227.624 12.5728 228.462 14.6141 228.462 17.1176H229.462C229.462 14.3821 228.54 12.0575 226.769 10.42C225.003 8.78615 222.445 7.88577 219.263 7.88577V8.88577ZM219.263 24.935C222.143 24.935 224.393 24.2077 225.927 22.8192C227.469 21.4242 228.219 19.4248 228.219 17.0303H227.219C227.219 19.2114 226.542 20.9142 225.256 22.0777C223.963 23.2477 221.985 23.935 219.263 23.935V24.935ZM209.161 24.935H219.263V23.935H209.161V24.935ZM208.661 9.62574V24.435H209.661V9.62574H208.661ZM219.263 9.12574H209.161V10.1257H219.263V9.12574ZM228.219 17.0303C228.219 14.6359 227.469 12.6364 225.927 11.2415C224.393 9.85302 222.143 9.12574 219.263 9.12574V10.1257C221.985 10.1257 223.963 10.813 225.256 11.983C226.542 13.1465 227.219 14.8493 227.219 17.0303H228.219ZM237.208 7.88577H235.965V8.88577H237.208V7.88577ZM237.708 37.2009V8.38577H236.708V37.2009H237.708ZM235.965 37.7009H237.208V36.7009H235.965V37.7009ZM235.465 8.38577V37.2009H236.465V8.38577H235.465ZM284.442 8.88577H303V7.88577H284.442V8.88577ZM284.942 37.2009V8.38577H283.942V37.2009H284.942ZM303 36.7009H284.442V37.7009H303V36.7009ZM302.5 35.961V37.2009H303.5V35.961H302.5ZM285.668 36.461H303V35.461H285.668V36.461ZM285.168 23.2125V35.961H286.168V23.2125H285.168ZM299.901 22.7125H285.668V23.7125H299.901V22.7125ZM299.401 21.9726V23.2125H300.401V21.9726H299.401ZM285.668 22.4726H299.901V21.4726H285.668V22.4726ZM285.168 9.62574V21.9726H286.168V9.62574H285.168ZM303 9.12574H285.668V10.1257H303V9.12574ZM302.5 8.38577V9.62574H303.5V8.38577H302.5ZM124.512 61.3824L121.448 64.4212L122.152 65.1312L125.216 62.0924L124.512 61.3824ZM121.689 58.9266L124.49 62.07L125.237 61.4047L122.436 58.2613L121.689 58.9266ZM122.868 58.0939H122.063V59.0939H122.868V58.0939ZM126.008 61.3701L123.241 58.2616L122.494 58.9263L125.26 62.0349L126.008 61.3701ZM125.134 58.5066V61.7025H126.134V58.5066H125.134ZM126.282 58.0066H125.634V59.0066H126.282V58.0066ZM126.782 61.6151V58.5066H125.782V61.6151H126.782ZM128.693 58.1731L125.909 61.2816L126.654 61.9487L129.438 58.8402L128.693 58.1731ZM129.871 58.0066H129.066V59.0066H129.871V58.0066ZM127.424 61.9839L130.243 58.8404L129.499 58.1728L126.68 61.3163L127.424 61.9839ZM130.44 64.4282L127.411 61.3022L126.693 61.998L129.722 65.1241L130.44 64.4282ZM129.206 65.2762H130.081V64.2762H129.206V65.2762ZM125.877 62.1798L128.853 65.1312L129.558 64.4211L126.581 61.4698L125.877 62.1798ZM126.729 64.7762V61.8248H125.729V64.7762H126.729ZM125.582 65.2762H126.229V64.2762H125.582V65.2762ZM125.082 61.7374V64.7762H126.082V61.7374H125.082ZM122.981 65.125L125.94 62.0862L125.223 61.3886L122.265 64.4274L122.981 65.125ZM121.8 65.2762H122.623V64.2762H121.8V65.2762ZM136.008 64.7762V58.5066H135.008V64.7762H136.008ZM139.624 59.6157L135.142 64.4357L135.874 65.1166L140.356 60.2966L139.624 59.6157ZM140.49 64.7762V59.9561H139.49V64.7762H140.49ZM140.638 64.2762H139.99V65.2762H140.638V64.2762ZM140.138 58.4368V64.7762H141.138V58.4368H140.138ZM136.503 63.5644L141.002 58.7793L140.274 58.0943L135.774 62.8793L136.503 63.5644ZM135.638 58.5066V63.2219H136.638V58.5066H135.638ZM135.508 59.0066H136.138V58.0066H135.508V59.0066ZM151.387 65.2762H152.07V64.2762H151.387V65.2762ZM148.624 60.1L150.935 64.9898L151.839 64.5625L149.528 59.6727L148.624 60.1ZM147.236 64.9885L149.529 60.0986L148.624 59.674L146.33 64.5639L147.236 64.9885ZM146.083 65.2762H146.783V64.2762H146.083V65.2762ZM148.625 58.3082L145.632 64.5602L146.534 64.9921L149.527 58.74L148.625 58.3082ZM152.521 64.5602L149.527 58.3082L148.625 58.7401L151.619 64.9921L152.521 64.5602ZM161.994 63.4965C161.744 63.746 161.447 63.9439 161.12 64.0792L161.502 65.0033C161.949 64.8181 162.357 64.5468 162.7 64.2045L161.994 63.4965ZM162.782 61.5977C162.782 62.3097 162.499 62.9928 161.994 63.4966L162.7 64.2045C163.393 63.5134 163.782 62.5757 163.782 61.5977H162.782ZM161.994 59.6989C162.499 60.2027 162.782 60.8858 162.782 61.5977H163.782C163.782 60.6198 163.393 59.6821 162.7 58.991L161.994 59.6989ZM160.088 58.9118C160.803 58.9118 161.489 59.195 161.994 59.699L162.7 58.991C162.007 58.2998 161.068 57.9118 160.088 57.9118V58.9118ZM158.183 59.699C158.688 59.195 159.373 58.9118 160.088 58.9118V57.9118C159.109 57.9118 158.17 58.2998 157.477 58.991L158.183 59.699ZM157.599 60.5703C157.735 60.2445 157.933 59.9484 158.183 59.6989L157.477 58.991C157.134 59.3332 156.862 59.7395 156.676 60.1869L157.599 60.5703ZM157.394 61.5977C157.394 61.2453 157.464 60.8961 157.599 60.5703L156.676 60.1868C156.49 60.634 156.394 61.1135 156.394 61.5977H157.394ZM157.599 62.6252C157.464 62.2994 157.394 61.9502 157.394 61.5977H156.394C156.394 62.082 156.49 62.5615 156.676 63.0087L157.599 62.6252ZM157.836 63.0711C157.744 62.9305 157.664 62.7812 157.599 62.6251L156.676 63.0088C156.765 63.2229 156.874 63.4277 157 63.6206L157.836 63.0711ZM158.022 63.3203C157.955 63.2406 157.893 63.1574 157.836 63.071L157.001 63.6206C157.079 63.7395 157.164 63.8537 157.255 63.9627L158.022 63.3203ZM158.06 63.366L158.019 63.3177L157.257 63.9653L157.298 64.0136L158.06 63.366ZM158.102 63.4128L158.052 63.3564L157.307 64.0231L157.357 64.0795L158.102 63.4128ZM158.182 63.496C158.154 63.4679 158.126 63.4387 158.099 63.4086L157.361 64.0837C157.398 64.1247 157.437 64.1652 157.477 64.2051L158.182 63.496ZM159.057 64.0792C158.73 63.9439 158.433 63.746 158.183 63.4965L157.477 64.2045C157.82 64.5468 158.227 64.8181 158.675 65.0033L159.057 64.0792ZM160.088 64.2837C159.734 64.2837 159.384 64.2142 159.057 64.0791L158.675 65.0033C159.123 65.1885 159.603 65.2837 160.088 65.2837V64.2837ZM161.12 64.0791C160.793 64.2142 160.442 64.2837 160.088 64.2837V65.2837C160.573 65.2837 161.053 65.1885 161.502 65.0033L161.12 64.0791ZM157.943 63.7437C158.216 64.0272 158.545 64.2522 158.909 64.4046L159.295 63.4822C159.057 63.3824 158.842 63.2351 158.662 63.0492L157.943 63.7437ZM157.071 61.589C157.071 62.3934 157.384 63.166 157.943 63.7442L158.662 63.0487C158.282 62.6568 158.071 62.1334 158.071 61.589H157.071ZM157.943 59.4338C157.384 60.012 157.071 60.7846 157.071 61.589H158.071C158.071 61.0446 158.282 60.5213 158.662 60.1293L157.943 59.4338ZM158.909 58.7734C158.545 58.9259 158.216 59.1508 157.943 59.4343L158.662 60.1288C158.842 59.9429 159.057 59.7956 159.295 59.6957L158.909 58.7734ZM159.023 58.7282C158.984 58.7427 158.946 58.7579 158.909 58.7735L159.296 59.6956C159.32 59.6852 159.345 59.6756 159.368 59.6669L159.023 58.7282ZM159.556 58.587C159.374 58.6171 159.196 58.6645 159.022 58.7286L159.369 59.6665C159.483 59.6244 159.6 59.5933 159.72 59.5736L159.556 58.587ZM160.058 58.548C159.889 58.5465 159.721 58.5596 159.556 58.587L159.72 59.5736C159.828 59.5556 159.938 59.547 160.049 59.548L160.058 58.548ZM160.66 58.606C160.458 58.5649 160.253 58.5455 160.047 58.548L160.06 59.548C160.194 59.5463 160.329 59.559 160.46 59.5858L160.66 58.606ZM161.198 58.772C161.024 58.6991 160.844 58.6435 160.659 58.6059L160.46 59.5858C160.58 59.6103 160.698 59.6466 160.812 59.6943L161.198 58.772ZM162.165 59.4357C161.892 59.1504 161.563 58.9246 161.198 58.772L160.812 59.6943C161.05 59.7941 161.265 59.9416 161.443 60.1275L162.165 59.4357ZM163.023 61.589C163.023 60.7894 162.717 60.0202 162.168 59.4384L161.44 60.1247C161.815 60.5212 162.023 61.0449 162.023 61.589H163.023ZM162.168 63.7396C162.717 63.1578 163.023 62.3886 163.023 61.589H162.023C162.023 62.1331 161.815 62.6568 161.44 63.0533L162.168 63.7396ZM161.198 64.406C161.563 64.2534 161.892 64.0276 162.165 63.7424L161.443 63.0506C161.265 63.2365 161.05 63.3839 160.812 63.4837L161.198 64.406ZM160.047 64.63C160.442 64.6349 160.834 64.5587 161.198 64.406L160.812 63.4837C160.574 63.5834 160.318 63.6333 160.059 63.63L160.047 64.63ZM158.909 64.4045C159.273 64.557 159.664 64.6336 160.058 64.63L160.049 63.63C159.79 63.6324 159.534 63.5821 159.295 63.4822L158.909 64.4045ZM168.675 58.5067V64.7762H169.675V58.5067H168.675ZM169.805 58.0067H169.175V59.0067H169.805V58.0067ZM170.305 63.222V58.5067H169.305V63.222H170.305ZM173.958 58.0936L169.441 62.8788L170.169 63.5652L174.685 58.78L173.958 58.0936ZM174.822 64.7762V58.4368H173.822V64.7762H174.822ZM173.674 65.2762H174.322V64.2762H173.674V65.2762ZM173.174 59.9563V64.7762H174.174V59.9563H173.174ZM169.54 65.1173L174.039 60.2974L173.308 59.6151L168.809 64.435L169.54 65.1173ZM172.696 56.2604H172.676V57.2604H172.696V56.2604ZM173.114 57.3235C173.19 57.1261 173.216 56.9137 173.193 56.7041L172.199 56.8166C172.205 56.8675 172.198 56.919 172.18 56.9668L173.114 57.3235ZM173.017 57.5248C173.056 57.4594 173.088 57.3919 173.114 57.3236L172.18 56.9667C172.173 56.9845 172.166 57.0002 172.157 57.0138L173.017 57.5248ZM172.901 57.6907C172.944 57.638 172.983 57.5821 173.018 57.5235L172.157 57.0151C172.148 57.0296 172.138 57.0435 172.128 57.0565L172.901 57.6907ZM172.738 57.8568C172.797 57.8063 172.852 57.7507 172.901 57.6907L172.128 57.0564C172.116 57.0704 172.103 57.0837 172.089 57.0958L172.738 57.8568ZM171.801 58.1861C172.134 58.1861 172.457 58.0755 172.72 57.8711L172.107 57.0815C172.02 57.1491 171.912 57.1861 171.801 57.1861V58.1861ZM171.675 58.1808C171.717 58.1843 171.759 58.1861 171.801 58.1861V57.1861C171.787 57.1861 171.773 57.1855 171.76 57.1844L171.675 58.1808ZM171.473 58.1499C171.54 58.1648 171.607 58.1753 171.676 58.1809L171.758 57.1843C171.736 57.1824 171.714 57.179 171.692 57.1741L171.473 58.1499ZM171.337 58.1127C171.382 58.1273 171.427 58.1396 171.473 58.1498L171.692 57.1742C171.676 57.1705 171.66 57.1662 171.645 57.1614L171.337 58.1127ZM170.882 57.8714C171.019 57.9779 171.173 58.0591 171.336 58.1124L171.646 57.1617C171.592 57.144 171.541 57.1169 171.494 57.0812L170.882 57.8714ZM170.527 57.3575C170.595 57.5373 170.701 57.6999 170.839 57.8341L171.537 57.1186C171.504 57.0858 171.478 57.0463 171.462 57.003L170.527 57.3575ZM170.464 57.1368C170.479 57.2119 170.499 57.2854 170.526 57.3567L171.462 57.0038C171.455 56.9855 171.45 56.9669 171.446 56.9484L170.464 57.1368ZM170.444 56.7928C170.436 56.9088 170.443 57.0242 170.464 57.136L171.446 56.9492C171.441 56.9217 171.44 56.8942 171.442 56.8675L170.444 56.7928ZM170.418 57.3302H170.943V56.3302H170.418V57.3302ZM170.971 57.1629C170.93 57.0656 170.912 56.9605 170.917 56.8551L169.918 56.8053C169.906 57.0597 169.95 57.314 170.049 57.5493L170.971 57.1629ZM171.153 57.4171C171.074 57.3469 171.012 57.2599 170.971 57.1628L170.049 57.5494C170.147 57.7846 170.298 57.9948 170.488 58.1642L171.153 57.4171ZM171.804 57.5951C171.556 57.6038 171.313 57.5299 171.113 57.3852L170.528 58.1961C170.908 58.4709 171.37 58.6109 171.839 58.5945L171.804 57.5951ZM172.478 57.3372C172.289 57.4955 172.051 57.5863 171.804 57.5951L171.839 58.5945C172.308 58.5778 172.759 58.4056 173.119 58.1045L172.478 57.3372ZM172.643 57.0908C172.602 57.1903 172.539 57.2801 172.459 57.3538L173.138 58.0879C173.323 57.9173 173.468 57.7092 173.566 57.4775L172.643 57.0908ZM172.702 56.7758C172.705 56.8836 172.685 56.991 172.643 57.0909L173.566 57.4774C173.663 57.2458 173.709 56.9961 173.701 56.7449L172.702 56.7758ZM172.696 57.2604H173.201V56.2604H172.696V57.2604ZM172.197 56.8031L172.199 56.8206L173.192 56.7001L173.19 56.6826L172.197 56.8031ZM173.029 57.1143L173.047 57.0968L172.341 56.3889L172.323 56.4064L173.029 57.1143ZM188.04 64.7762V58.5066H187.04V64.7762H188.04ZM188.17 64.2762H187.54V65.2762H188.17V64.2762ZM187.67 61.8248V64.7762H188.67V61.8248H187.67ZM191.663 64.4112L188.512 61.4598L187.828 62.1897L190.98 65.1411L191.663 64.4112ZM192.197 64.2762H191.321V65.2762H192.197V64.2762ZM188.611 62.0098L191.85 65.1359L192.544 64.4164L189.305 61.2903L188.611 62.0098ZM191.571 58.1629L188.595 61.3063L189.321 61.9938L192.297 58.8504L191.571 58.1629ZM191.129 59.0066H191.934V58.0066H191.129V59.0066ZM188.533 61.9763L191.492 58.8503L190.766 58.1629L187.807 61.2889L188.533 61.9763ZM187.67 58.5066V61.6326H188.67V58.5066H187.67ZM187.54 59.0066H188.17V58.0066H187.54V59.0066ZM199.891 65.2571C200.859 65.2571 201.79 64.8821 202.488 64.2107L201.794 63.4904C201.283 63.9821 200.601 64.2571 199.891 64.2571V65.2571ZM197.294 64.2107C197.992 64.8821 198.923 65.2571 199.891 65.2571V64.2571C199.181 64.2571 198.499 63.9821 197.988 63.4904L197.294 64.2107ZM196.203 61.6049C196.205 62.5813 196.596 63.5166 197.289 64.2052L197.994 63.4959C197.489 62.9943 197.205 62.3133 197.203 61.6029L196.203 61.6049ZM197.279 59.0004C196.588 59.6917 196.201 60.6286 196.203 61.6049L197.203 61.6029C197.202 60.8926 197.483 60.2106 197.986 59.707L197.279 59.0004ZM199.884 57.9179C198.906 57.9198 197.969 58.309 197.279 59.0004L197.986 59.707C198.489 59.2033 199.173 58.9193 199.886 58.9179L199.884 57.9179ZM202.493 58.9903C201.8 58.3016 200.862 57.9161 199.884 57.9179L199.886 58.9179C200.599 58.9166 201.283 59.1979 201.788 59.6997L202.493 58.9903ZM203.551 61.5977C203.551 60.6279 203.174 59.696 202.501 58.9978L201.781 59.6922C202.275 60.2043 202.551 60.8873 202.551 61.5977H203.551ZM202.501 64.1977C203.174 63.4994 203.551 62.5676 203.551 61.5977H202.551C202.551 62.3082 202.275 62.9912 201.781 63.5033L202.501 64.1977ZM199.09 63.4794C198.851 63.3793 198.635 63.2323 198.454 63.0472L197.739 63.7459C198.013 64.0269 198.341 64.2499 198.704 64.4018L199.09 63.4794ZM199.846 63.63C199.586 63.6309 199.33 63.5796 199.091 63.4794L198.704 64.4018C199.066 64.5536 199.456 64.6313 199.849 64.63L199.846 63.63ZM200.606 63.4837C200.368 63.5834 200.112 63.6333 199.853 63.63L199.841 64.63C200.236 64.6349 200.628 64.5587 200.992 64.406L200.606 63.4837ZM200.781 63.3995C200.725 63.4303 200.666 63.4584 200.605 63.4839L200.993 64.4058C201.084 64.3676 201.174 64.3245 201.261 64.2766L200.781 63.3995ZM201.067 63.2076C200.978 63.2799 200.882 63.3442 200.781 63.3993L201.261 64.2768C201.415 64.1925 201.561 64.0943 201.698 63.9835L201.067 63.2076ZM201.237 63.0505C201.183 63.1066 201.126 63.159 201.067 63.2077L201.698 63.9834C201.79 63.9087 201.877 63.8283 201.959 63.7426L201.237 63.0505ZM201.817 61.589C201.817 62.1331 201.608 62.6568 201.234 63.0534L201.962 63.7397C202.511 63.1578 202.817 62.3886 202.817 61.589H201.817ZM201.234 60.1247C201.608 60.5212 201.817 61.0449 201.817 61.589H202.817C202.817 60.7894 202.511 60.0202 201.962 59.4384L201.234 60.1247ZM200.606 59.6943C200.844 59.7941 201.059 59.9416 201.237 60.1275L201.959 59.4357C201.686 59.1504 201.357 58.9246 200.992 58.772L200.606 59.6943ZM199.853 59.548C200.112 59.5448 200.368 59.5946 200.606 59.6943L200.992 58.772C200.628 58.6193 200.236 58.5431 199.841 58.548L199.853 59.548ZM199.091 59.6986C199.329 59.5984 199.586 59.5472 199.846 59.548L199.849 58.548C199.456 58.5469 199.066 58.6244 198.704 58.7763L199.091 59.6986ZM198.454 60.1309C198.635 59.9457 198.851 59.7987 199.09 59.6986L198.704 58.7762C198.341 58.9281 198.013 59.1512 197.739 59.4323L198.454 60.1309ZM197.878 61.589C197.878 61.0449 198.086 60.5212 198.46 60.1247L197.733 59.4384C197.184 60.0202 196.878 60.7894 196.878 61.589H197.878ZM198.46 63.0534C198.086 62.6568 197.878 62.1331 197.878 61.589H196.878C196.878 62.3886 197.184 63.1578 197.733 63.7397L198.46 63.0534ZM209.469 64.7762V58.4368H208.469V64.7762H209.469ZM209.616 64.2762H208.969V65.2762H209.616V64.2762ZM209.116 60.026V64.7762H210.116V60.026H209.116ZM212.323 62.3882L209.994 59.6987L209.238 60.3532L211.567 63.0427L212.323 62.3882ZM213.895 59.6987L211.567 62.3882L212.323 63.0427L214.651 60.3532L213.895 59.6987ZM214.773 64.7762V60.026H213.773V64.7762H214.773ZM214.921 64.2762H214.273V65.2762H214.921V64.2762ZM214.421 58.4368V64.7762H215.421V58.4368H214.421ZM212.32 62.1383L215.296 58.7678L214.546 58.1059L211.57 61.4763L212.32 62.1383ZM208.594 58.7678L211.57 62.1382L212.32 61.4764L209.343 58.1059L208.594 58.7678ZM224.803 59.1353V64.7762H225.803V59.1353H224.803ZM221.924 59.6353H225.303V58.6353H221.924V59.6353ZM222.424 64.7762V59.1353H221.424V64.7762H222.424ZM221.276 65.2762H221.924V64.2762H221.276V65.2762ZM220.776 58.5066V64.7762H221.776V58.5066H220.776ZM225.951 58.0066H221.276V59.0066H225.951V58.0066ZM226.451 64.7762V58.5066H225.451V64.7762H226.451ZM225.303 65.2762H225.951V64.2762H225.303V65.2762ZM237.348 64.2762H236.648V65.2762H237.348V64.2762ZM233.937 58.738L236.896 64.99L237.8 64.5623L234.841 58.3102L233.937 58.738ZM231.846 64.9921L234.84 58.74L233.938 58.3082L230.944 64.5602L231.846 64.9921ZM232.096 64.2762H231.395V65.2762H232.096V64.2762ZM233.9 59.6767L231.642 64.5665L232.55 64.9858L234.808 60.096L233.9 59.6767ZM237.1 64.5638L234.807 59.674L233.901 60.0987L236.195 64.9885L237.1 64.5638ZM242.328 58.5066V64.7762H243.328V58.5066H242.328ZM246.329 58.0066H242.828V59.0066H246.329V58.0066ZM246.829 59.1353V58.5066H245.829V59.1353H246.829ZM243.423 59.6353H246.329V58.6353H243.423V59.6353ZM243.923 61.2834V59.1353H242.923V61.2834H243.923ZM245.804 60.7834H243.423V61.7834H245.804V60.7834ZM246.304 61.9121V61.2834H245.304V61.9121H246.304ZM243.423 62.4121H245.804V61.4121H243.423V62.4121ZM243.923 64.1474V61.9121H242.923V64.1474H243.923ZM246.329 63.6474H243.423V64.6474H246.329V63.6474ZM246.829 64.7762V64.1474H245.829V64.7762H246.829ZM242.828 65.2762H246.329V64.2762H242.828V65.2762ZM252.782 64.7762V58.5066H251.782V64.7762H252.782ZM252.929 64.2762H252.282V65.2762H252.929V64.2762ZM252.429 61.8248V64.7762H253.429V61.8248H252.429ZM256.406 64.4122L253.272 61.4608L252.587 62.1888L255.72 65.1402L256.406 64.4122ZM256.939 64.2762H256.063V65.2762H256.939V64.2762ZM253.286 62.0135L256.595 65.1396L257.282 64.4127L253.973 61.2866L253.286 62.0135ZM256.243 58.1629L253.267 61.3063L253.993 61.9938L256.969 58.8504L256.243 58.1629ZM255.888 59.0066H256.606V58.0066H255.888V59.0066ZM253.292 61.9763L256.251 58.8503L255.525 58.1629L252.566 61.2889L253.292 61.9763ZM252.429 58.5066V61.6326H253.429V58.5066H252.429ZM252.282 59.0066H252.929V58.0066H252.282V59.0066ZM262.03 64.2043C262.719 64.8908 263.652 65.2762 264.624 65.2762V64.2762C263.916 64.2762 263.237 63.9955 262.737 63.4963L262.03 64.2043ZM260.955 61.6152C260.955 62.5866 261.342 63.5179 262.03 64.2043L262.737 63.4963C262.236 62.9972 261.955 62.3206 261.955 61.6152H260.955ZM262.03 59.0261C261.342 59.7126 260.955 60.6439 260.955 61.6152H261.955C261.955 60.9099 262.236 60.2332 262.737 59.7342L262.03 59.0261ZM264.624 57.9543C263.652 57.9543 262.719 58.3397 262.03 59.0261L262.737 59.7341C263.237 59.2349 263.916 58.9543 264.624 58.9543V57.9543ZM266.257 58.3171C265.746 58.0741 265.186 57.95 264.62 57.9543L264.628 58.9543C265.043 58.9511 265.453 59.0421 265.828 59.2202L266.257 58.3171ZM267.491 59.2135C267.151 58.8122 266.717 58.5001 266.228 58.3044L265.857 59.2329C266.194 59.368 266.494 59.5836 266.729 59.8606L267.491 59.2135ZM266.961 60.3197L267.434 59.9181L266.786 59.156L266.314 59.5576L266.961 60.3197ZM265.896 59.9057C266.026 60.0053 266.144 60.1205 266.246 60.2492L267.029 59.6281C266.876 59.4343 266.699 59.2611 266.504 59.1118L265.896 59.9057ZM265.574 59.7054C265.688 59.7619 265.796 59.8292 265.897 59.9061L266.504 59.1115C266.353 58.9963 266.191 58.8952 266.02 58.81L265.574 59.7054ZM265.315 59.6031C265.405 59.6315 265.494 59.6666 265.58 59.7081L266.014 58.8072C265.885 58.7449 265.752 58.6921 265.615 58.6492L265.315 59.6031ZM264.672 59.513C264.891 59.5073 265.108 59.538 265.315 59.6031L265.615 58.6492C265.303 58.551 264.975 58.5047 264.646 58.5133L264.672 59.513ZM264.48 59.5194C264.538 59.5146 264.596 59.5125 264.654 59.5131L264.664 58.5132C264.575 58.5123 264.486 58.5155 264.397 58.5229L264.48 59.5194ZM263.901 59.6609C264.086 59.5835 264.281 59.5359 264.48 59.5194L264.397 58.5228C264.094 58.5479 263.796 58.6205 263.515 58.7385L263.901 59.6609ZM263.268 60.0938C263.447 59.908 263.663 59.7607 263.901 59.6608L263.515 58.7385C263.151 58.8909 262.822 59.1158 262.549 59.3994L263.268 60.0938ZM262.69 61.554C262.69 61.0101 262.898 60.4862 263.272 60.0898L262.545 59.4034C261.996 59.9852 261.69 60.7545 261.69 61.554H262.69ZM263.272 63.0184C262.898 62.622 262.69 62.0981 262.69 61.554H261.69C261.69 62.3536 261.996 63.1229 262.545 63.7048L263.272 63.0184ZM263.48 63.2036C263.405 63.1461 263.334 63.0828 263.268 63.0143L262.549 63.7089C262.65 63.8135 262.758 63.9101 262.873 63.998L263.48 63.2036ZM263.72 63.3599C263.636 63.3138 263.556 63.2617 263.481 63.204L262.873 63.9976C262.988 64.0864 263.111 64.166 263.238 64.236L263.72 63.3599ZM263.901 63.4473C263.839 63.4215 263.779 63.3923 263.72 63.3597L263.238 64.2363C263.327 64.2851 263.42 64.3299 263.515 64.3697L263.901 63.4473ZM264.654 63.5951C264.396 63.5975 264.14 63.5472 263.901 63.4473L263.515 64.3697C263.878 64.522 264.27 64.5988 264.664 64.595L264.654 63.5951ZM265.59 63.3955C265.298 63.5282 264.982 63.5964 264.661 63.5951L264.657 64.595C265.122 64.5969 265.582 64.4981 266.004 64.3056L265.59 63.3955ZM266.246 62.859C266.065 63.0873 265.836 63.2729 265.574 63.4029L266.02 64.2982C266.413 64.1028 266.757 63.8236 267.029 63.4801L266.246 62.859ZM267.434 63.1901L266.961 62.7885L266.314 63.5506L266.786 63.9522L267.434 63.1901ZM266.948 64.4421C267.156 64.2775 267.344 64.0875 267.507 63.876L266.714 63.2664C266.601 63.4128 266.472 63.544 266.328 63.6572L266.948 64.4421ZM266.284 64.847C266.522 64.7387 266.745 64.6025 266.948 64.442L266.328 63.6572C266.188 63.7682 266.034 63.8622 265.87 63.9368L266.284 64.847ZM264.628 65.2761C265.221 65.2712 265.803 65.1174 266.321 64.8285L265.834 63.9553C265.463 64.1623 265.045 64.2726 264.62 64.2762L264.628 65.2761ZM56.1401 66V1H55.1401V66H56.1401Z" fill="url(#paint24_linear_127_19)" mask="url(#path-1-outside-1_127_19)"/>
<defs>
<linearGradient id="paint0_linear_127_19" x1="0.999998" y1="33.59" x2="298.802" y2="49.248" gradientUnits="userSpaceOnUse">
<stop stop-color="#BA975C"/>
<stop offset="0.505208" stop-color="#F6E7CC"/>
<stop offset="1" stop-color="#D7A250"/>
</linearGradient>
<linearGradient id="paint1_linear_127_19" x1="0.999998" y1="33.59" x2="298.802" y2="49.248" gradientUnits="userSpaceOnUse">
<stop stop-color="#BA975C"/>
<stop offset="0.505208" stop-color="#F6E7CC"/>
<stop offset="1" stop-color="#D7A250"/>
</linearGradient>
<linearGradient id="paint2_linear_127_19" x1="0.999998" y1="33.59" x2="298.802" y2="49.248" gradientUnits="userSpaceOnUse">
<stop stop-color="#BA975C"/>
<stop offset="0.505208" stop-color="#F6E7CC"/>
<stop offset="1" stop-color="#D7A250"/>
</linearGradient>
<linearGradient id="paint3_linear_127_19" x1="0.999998" y1="33.59" x2="298.802" y2="49.248" gradientUnits="userSpaceOnUse">
<stop stop-color="#BA975C"/>
<stop offset="0.505208" stop-color="#F6E7CC"/>
<stop offset="1" stop-color="#D7A250"/>
</linearGradient>
<linearGradient id="paint4_linear_127_19" x1="0.999998" y1="33.59" x2="298.802" y2="49.248" gradientUnits="userSpaceOnUse">
<stop stop-color="#BA975C"/>
<stop offset="0.505208" stop-color="#F6E7CC"/>
<stop offset="1" stop-color="#D7A250"/>
</linearGradient>
<linearGradient id="paint5_linear_127_19" x1="0.999998" y1="33.59" x2="298.802" y2="49.248" gradientUnits="userSpaceOnUse">
<stop stop-color="#BA975C"/>
<stop offset="0.505208" stop-color="#F6E7CC"/>
<stop offset="1" stop-color="#D7A250"/>
</linearGradient>
<linearGradient id="paint6_linear_127_19" x1="0.999998" y1="33.59" x2="298.802" y2="49.248" gradientUnits="userSpaceOnUse">
<stop stop-color="#BA975C"/>
<stop offset="0.505208" stop-color="#F6E7CC"/>
<stop offset="1" stop-color="#D7A250"/>
</linearGradient>
<linearGradient id="paint7_linear_127_19" x1="0.999998" y1="33.59" x2="298.802" y2="49.248" gradientUnits="userSpaceOnUse">
<stop stop-color="#BA975C"/>
<stop offset="0.505208" stop-color="#F6E7CC"/>
<stop offset="1" stop-color="#D7A250"/>
</linearGradient>
<linearGradient id="paint8_linear_127_19" x1="0.999998" y1="33.59" x2="298.802" y2="49.248" gradientUnits="userSpaceOnUse">
<stop stop-color="#BA975C"/>
<stop offset="0.505208" stop-color="#F6E7CC"/>
<stop offset="1" stop-color="#D7A250"/>
</linearGradient>
<linearGradient id="paint9_linear_127_19" x1="0.999998" y1="33.59" x2="298.802" y2="49.248" gradientUnits="userSpaceOnUse">
<stop stop-color="#BA975C"/>
<stop offset="0.505208" stop-color="#F6E7CC"/>
<stop offset="1" stop-color="#D7A250"/>
</linearGradient>
<linearGradient id="paint10_linear_127_19" x1="0.999998" y1="33.59" x2="298.802" y2="49.248" gradientUnits="userSpaceOnUse">
<stop stop-color="#BA975C"/>
<stop offset="0.505208" stop-color="#F6E7CC"/>
<stop offset="1" stop-color="#D7A250"/>
</linearGradient>
<linearGradient id="paint11_linear_127_19" x1="0.999998" y1="33.59" x2="298.802" y2="49.248" gradientUnits="userSpaceOnUse">
<stop stop-color="#BA975C"/>
<stop offset="0.505208" stop-color="#F6E7CC"/>
<stop offset="1" stop-color="#D7A250"/>
</linearGradient>
<linearGradient id="paint12_linear_127_19" x1="0.999998" y1="33.59" x2="298.802" y2="49.248" gradientUnits="userSpaceOnUse">
<stop stop-color="#BA975C"/>
<stop offset="0.505208" stop-color="#F6E7CC"/>
<stop offset="1" stop-color="#D7A250"/>
</linearGradient>
<linearGradient id="paint13_linear_127_19" x1="0.999998" y1="33.59" x2="298.802" y2="49.248" gradientUnits="userSpaceOnUse">
<stop stop-color="#BA975C"/>
<stop offset="0.505208" stop-color="#F6E7CC"/>
<stop offset="1" stop-color="#D7A250"/>
</linearGradient>
<linearGradient id="paint14_linear_127_19" x1="0.999998" y1="33.59" x2="298.802" y2="49.248" gradientUnits="userSpaceOnUse">
<stop stop-color="#BA975C"/>
<stop offset="0.505208" stop-color="#F6E7CC"/>
<stop offset="1" stop-color="#D7A250"/>
</linearGradient>
<linearGradient id="paint15_linear_127_19" x1="0.999998" y1="33.59" x2="298.802" y2="49.248" gradientUnits="userSpaceOnUse">
<stop stop-color="#BA975C"/>
<stop offset="0.505208" stop-color="#F6E7CC"/>
<stop offset="1" stop-color="#D7A250"/>
</linearGradient>
<linearGradient id="paint16_linear_127_19" x1="0.999998" y1="33.59" x2="298.802" y2="49.248" gradientUnits="userSpaceOnUse">
<stop stop-color="#BA975C"/>
<stop offset="0.505208" stop-color="#F6E7CC"/>
<stop offset="1" stop-color="#D7A250"/>
</linearGradient>
<linearGradient id="paint17_linear_127_19" x1="0.999998" y1="33.59" x2="298.802" y2="49.248" gradientUnits="userSpaceOnUse">
<stop stop-color="#BA975C"/>
<stop offset="0.505208" stop-color="#F6E7CC"/>
<stop offset="1" stop-color="#D7A250"/>
</linearGradient>
<linearGradient id="paint18_linear_127_19" x1="0.999998" y1="33.59" x2="298.802" y2="49.248" gradientUnits="userSpaceOnUse">
<stop stop-color="#BA975C"/>
<stop offset="0.505208" stop-color="#F6E7CC"/>
<stop offset="1" stop-color="#D7A250"/>
</linearGradient>
<linearGradient id="paint19_linear_127_19" x1="0.999998" y1="33.59" x2="298.802" y2="49.248" gradientUnits="userSpaceOnUse">
<stop stop-color="#BA975C"/>
<stop offset="0.505208" stop-color="#F6E7CC"/>
<stop offset="1" stop-color="#D7A250"/>
</linearGradient>
<linearGradient id="paint20_linear_127_19" x1="0.999998" y1="33.59" x2="298.802" y2="49.248" gradientUnits="userSpaceOnUse">
<stop stop-color="#BA975C"/>
<stop offset="0.505208" stop-color="#F6E7CC"/>
<stop offset="1" stop-color="#D7A250"/>
</linearGradient>
<linearGradient id="paint21_linear_127_19" x1="0.999998" y1="33.59" x2="298.802" y2="49.248" gradientUnits="userSpaceOnUse">
<stop stop-color="#BA975C"/>
<stop offset="0.505208" stop-color="#F6E7CC"/>
<stop offset="1" stop-color="#D7A250"/>
</linearGradient>
<linearGradient id="paint22_linear_127_19" x1="0.999998" y1="33.59" x2="298.802" y2="49.248" gradientUnits="userSpaceOnUse">
<stop stop-color="#BA975C"/>
<stop offset="0.505208" stop-color="#F6E7CC"/>
<stop offset="1" stop-color="#D7A250"/>
</linearGradient>
<linearGradient id="paint23_linear_127_19" x1="0.999998" y1="33.59" x2="298.802" y2="49.248" gradientUnits="userSpaceOnUse">
<stop stop-color="#BA975C"/>
<stop offset="0.505208" stop-color="#F6E7CC"/>
<stop offset="1" stop-color="#D7A250"/>
</linearGradient>
<linearGradient id="paint24_linear_127_19" x1="0.999998" y1="33.59" x2="298.802" y2="49.248" gradientUnits="userSpaceOnUse">
<stop stop-color="#BA975C"/>
<stop offset="0.505208" stop-color="#F6E7CC"/>
<stop offset="1" stop-color="#D7A250"/>
</linearGradient>
</defs>
</svg>
