<svg width="75" height="75" viewBox="0 0 75 75" fill="none" xmlns="http://www.w3.org/2000/svg">
<path d="M75 38.0501C74.5788 38.8759 73.8534 39.5062 72.9765 39.8081L63.6372 44.0865L63.0146 44.3666C63.3542 42.0823 63.5724 39.7817 63.6684 37.4744C63.5724 35.1671 63.3542 32.8665 63.0146 30.5823L64.7735 31.3602C67.6531 32.6826 70.5171 34.0051 73.4123 35.3119C74.0933 35.6382 74.6424 36.187 74.9689 36.8677L75 38.0501Z" fill="#BA975C"/>
<path d="M36.896 74.9689C36.1057 74.5557 35.4919 73.8704 35.1683 73.0397C33.7518 69.9282 32.3042 66.8166 30.8566 63.5961C30.7633 63.3783 30.6699 63.1449 30.592 62.9894C32.8677 63.3227 35.1587 63.5407 37.4564 63.6428C39.7445 63.6428 42.0326 63.2383 44.3675 63.0049C44.3675 63.1294 44.2274 63.3628 44.1184 63.5961C42.6708 66.7077 41.2232 69.8192 39.8068 73.0397C39.4895 73.882 38.875 74.5792 38.079 75L36.896 74.9689Z" fill="#BA975C"/>
<path d="M37.4719 59.2868C33.1619 59.2868 28.9487 58.0094 25.3651 55.6161C21.7815 53.2227 18.9884 49.821 17.339 45.8411C15.6897 41.8611 15.2581 37.4817 16.0989 33.2566C16.9398 29.0315 19.0152 25.1505 22.0628 22.1044C25.1105 19.0583 28.9934 16.9839 33.2205 16.1435C37.4477 15.303 41.8292 15.7344 45.8111 17.3829C49.793 19.0315 53.1964 21.8232 55.5909 25.405C57.9854 28.9869 59.2635 33.198 59.2635 37.5059C59.2635 43.2825 56.9676 48.8226 52.8809 52.9073C48.7941 56.992 43.2514 59.2868 37.4719 59.2868Z" fill="#BA975C"/>
<path d="M14.6685 24.6082L12.287 18.1984L10.5593 13.531C10.3585 13.1119 10.294 12.6404 10.375 12.1828C10.456 11.7252 10.6782 11.3045 11.0107 10.9796C11.3379 10.6449 11.7637 10.4236 12.2258 10.348C12.6879 10.2724 13.162 10.3465 13.579 10.5595L24.1168 14.4645L24.6149 14.6823C20.4879 17.0539 17.066 20.4795 14.6997 24.6082" fill="#BA975C"/>
<path d="M14.684 50.3717C17.0457 54.4772 20.4569 57.8813 24.5681 60.2354L24.0233 60.4999L13.61 64.3582C13.1792 64.6179 12.6731 64.7241 12.1742 64.6594C11.6753 64.5947 11.213 64.363 10.8627 64.0021C10.5125 63.6412 10.2949 63.1723 10.2454 62.6719C10.1959 62.1715 10.3175 61.6691 10.5903 61.2467C11.8667 57.8239 13.1275 54.4012 14.4038 50.9941C14.4038 50.7918 14.575 50.5896 14.684 50.294" fill="#BA975C"/>
<path d="M60.2753 24.5772C57.9141 20.4539 54.4972 17.0334 50.3757 14.6669L54.625 13.1111L61.3493 10.6063C61.7739 10.3835 62.2578 10.2997 62.7326 10.3667C63.2074 10.4337 63.6491 10.6481 63.9954 10.9797C64.3339 11.3215 64.5542 11.7625 64.6242 12.2383C64.6942 12.714 64.6102 13.1997 64.3846 13.6245C63.1082 17.0472 61.8474 20.4699 60.571 23.9082C60.571 24.1104 60.3998 24.2971 60.2753 24.5927" fill="#BA975C"/>
<path d="M60.2909 50.3411C61.2715 52.9392 62.1899 55.3973 63.1082 57.871C63.5441 59.069 63.9955 60.2825 64.4469 61.496C64.6393 61.9038 64.7014 62.3609 64.6247 62.8052C64.5479 63.2494 64.3361 63.6593 64.018 63.9789C63.6999 64.2986 63.2909 64.5125 62.8469 64.5916C62.4028 64.6707 61.9451 64.611 61.5361 64.4209L50.8271 60.4536L50.4068 60.2514C54.524 57.8845 57.9358 54.4637 60.2909 50.3411Z" fill="#BA975C"/>
<path d="M44.4763 12.2241C39.8905 10.9731 35.0532 10.9731 30.4674 12.2241C30.5322 11.9847 30.6155 11.7506 30.7164 11.524C32.273 8.22573 33.8295 4.92748 35.246 1.61366C35.3845 1.14756 35.6699 0.73866 36.0598 0.447878C36.4497 0.157097 36.9231 0 37.4096 0C37.896 0 38.3695 0.157097 38.7594 0.447878C39.1492 0.73866 39.4347 1.14756 39.5732 1.61366C41.0519 4.89636 42.5773 8.17906 44.0716 11.4462C44.165 11.6485 44.2428 11.8507 44.3985 12.2241" fill="#BA975C"/>
<path d="M12.2403 44.491L6.48108 41.9239C4.92454 41.1616 3.21234 40.3682 1.56241 39.6681C1.10954 39.5267 0.713711 39.2444 0.432648 38.8624C0.151586 38.4804 0 38.0186 0 37.5444C0 37.0702 0.151586 36.6084 0.432648 36.2264C0.713711 35.8444 1.10954 35.5621 1.56241 35.4208L11.2597 30.9712L12.2403 30.5512C11.011 35.1377 11.011 39.9667 12.2403 44.5532" fill="#BA975C"/>
</svg>
