<svg width="75" height="75" viewBox="0 0 75 75" fill="none" xmlns="http://www.w3.org/2000/svg">
<path d="M74.984 66.223C74.984 66.3999 74.8563 66.593 74.8084 66.7699C74.5218 67.9261 73.8734 68.9587 72.9591 69.7148C72.0448 70.4709 70.9132 70.9103 69.7318 70.9681C67.5766 70.9681 65.3895 70.9681 63.2184 70.9681C62.3085 70.9681 61.8615 70.4855 61.8615 69.5204C61.8615 68.0406 61.8615 66.5608 61.8615 65.0971V54.9153C61.7968 54.0953 61.9092 53.271 62.191 52.499C62.4728 51.727 62.9172 51.0257 63.4937 50.4433C64.0702 49.8609 64.7651 49.4112 65.5306 49.1253C66.296 48.8394 67.1139 48.7239 67.9279 48.7869C68.7601 48.757 69.5934 48.8001 70.4183 48.9156C71.4251 49.0774 72.3652 49.525 73.1286 50.2058C73.892 50.8867 74.447 51.7727 74.7286 52.7599C74.8244 53.0012 74.9042 53.2585 75 53.4998L74.984 66.223Z" fill="#BA975C"/>
<path d="M44.5245 45.3283C44.5245 48.5453 44.5245 51.7623 44.5245 54.9793C44.5245 56.1696 44.1254 56.5878 42.9281 56.5878H33.8604C32.5514 56.5878 32.264 56.2178 32.264 54.8667C32.3686 53.0578 31.871 51.2655 30.8502 49.7737C29.8295 48.282 28.3438 47.176 26.6287 46.6312C25.6162 46.3695 24.5767 46.2291 23.5316 46.213C22.3822 46.213 21.9352 45.7626 21.9352 44.6045C21.9352 42.996 21.9352 41.291 22.031 39.6664C22.1922 38.0692 22.9332 36.5882 24.1117 35.5077C25.2902 34.4271 26.8233 33.8231 28.4166 33.8115C33.3336 33.8115 38.2665 33.8115 43.1995 33.8115C44.1573 33.8115 44.5884 34.2941 44.5884 35.3074C44.5884 38.6209 44.5884 41.9505 44.5884 45.264" fill="#BA975C"/>
<path d="M47.0468 45.2804V35.549C47.0468 34.2783 47.4459 33.9405 48.6432 33.9405H62.3245C63.2556 33.8947 64.1858 34.0454 65.0556 34.383C65.9255 34.7206 66.7157 35.2377 67.3755 35.901C68.0354 36.5644 68.5504 37.3593 68.8874 38.235C69.2245 39.1106 69.3762 40.0475 69.3328 40.9857C69.3328 42.2403 69.3328 43.4789 69.3328 44.7335C69.3328 45.9881 68.9018 46.342 67.7364 46.342C66.6104 46.2985 65.4876 46.491 64.4392 46.9073C63.3908 47.3236 62.4396 47.9547 61.6458 48.7606C60.852 49.5664 60.2329 50.5296 59.8276 51.589C59.4223 52.6484 59.2397 53.7811 59.2913 54.9153C59.2913 56.4112 58.9721 56.7329 57.4874 56.7329H48.6432C47.3821 56.7329 47.0468 56.3147 47.0468 55.1244V45.4734" fill="#BA975C"/>
<path d="M45.6898 71C41.7626 71 37.8354 71 33.9082 71C32.5193 71 32.1841 70.6461 32.1841 69.2628V60.8504C32.1841 59.6119 32.5832 59.2419 33.7805 59.2419H57.7268C58.94 59.2419 59.3232 59.644 59.3232 60.8504C59.3232 63.6974 59.3232 66.5445 59.3232 69.3915C59.3232 70.5818 58.9241 71 57.7268 71C53.7038 71 49.7447 71 45.6578 71" fill="#BA975C"/>
<path d="M29.6936 62.0091V69.3277C29.6936 70.5984 29.2786 70.9362 28.0972 70.9362C26.2454 70.9362 24.3935 70.9362 22.5417 70.9362C21.751 70.9835 20.9594 70.8608 20.2194 70.5764C19.4793 70.292 18.8077 69.8523 18.2492 69.2864C17.6906 68.7206 17.2578 68.0416 16.9795 67.2944C16.7012 66.5473 16.5838 65.749 16.6349 64.9526C16.6349 61.5265 16.6349 58.1165 16.6349 54.6904C16.5937 53.9014 16.7174 53.1125 16.9978 52.3747C17.2783 51.6368 17.7093 50.9665 18.263 50.4071C18.8168 49.8477 19.4809 49.4116 20.2124 49.127C20.9439 48.8424 21.7266 48.7157 22.5098 48.7551C23.291 48.6988 24.0752 48.6988 24.8565 48.7551C26.2417 48.9197 27.5148 49.6034 28.4227 50.6703C29.3307 51.7371 29.8072 53.109 29.7575 54.5135C29.7575 56.9745 29.7575 59.4355 29.7575 61.8804" fill="#BA975C"/>
<path d="M11.6544 68.4908C12.0851 68.4662 12.5168 68.4662 12.9475 68.4908C13.1124 68.4908 13.2756 68.5238 13.4277 68.5879C13.5798 68.6519 13.7178 68.7458 13.8337 68.864C13.9495 68.9822 14.0409 69.1224 14.1025 69.2765C14.1641 69.4306 14.1948 69.5954 14.1927 69.7615C14.1954 69.9298 14.1633 70.0967 14.0982 70.2517C14.0331 70.4066 13.9366 70.5461 13.8148 70.6613C13.693 70.7764 13.5487 70.8646 13.3911 70.9202C13.2335 70.9757 13.066 70.9975 12.8996 70.984C9.05754 70.984 5.19953 70.984 1.32555 70.984C1.15353 70.9976 0.980591 70.9746 0.817984 70.9164C0.655378 70.8583 0.506748 70.7663 0.381762 70.6464C0.256776 70.5266 0.158233 70.3815 0.0925486 70.2208C0.0268646 70.06 -0.00449346 69.8871 0.000518717 69.7133C0.00435821 69.5407 0.0430615 69.3707 0.114265 69.2137C0.185469 69.0567 0.287684 68.9159 0.414665 68.8C0.541647 68.6841 0.690732 68.5955 0.852831 68.5396C1.01493 68.4837 1.18663 68.4616 1.35747 68.4748C3.64035 68.4748 5.90727 68.4748 8.17419 68.4748H9.11607V15.5875C9.08803 13.2187 9.8642 10.9113 11.3159 9.04781C12.7676 7.18432 14.8078 5.87661 17.0982 5.34137C19.1315 4.81433 21.2735 4.89907 23.2595 5.58514C25.2455 6.27121 26.9885 7.52854 28.2731 9.20175C28.4563 9.42633 28.6167 9.6688 28.752 9.92556C28.9091 10.1895 28.9585 10.5045 28.8901 10.8044C28.8216 11.1042 28.6405 11.3658 28.3848 11.5341C28.1481 11.713 27.8539 11.7973 27.5591 11.7705C27.2642 11.7438 26.9897 11.608 26.7884 11.3893C26.5649 11.148 26.3893 10.8424 26.1658 10.5851C25.0818 9.25083 23.6137 8.28832 21.9639 7.83025C20.314 7.37218 18.5638 7.44112 16.9545 8.02755C15.3616 8.53863 13.9761 9.55644 13.0061 10.9282C12.036 12.3001 11.5337 13.9519 11.5746 15.6357C11.5746 33.0289 11.5746 50.4167 11.5746 67.7992C11.5746 67.9922 11.5746 68.1852 11.5746 68.523" fill="#BA975C"/>
<path d="M28.9914 26.4774H21.9671C20.706 26.4774 20.3707 26.0752 20.3707 24.7884C20.2025 22.8506 20.5095 20.9007 21.2647 19.1104C22.1343 17.3409 23.5684 15.9168 25.3371 15.0665C27.1058 14.2161 29.1067 13.9888 31.0189 14.4208C32.9312 14.8529 34.6441 15.9194 35.883 17.4493C37.1219 18.9793 37.8151 20.884 37.8515 22.8582C37.8515 23.5338 37.8515 24.2255 37.8515 24.9171C37.8515 26.027 37.4205 26.5256 36.2551 26.5256H28.9914" fill="#BA975C"/>
</svg>
