<svg width="75" height="75" viewBox="0 0 75 75" fill="none" xmlns="http://www.w3.org/2000/svg">
<path d="M36.5217 52.2764C36.6943 52.5689 36.8896 52.8454 37.1055 53.103L49.3978 66.1926C49.8095 66.7203 50.3246 67.1449 50.9068 67.4362C51.489 67.7275 52.1239 67.8786 52.7667 67.8786C53.4095 67.8786 54.0445 67.7275 54.6266 67.4362C55.2088 67.1449 55.724 66.7203 56.1357 66.1926L63.5994 58.214C64.1212 57.7752 64.5431 57.2155 64.8332 56.577C65.1232 55.9386 65.274 55.2381 65.274 54.5283C65.274 53.8186 65.1232 53.1181 64.8332 52.4796C64.5431 51.8412 64.1212 51.2815 63.5994 50.8427C59.5388 46.4907 55.4782 42.15 51.4176 37.8205C51.1365 37.6065 50.8412 37.4148 50.5339 37.247C50.8599 36.9923 51.1709 36.7163 51.4649 36.4204L61.8005 25.4056C62.3939 24.8286 62.868 24.1254 63.1924 23.3411C63.5168 22.5568 63.6844 21.7087 63.6844 20.8512C63.6844 19.9937 63.5168 19.1456 63.1924 18.3613C62.868 17.5771 62.3939 16.8739 61.8005 16.2968C60.6013 14.998 59.402 13.716 58.187 12.434C57.6464 11.7719 56.9794 11.2411 56.2309 10.8774C55.4824 10.5137 54.6698 10.3255 53.8476 10.3255C53.0254 10.3255 52.2128 10.5137 51.4643 10.8774C50.7158 11.2411 50.0489 11.7719 49.5082 12.434L39.2358 23.4151C38.9939 23.7185 38.7724 24.0398 38.573 24.3766C38.3838 24.0409 38.1729 23.7196 37.9418 23.4151L25.6969 10.3255C25.2868 9.79517 24.7721 9.36819 24.1898 9.07509C23.6074 8.782 22.9716 8.63002 22.328 8.63002C21.6843 8.63002 21.0485 8.782 20.4661 9.07509C19.8838 9.36819 19.3691 9.79517 18.959 10.3255L11.5111 18.2873C10.9892 18.7261 10.5674 19.2858 10.2773 19.9242C9.98721 20.5627 9.8365 21.2632 9.8365 21.9729C9.8365 22.6827 9.98721 23.3832 10.2773 24.0216C10.5674 24.6601 10.9892 25.2198 11.5111 25.6586L23.6455 38.6133C23.9443 38.8843 24.2607 39.1323 24.5923 39.3555C24.2761 39.573 23.9754 39.8155 23.6929 40.0808C21.2944 42.6279 18.959 45.1412 16.529 47.7389C16.1656 48.145 15.8955 48.6359 15.74 49.1727C14.6512 53.0861 13.6255 57.0332 12.5841 60.9804C12.3742 61.5444 12.3177 62.1603 12.421 62.7571C12.5243 63.354 12.7832 63.9075 13.1679 64.354C13.5753 64.7828 14.091 65.0751 14.6516 65.195C15.2123 65.3148 15.7935 65.257 16.3238 65.0287C19.9374 63.8985 23.5667 62.8358 27.1802 61.6551C27.8301 61.4375 28.4241 61.0623 28.9159 60.5587C31.4564 57.8935 33.9496 55.1778 36.6479 52.2933M37.5789 71H6.01978C4.44183 71 4 70.5445 4 68.824C4 53.6427 4 16.7016 4 6.59767C4 5.90872 4.25602 5.24799 4.71175 4.76083C5.16747 4.27367 5.78556 4 6.43005 4H68.57C69.2144 4 69.8325 4.27367 70.2883 4.76083C70.744 5.24799 71 5.90872 71 6.59767C71 16.7185 71 53.6259 71 68.9084C71 70.5952 70.5424 71 69.0591 71H37.5" fill="#BA975C"/>
<path d="M26.1543 37.0271L23.2193 33.8559C19.9477 30.3698 16.6761 26.8725 13.4045 23.3639C12.4103 22.3012 12.3946 21.6771 13.4045 20.547L20.9944 12.4672C21.1414 12.2577 21.332 12.0876 21.5511 11.9705C21.7702 11.8534 22.0118 11.7924 22.2568 11.7924C22.5018 11.7924 22.7434 11.8534 22.9625 11.9705C23.1816 12.0876 23.3722 12.2577 23.5192 12.4672L26.3753 15.4528L23.9294 17.9661C23.6718 18.2134 23.4293 18.4783 23.2036 18.7589C23.07 18.9001 22.9639 19.0683 22.8915 19.2536C22.8192 19.4389 22.7819 19.6377 22.7819 19.8385C22.7819 20.0393 22.8192 20.2381 22.8915 20.4234C22.9639 20.6088 23.07 20.7769 23.2036 20.9181C23.3332 21.0625 23.4887 21.1773 23.6609 21.2558C23.8331 21.3343 24.0184 21.3748 24.2056 21.3748C24.3928 21.3748 24.578 21.3343 24.7502 21.2558C24.9224 21.1773 25.078 21.0625 25.2076 20.9181C26.2175 19.8722 27.18 18.7589 28.0952 17.73L31.2511 21.1036C30.6515 21.694 29.9099 22.335 29.2471 23.0434C29.0077 23.2816 28.8579 23.605 28.826 23.953C28.794 24.3009 28.8821 24.6493 29.0736 24.9327C29.2211 25.2243 29.4607 25.4505 29.7497 25.5709C30.0386 25.6914 30.3582 25.6984 30.6515 25.5905C30.9786 25.4759 31.2722 25.2724 31.5036 25.0001C32.1032 24.3929 32.6555 23.7519 33.1762 23.1615L36.1744 26.4002L26.1543 37.1114" fill="#BA975C"/>
<path d="M38.5732 50.2684L48.609 39.5572L51.5914 42.7453C51.0706 43.2682 50.4552 43.8754 49.8714 44.5164C49.6999 44.6488 49.5573 44.8193 49.4532 45.0161C49.3491 45.213 49.2861 45.4315 49.2684 45.6568C49.2507 45.8821 49.2788 46.1089 49.3507 46.3215C49.4227 46.5341 49.5367 46.7276 49.6851 46.8887C49.8335 47.0498 50.0128 47.1747 50.2105 47.2549C50.4083 47.335 50.62 47.3685 50.831 47.3531C51.042 47.3376 51.2474 47.2736 51.4331 47.1654C51.6188 47.0572 51.7805 46.9074 51.907 46.7261L53.6111 44.955L56.6408 48.1768C55.8045 49.0708 54.8735 50.0323 53.9583 51.0275C53.0431 52.0227 53.1062 52.7143 53.7216 53.4228C54.337 54.1312 55.2207 54.0806 56.0254 53.2035C56.8302 52.3263 57.8085 51.2637 58.629 50.3697C59.8125 51.5336 60.9802 52.5962 62.0216 53.7433C62.5108 54.2999 62.2899 55.1096 61.6587 55.7843C59.5758 58.0277 57.4771 60.2543 55.3469 62.5315C54.8262 63.105 54.3054 63.6786 53.7689 64.2183C53.6357 64.3914 53.4683 64.5309 53.2787 64.6266C53.089 64.7223 52.882 64.7719 52.6723 64.7719C52.4626 64.7719 52.2555 64.7223 52.0659 64.6266C51.8762 64.5309 51.7088 64.3914 51.5756 64.2183L38.5417 50.2853" fill="#BA975C"/>
<path d="M47.4885 29.555L50.4077 32.6924L27.6693 56.9825C27.1959 55.7848 26.6279 54.4523 26.0914 53.0691C26.0914 52.8498 26.2334 52.4112 26.4385 52.1919C30.0047 48.346 33.6025 44.517 37.1844 40.6711L46.9362 30.2466C47.1206 30.03 47.2894 29.7988 47.4411 29.555" fill="#BA975C"/>
<path d="M19.7954 48.6322L42.4864 24.3759L45.4056 27.4797C45.2749 27.6589 45.1326 27.828 44.9795 27.9857C38.1522 35.3065 31.3144 42.616 24.4661 49.9142C24.3231 50.1274 24.1083 50.2729 23.867 50.3201C23.6256 50.3673 23.3765 50.3125 23.1722 50.1672C22.0676 49.5937 20.8999 49.1045 19.7954 48.5985" fill="#BA975C"/>
<path d="M57.8083 25.0845L49.7923 16.5155C50.5024 15.7227 51.1967 14.8287 51.9857 14.1202C52.5019 13.6583 53.1596 13.4165 53.8324 13.4414C54.5052 13.4664 55.1457 13.7562 55.6307 14.2551C57.0825 15.7564 58.5184 17.2745 59.907 18.8433C60.3911 19.3834 60.6614 20.1025 60.6614 20.8506C60.6614 21.5986 60.3911 22.3177 59.907 22.8579C59.2443 23.6338 58.5184 24.3423 57.8083 25.0845Z" fill="#BA975C"/>
<path d="M55.4889 27.446L52.7117 30.3811L44.8219 21.947L47.5675 18.9951L55.4573 27.4292" fill="#BA975C"/>
<path d="M18.0755 51.247C19.7481 52.0061 21.3419 52.7314 22.9356 53.4905C23.0075 53.5258 23.0715 53.5772 23.1233 53.6412C23.175 53.7052 23.2132 53.7804 23.2354 53.8616C23.9139 55.5484 24.5767 57.2352 25.2868 58.922L22.1309 59.9004C21.6881 58.6973 21.0183 57.6046 20.1631 56.6904C19.3079 55.7762 18.2857 55.0602 17.1603 54.5869C17.4443 53.4736 17.7441 52.3941 18.0597 51.2133" fill="#BA975C"/>
<path d="M16.3398 57.6739C17.6665 58.2629 18.7253 59.3827 19.2905 60.7945L15.2036 62.0428C15.5981 60.5078 15.9611 59.1414 16.3398 57.6739Z" fill="#BA975C"/>
</svg>
