<svg width="75" height="75" viewBox="0 0 75 75" fill="none" xmlns="http://www.w3.org/2000/svg">
<path d="M59.616 66.2162C59.8635 64.5697 60.6265 63.044 61.7955 61.8583C62.9644 60.6725 64.4791 59.8876 66.1221 59.6164C66.1221 61.9161 63.5228 65.7121 59.616 66.2162ZM56.9222 56.9387C55.2757 56.6936 53.7516 55.9259 52.5746 54.749C51.3975 53.5721 50.6298 52.0482 50.3846 50.402C52.0301 50.6495 53.5529 51.4179 54.7295 52.5944C55.9061 53.7709 56.6746 55.2935 56.9222 56.9387ZM38.869 66.2004C39.0951 64.5417 39.8555 63.0018 41.0351 61.8138C42.2147 60.6258 43.7494 59.8544 45.4066 59.6164C45.1542 61.2645 44.3852 62.79 43.2104 63.9732C42.0355 65.1563 40.5154 65.9362 38.869 66.2004ZM36.128 56.9387C34.4834 56.6928 32.9615 55.9246 31.7872 54.7475C30.6128 53.5704 29.8481 52.0469 29.6062 50.402C31.2497 50.6503 32.7703 51.4193 33.9442 52.5959C35.1182 53.7725 35.8836 55.2948 36.128 56.9387ZM18.0591 66.1847C18.0591 63.3495 21.5878 59.7582 24.6281 59.6322C24.3678 61.279 23.5915 62.8008 22.411 63.9783C21.2305 65.1558 19.7067 65.9284 18.0591 66.1847ZM15.3495 56.9387C13.704 56.6912 12.1812 55.9228 11.0046 54.7463C9.828 53.5698 9.0595 52.0472 8.81192 50.402C10.4574 50.6495 11.9802 51.4179 13.1568 52.5944C14.3334 53.7709 15.1019 55.2935 15.3495 56.9387ZM29.6062 8.83457C31.2507 9.08047 32.7726 9.84869 33.947 11.0258C35.1214 12.2029 35.886 13.7264 36.128 15.3713C34.4844 15.123 32.9638 14.3541 31.7899 13.1774C30.6159 12.0008 29.8505 10.4785 29.6062 8.83457ZM50.3373 8.83457C51.9869 9.079 53.5163 9.84056 54.7053 11.0096C55.8943 12.1786 56.6816 13.6948 56.9537 15.3398C54.5592 15.3398 50.8414 12.6621 50.3373 8.83457ZM59.6317 45.4089C59.8737 43.7639 60.6383 42.2404 61.8127 41.0633C62.9871 39.8862 64.509 39.118 66.1536 38.8721C65.9116 40.5171 65.147 42.0406 63.9726 43.2177C62.7982 44.3947 61.2763 45.163 59.6317 45.4089ZM56.9379 36.2102C55.2903 35.9538 53.7665 35.1813 52.586 34.0038C51.4055 32.8262 50.6292 31.3045 50.3689 29.6577C53.1887 29.5631 56.7647 33.1229 56.9379 36.2102ZM36.1437 36.2102C34.4967 35.9499 32.9748 35.1737 31.7971 33.9933C30.6194 32.813 29.8467 31.2894 29.5904 29.6419C32.4575 29.6419 36.0177 33.1702 36.1437 36.2102ZM45.4066 38.8564C45.1512 40.5016 44.3808 42.0235 43.2062 43.2036C42.0316 44.3837 40.5132 45.1613 38.869 45.4246C39.0933 43.7668 39.8535 42.2277 41.0338 41.0419C42.214 39.8561 43.7496 39.0886 45.4066 38.8564ZM15.3968 36.1787C13.7472 35.9342 12.2178 35.1727 11.0288 34.0036C9.83982 32.8346 9.05257 31.3184 8.78043 29.6734C11.3482 29.3426 14.9714 32.8236 15.3968 36.1787ZM24.6124 38.8406C24.36 40.4887 23.591 42.0141 22.4162 43.1973C21.2413 44.3805 19.7212 45.1604 18.0748 45.4246C18.3034 43.7669 19.0646 42.2283 20.2437 41.0408C21.4229 39.8532 22.9561 39.0811 24.6124 38.8406ZM66.1536 18.0648C65.914 19.7107 65.1501 21.2355 63.9753 22.4131C62.8005 23.5906 61.2773 24.358 59.6317 24.6015C59.6317 21.7191 63.2077 18.1435 66.1536 18.0648ZM45.4066 18.0648C45.1542 19.7129 44.3852 21.2383 43.2104 22.4215C42.0355 23.6047 40.5154 24.3845 38.869 24.6488C39.0951 22.9901 39.8555 21.4501 41.0351 20.2621C42.2147 19.0742 43.7494 18.3028 45.4066 18.0648ZM24.6124 18.0648C24.36 19.7129 23.591 21.2383 22.4162 22.4215C21.2413 23.6047 19.7212 24.3845 18.0748 24.6488C18.3009 22.9901 19.0613 21.4501 20.2409 20.2621C21.4205 19.0742 22.9551 18.3028 24.6124 18.0648ZM15.3495 15.3713C12.4982 15.3713 8.9222 11.8431 8.79618 8.80307C10.4432 9.06335 11.9651 9.83956 13.1428 11.0199C14.3205 12.2003 15.0932 13.7239 15.3495 15.3713ZM70.974 17.104V9.03934C71.0183 8.36668 70.9182 7.69232 70.6803 7.06156C70.4424 6.4308 70.0723 5.85823 69.5948 5.3823C69.1173 4.90637 68.5435 4.53811 67.912 4.30222C67.2804 4.06634 66.6056 3.96831 65.933 4.01471H9.00097C7.97375 3.93224 6.94869 4.19826 6.09124 4.76982C5.23379 5.34138 4.59397 6.18515 4.27502 7.16495C4.09236 7.76201 4.00205 8.38349 4.00721 9.00784V66.0114C3.97037 66.6774 4.07495 67.3437 4.3141 67.9664C4.55325 68.5891 4.92155 69.1541 5.39475 69.6242C5.86796 70.0944 6.43535 70.4591 7.05961 70.6943C7.68388 70.9295 8.35087 71.0298 9.01672 70.9888H65.9488C66.6214 71.0352 67.2961 70.9372 67.9277 70.7013C68.5593 70.4654 69.1331 70.0971 69.6106 69.6212C70.088 69.1453 70.4582 68.5727 70.696 67.9419C70.9339 67.3112 71.0341 66.6368 70.9898 65.9642V17.1355" fill="#BA975C"/>
</svg>
