<svg width="75" height="75" viewBox="0 0 75 75" fill="none" xmlns="http://www.w3.org/2000/svg">
<path d="M25.8554 4L23.6967 4.89816C16.5127 7.922 10.5335 13.2417 6.6945 20.0251C5.74906 21.6008 5.11877 23.4286 4.26787 25.1462C4.18909 25.3353 4.09454 25.5243 4 25.7292V7.52962C4 6.59351 4.37187 5.69573 5.03381 5.0338C5.69574 4.37187 6.59352 4 7.52964 4H25.8554Z" fill="#BA975C"/>
<path d="M71 7.52962V25.5243H70.8897L70.5115 24.5632C67.4153 16.649 61.5535 10.1266 54.0136 6.20601C52.4379 5.37088 50.7676 4.74059 49.1446 4H67.4704C68.4065 4 69.3043 4.37187 69.9662 5.0338C70.6281 5.69573 71 6.59351 71 7.52962Z" fill="#BA975C"/>
<path d="M4 49.2866C4.28363 49.9641 4.55151 50.6417 4.8509 51.3193C6.75675 55.7836 9.55789 59.8097 13.0812 63.1487C16.6045 66.4877 20.7752 69.0687 25.3354 70.7321L25.6348 70.8424C25.6348 70.8424 25.6348 70.8424 25.8397 71H7.52964C6.59352 71 5.69574 70.6281 5.03381 69.9662C4.37187 69.3043 4 68.4065 4 67.4704V49.2866Z" fill="#BA975C"/>
<path d="M43.3935 31.4647V68.4942L39.5014 68.9669V47.4898H35.5148V68.9669L31.607 68.5099V31.4963H6.50555L7.51402 27.5727H67.4706L68.4949 31.4647H43.3935Z" fill="#BA975C"/>
<path d="M6.11151 35.4359H27.636C27.636 36.6177 27.636 37.7995 27.636 38.9655C27.636 39.1074 27.4942 39.2649 27.3839 39.391L11.7054 55.1482L11.5478 55.2585C8.17572 51.8865 5.24486 41.2031 6.08 35.5147" fill="#BA975C"/>
<path d="M47.3171 35.4359H68.9361C69.416 42.4724 67.4878 49.4629 63.4683 55.2584L62.9641 54.77L47.7268 39.5485C47.586 39.4187 47.475 39.2599 47.4016 39.0831C47.3281 38.9063 47.2939 38.7156 47.3013 38.5243C47.3013 37.5158 47.3013 36.4916 47.3013 35.3728" fill="#BA975C"/>
<path d="M29.9995 17.4567L22.4202 9.86173C27.0327 7.31528 32.2155 5.97965 37.4842 5.97965C42.753 5.97965 47.9357 7.31528 52.5482 9.86173L44.969 17.3937C44.5024 15.7647 43.5045 14.3385 42.1339 13.342C40.7634 12.3455 39.099 11.8359 37.4054 11.8944C35.7283 11.8742 34.0915 12.4086 32.7494 13.4145C31.4073 14.4203 30.435 15.8414 29.9837 17.4567" fill="#BA975C"/>
<path d="M70.9843 49.302V67.4227C70.9843 68.3589 70.6125 69.2566 69.9505 69.9186C69.2886 70.5805 68.3908 70.9524 67.4547 70.9524H49.2392C54.2327 69.1644 58.7704 66.2972 62.529 62.5549C66.2876 58.8127 69.1746 54.2876 70.9843 49.302Z" fill="#BA975C"/>
<path d="M16.8421 61.3404L14.0845 58.5356L27.6358 44.9372V45.5675C27.6358 47.1432 27.6358 48.7189 27.6358 50.2001L24.4844 53.5091L17.3778 60.6314C17.1989 60.8495 17.0455 61.0874 16.9209 61.3404" fill="#BA975C"/>
<path d="M60.9155 58.5676L58.3155 61.1833L57.764 60.679C54.4234 57.3227 51.0671 53.9822 47.7423 50.6259C47.497 50.37 47.3517 50.0345 47.3326 49.6805C47.3326 48.1048 47.3326 46.5291 47.3326 44.9533C51.8077 49.4284 56.3143 53.9507 60.9312 58.5518" fill="#BA975C"/>
<path d="M15.8811 14.6203L18.7804 12.1779L30.2202 23.6019H24.9731L21.538 20.2613L15.8811 14.6203Z" fill="#BA975C"/>
<path d="M44.6382 23.6337C48.4987 19.7574 52.2963 15.9757 56.1411 12.131L59.1507 14.6206L50.3108 23.4131C50.1925 23.5313 50.0363 23.6038 49.8696 23.618H44.6382" fill="#BA975C"/>
<path d="M37.5001 15.7864C38.5355 15.7945 39.5263 16.2084 40.2599 16.939C40.9935 17.6697 41.4113 18.6588 41.4237 19.6941C41.3702 20.7243 40.9358 21.6978 40.205 22.4257C39.4741 23.1536 38.4989 23.584 37.4686 23.6334C36.452 23.5694 35.4942 23.1346 34.7769 22.4114C34.0595 21.6882 33.6324 20.727 33.5765 19.7099C33.5888 18.6731 34.0061 17.6823 34.7393 16.9491C35.4725 16.2159 36.4633 15.7986 37.5001 15.7864Z" fill="#BA975C"/>
<path d="M20.0093 63.6572C22.5777 61.0887 25.1147 58.5361 27.6516 56.0149V67.3444C24.9266 66.5237 22.3476 65.2794 20.0093 63.6572Z" fill="#BA975C"/>
<path d="M47.3484 67.4071V56.0619C49.8538 58.5673 52.4065 61.1357 54.975 63.6884C52.6214 65.2822 50.0536 66.5343 47.3484 67.4071Z" fill="#BA975C"/>
<path d="M61.9082 17.6614C63.4275 19.4836 64.7284 21.4773 65.7845 23.6018H55.9992L61.9397 17.6614" fill="#BA975C"/>
<path d="M19.1741 23.6179H9.34156C10.3692 21.4624 11.6493 19.4365 13.1548 17.5829L19.1741 23.6179Z" fill="#BA975C"/>
</svg>
