<svg width="75" height="75" viewBox="0 0 75 75" fill="none" xmlns="http://www.w3.org/2000/svg">
<path d="M40.2838 28.6764C39.4188 31.3523 40.0793 34.0598 40.2838 36.7515C40.4382 39.4378 39.6974 42.0992 38.1788 44.3135C36.6603 46.5278 34.4508 48.1683 31.9009 48.975C31.071 49.1487 30.2144 49.1487 29.3845 48.975C21.1903 47.55 13.9556 50.0516 7.36565 55.1025C6.3119 55.91 5.27386 56.6859 4.06282 57.6834V56.6542C4.06282 48.5475 4.06282 40.4565 4.06282 32.3498C4.02447 32.0998 4.0722 31.8442 4.19808 31.6253C4.32396 31.4064 4.52042 31.2374 4.75485 31.1464C8.15203 29.5631 11.502 27.8214 14.9779 26.3964C16.6459 25.6907 18.4418 25.3431 20.2508 25.3758C22.0599 25.4085 23.8422 25.8208 25.484 26.5864C28.5948 28.112 31.996 28.9437 35.4554 29.0248C37.0281 29.0248 38.6009 28.8506 40.3782 28.7398" fill="#BA975C"/>
<path d="M4.00003 64.1748C4.00465 63.9664 4.08919 63.7678 4.23595 63.6207C7.52852 60.7418 11.0829 58.1813 14.8522 55.9731C19.0934 53.7595 23.9374 53.0033 28.6454 53.8197C31.382 54.2631 34.1186 54.6431 36.871 54.9598C39.9446 55.2677 43.0481 54.917 45.9773 53.9306L46.7008 53.7406C44.5776 59.5515 43.6968 65.2357 47.0783 70.8883H7.91624C7.40064 70.8883 6.8901 70.7858 6.41393 70.5866C5.93777 70.3875 5.50535 70.0957 5.14149 69.7279C4.77763 69.3601 4.4895 68.9236 4.29362 68.4435C4.09774 67.9633 3.99796 67.449 4.00003 66.9299V64.1748Z" fill="#BA975C"/>
<path d="M27.5445 4.00765C28.7714 3.94958 29.9915 4.22284 31.0783 4.79912C32.1651 5.37539 33.079 6.23372 33.7255 7.28519C34.8893 9.05854 35.9588 10.8952 36.9654 12.7794C38.7354 16.6224 41.9058 19.6328 45.8201 21.187C45.0966 21.567 44.5619 21.852 44.0271 22.1053C41.6343 23.2647 39.0238 23.8983 36.369 23.9638C33.7143 24.0293 31.0761 23.5253 28.6297 22.4853C26.101 21.2518 23.3635 20.5105 20.5614 20.3003C17.0761 20.3589 13.6438 21.1688 10.4956 22.6753C8.35664 23.6254 6.24913 24.702 4.03152 25.842V8.21936C4.02945 7.66835 4.1352 7.12232 4.34274 6.61246C4.55029 6.10259 4.85556 5.63888 5.24112 5.24778C5.62668 4.85669 6.08499 4.54588 6.58986 4.33309C7.09474 4.12031 7.6363 4.00973 8.18364 4.00765H27.5445Z" fill="#BA975C"/>
<path d="M70.7955 13.6346C70.7955 13.9988 70.7955 14.268 70.7955 14.5371V31.3998C70.8253 31.6126 70.7971 31.8296 70.714 32.0276C70.631 32.2256 70.496 32.3971 70.3237 32.524C64.4573 36.7199 58.6223 40.9791 52.7244 45.1908C49.586 47.5553 45.9565 49.1739 42.1082 49.925C41.3532 50.0517 40.5354 50.0992 39.6546 50.1942C39.8906 49.9092 39.9692 49.7825 40.0793 49.6717C42.0304 47.6596 43.4763 45.2078 44.2969 42.52C45.1176 39.8323 45.2892 36.9861 44.7976 34.2182C44.7976 33.9648 44.7976 33.7273 44.7032 33.474C44.4232 32.1403 44.578 30.7513 45.1447 29.5133C45.7114 28.2753 46.6597 27.2544 47.8488 26.6023C50.3233 25.0928 52.8187 23.6467 55.3352 22.2639C60.2894 19.5088 65.2751 16.8013 70.2451 14.0938L71 13.698" fill="#BA975C"/>
<path d="M54.2028 70.9833C53.81 70.9096 53.439 70.7472 53.1176 70.5083C52.955 70.3656 52.8074 70.2064 52.6772 70.0333C49.5317 67.1516 49.0126 63.4465 49.9248 59.3457C50.572 56.3888 51.8255 53.6006 53.6051 51.1597C54.1717 50.3858 54.8565 49.7071 55.634 49.1489C60.3523 45.6813 65.2279 42.2613 70.0249 38.8254L70.8113 38.2871V65.9482C70.8114 66.6196 70.6785 67.2842 70.4205 67.9033C70.1625 68.5224 69.7845 69.0835 69.3086 69.5537C68.8326 70.024 68.2684 70.3941 67.6487 70.6422C67.0291 70.8904 66.3665 71.0117 65.6998 70.9991L54.2028 70.9833Z" fill="#BA975C"/>
<path d="M70.8114 7.69694C70.8114 7.8711 70.5598 8.09277 70.3868 8.18777C65.4168 10.8478 60.4783 13.5712 55.4454 16.1045C53.1177 17.2361 50.4517 17.4424 47.9795 16.6823C45.5073 15.9222 43.4108 14.2515 42.1083 12.0036C40.5356 9.39112 38.9628 6.76276 37.4687 4.00773H68.2164C68.9088 4.00773 69.5729 4.28465 70.0625 4.77756C70.5521 5.27047 70.8272 5.93901 70.8272 6.63609L70.8114 7.69694Z" fill="#BA975C"/>
</svg>
