<svg width="55" height="55" viewBox="0 0 55 55" fill="none" xmlns="http://www.w3.org/2000/svg">
<path d="M31.7072 10.0548C32.9507 9.80524 34.0918 9.19136 34.9855 8.29125C35.8791 7.39113 36.4849 6.24547 36.7258 5C36.971 6.24426 37.5799 7.38771 38.4754 8.28551C39.3709 9.1833 40.5127 9.79503 41.756 10.0432C40.5098 10.2995 39.3677 10.92 38.4743 11.826C37.5809 12.7321 36.9764 13.883 36.7375 15.1329C36.497 13.8829 35.8904 12.7327 34.9947 11.8284C34.099 10.9242 32.9546 10.3068 31.7072 10.0548Z" fill="#C3AD79"/>
<path d="M42.6875 13.129C42.833 14.0778 43.2679 14.9585 43.9328 15.6506C44.5977 16.3428 45.46 16.8126 46.402 16.9959C45.4665 17.1904 44.6084 17.6547 43.9338 18.3316C43.2592 19.0084 42.7976 19.8681 42.606 20.8044C42.4167 19.8584 41.9445 18.9921 41.2521 18.3204C40.5597 17.6486 39.6797 17.203 38.7286 17.0425C41.2087 15.8777 41.2087 15.8777 42.6875 13.129Z" fill="#C3AD79"/>
<path d="M46.7397 7.03823C46.9077 7.83983 47.3055 8.57511 47.8845 9.15425C48.4635 9.73339 49.1986 10.1313 50 10.2994C49.2113 10.4397 48.4847 10.8186 47.9183 11.3852C47.3519 11.9517 46.973 12.6785 46.8328 13.4674C46.5042 12.7484 46.0897 12.0718 45.5985 11.4525C44.9756 10.9573 44.2954 10.5389 43.5725 10.2062C44.3591 10.0613 45.0832 9.6808 45.6488 9.11507C46.2144 8.54933 46.5948 7.82508 46.7397 7.03823Z" fill="#C3AD79"/>
<path d="M24.5461 35.8293C25.1877 35.8316 25.8155 35.6438 26.3505 35.2897C26.8855 34.9355 27.3037 34.4309 27.5523 33.8393C27.801 33.2478 27.869 32.5959 27.7478 31.9657C27.6265 31.3356 27.3215 30.7555 26.8711 30.2985C26.4207 29.8415 25.8452 29.5282 25.217 29.3979C24.5888 29.2677 23.9362 29.3264 23.3413 29.5666C22.7464 29.8069 22.236 30.2179 21.8743 30.7479C21.5127 31.2779 21.316 31.9032 21.3091 32.5448C21.306 33.4088 21.6445 34.239 22.2509 34.8543C22.8574 35.4696 23.6824 35.8201 24.5461 35.8293ZM11.4815 36.6562C12.255 38.6636 13.4862 40.4627 15.077 41.9104C16.6679 43.3581 18.5746 44.4145 20.6454 44.9955C21.207 43.8037 21.3854 42.4671 21.156 41.1697C20.9266 39.8723 20.3007 38.6779 19.3645 37.7511C18.342 36.7302 17.0144 36.0709 15.5833 35.8734C14.1522 35.6758 12.6957 35.9506 11.435 36.6562M37.6224 36.6562C36.3406 35.9208 34.8495 35.6359 33.387 35.847C31.9244 36.0581 30.5747 36.753 29.5531 37.821C28.644 38.7538 28.0444 39.9442 27.836 41.2301C27.6277 42.516 27.8206 43.8349 28.3887 45.0072C30.4581 44.3983 32.3629 43.3285 33.96 41.8782C35.5572 40.4279 36.8053 38.6346 37.6107 36.633M38.3792 29.307C37.8777 25.9825 36.2007 22.9482 33.6527 20.7553C31.1048 18.5624 27.855 17.3564 24.4937 17.3564C21.1325 17.3564 17.8827 18.5624 15.3348 20.7553C12.7868 22.9482 11.1098 25.9825 10.6082 29.307C11.6329 29.307 12.6576 29.307 13.6706 29.307C14.3436 29.313 15.0163 29.278 15.685 29.2021C17.5711 28.9274 19.3078 28.0198 20.6105 26.6281C21.093 26.1101 21.677 25.697 22.326 25.4145C22.9751 25.132 23.6753 24.9861 24.3831 24.9859C25.132 24.9582 25.8781 25.0915 26.5711 25.3768C27.2641 25.6621 27.8879 26.0928 28.4003 26.6398C29.3331 27.6174 30.4815 28.3633 31.7538 28.8178C33.9196 29.5981 36.1552 29.2021 38.3792 29.3303M23.3352 13.0244H25.664C26.2927 13.1059 26.9215 13.1642 27.5503 13.269C31.3108 13.9147 34.7813 15.7034 37.4896 18.3916C40.198 21.0799 42.0129 24.5373 42.6875 28.2937C42.804 28.9809 42.8738 29.668 42.967 30.3552V32.6846C42.8855 33.3019 42.8273 33.9192 42.7225 34.5365C41.9225 39.2738 39.3165 43.5159 35.453 46.3703C31.5895 49.2247 26.7697 50.4688 22.0077 49.8407C18.3834 49.3961 14.9862 47.8375 12.285 45.3799C10.3356 43.7012 8.76727 41.6253 7.68489 39.2913C6.6025 36.9572 6.03107 34.4189 6.00884 31.846C5.88957 28.0865 6.97929 24.3878 9.1178 21.2938C10.4946 19.1941 12.2902 17.4017 14.3921 16.0288C16.494 14.6559 18.8568 13.7322 21.3324 13.3156C21.9961 13.1991 22.6598 13.1292 23.3235 13.036" fill="#C3AD79"/>
<path d="M24.5461 31.4971C24.7613 31.4948 24.9722 31.5566 25.1521 31.6748C25.3319 31.7929 25.4725 31.9619 25.5559 32.1603C25.6393 32.3587 25.6618 32.5775 25.6204 32.7887C25.5789 32.9999 25.4756 33.1939 25.3234 33.3461C25.1713 33.4983 24.9773 33.6017 24.7661 33.6431C24.555 33.6845 24.3363 33.6621 24.138 33.5787C23.9396 33.4953 23.7706 33.3546 23.6525 33.1747C23.5344 32.9948 23.4726 32.7838 23.4749 32.5686C23.4808 32.2863 23.5956 32.0172 23.7952 31.8175C23.9948 31.6178 24.2639 31.503 24.5461 31.4971Z" fill="#C3AD79"/>
</svg>
