<svg width="55" height="55" viewBox="0 0 55 55" fill="none" xmlns="http://www.w3.org/2000/svg">
<path d="M17.7962 35.3669C17.366 34.6061 17.0055 33.9273 16.6333 33.2718C16.3322 32.7616 16.0022 32.2692 15.6449 31.7971C15.4995 31.6356 15.3015 31.5318 15.0867 31.5045L11.5981 31.1884C10.7376 31.1065 10.4352 31.3289 10.3073 32.1833C10.1561 33.3538 10.4585 34.5242 12.0283 34.5242C12.7377 34.5242 13.4354 34.7232 14.1448 34.8168L17.8195 35.3318M38.1466 35.203L38.2629 35.3201L40.3677 35.0275L44.275 34.4774C44.5257 34.4534 44.7655 34.3627 44.9699 34.2146C45.1742 34.0665 45.3358 33.8664 45.4378 33.6346C45.6823 33.0063 45.6823 32.3083 45.4378 31.68C45.3914 31.5046 45.2833 31.3522 45.1335 31.251C44.9838 31.1498 44.8027 31.1068 44.6238 31.1299C43.3214 31.2353 42.0306 31.3523 40.7398 31.4811C40.5368 31.5062 40.3504 31.6063 40.2165 31.762C39.4839 32.9324 38.7745 34.1028 38.0536 35.203M18.6684 31.8907C19.308 33.2484 19.8313 34.5008 20.4941 35.7297C20.4941 35.8468 20.7616 35.9287 20.9127 35.9404L23.7967 36.1043C25.32 36.1745 26.8434 36.3266 28.3668 36.2915C30.5879 36.2915 32.809 36.0692 35.0184 35.917C35.1189 35.8979 35.2138 35.8565 35.2963 35.7957C35.3788 35.735 35.4468 35.6564 35.4952 35.5659C36.0185 34.5242 36.5069 33.4591 37.007 32.4057L37.2279 31.8907C31.0499 32.6671 24.7999 32.6671 18.6219 31.8907M12.9819 24.517H42.9842C42.3562 23.0891 41.8213 21.6845 41.1236 20.3385C40.8899 19.8579 40.537 19.446 40.0991 19.1425C39.6611 18.8391 39.1529 18.6544 38.6234 18.6063C36.1581 18.3254 33.6811 18.0328 31.1926 17.8923C26.5878 17.6423 21.9698 17.8737 17.4125 18.5829C16.8703 18.6287 16.3481 18.8101 15.8932 19.1106C15.4383 19.411 15.0652 19.821 14.8076 20.3034C14.1448 21.5909 13.5633 23.0188 12.9819 24.517ZM45.1239 25.6055C45.3797 25.032 45.589 24.5404 45.81 24.0605C45.8428 23.9412 45.8997 23.83 45.977 23.7338C46.0544 23.6377 46.1507 23.5586 46.2598 23.5015C46.3689 23.4444 46.4885 23.4105 46.6112 23.402C46.7339 23.3934 46.857 23.4104 46.9728 23.4519L49.1125 23.8264C49.2389 23.8353 49.3623 23.8694 49.4755 23.9267C49.5886 23.9841 49.6893 24.0637 49.7716 24.1606C49.8539 24.2576 49.9161 24.3701 49.9547 24.4916C49.9933 24.6131 50.0074 24.7411 49.9963 24.8681C49.9963 25.6289 49.8103 26.0385 49.1939 26.1439C48.159 26.4014 47.1124 26.6238 46.0309 26.8695C46.0891 26.9871 46.1551 27.1005 46.2286 27.209L47.4961 29.1987C48.2073 30.2342 48.6107 31.4522 48.659 32.71C48.659 34.8285 48.659 36.947 48.659 39.0889H7.26055C7.2548 38.9875 7.2548 38.8859 7.26055 38.7846C7.26055 36.9353 7.26055 35.086 7.26055 33.225C7.27171 31.7508 7.71685 30.313 8.53971 29.0934L9.99331 26.8578L6.8768 26.1322C6.20233 25.98 5.98138 25.6523 6.00464 24.8564C5.99187 24.7266 6.00553 24.5955 6.04479 24.4712C6.08404 24.3468 6.14807 24.2319 6.23297 24.1333C6.31786 24.0347 6.42183 23.9546 6.53852 23.8978C6.65522 23.841 6.78219 23.8087 6.91168 23.803L9.0979 23.3465C9.29997 23.2891 9.51613 23.3101 9.70352 23.4055C9.89092 23.5009 10.0359 23.6636 10.1096 23.8615C10.3538 24.3648 10.5748 24.8798 10.8538 25.4884C10.9961 25.2707 11.1243 25.044 11.2376 24.8096C11.819 23.4402 12.4005 22.0825 12.9819 20.678C13.3372 19.6475 13.9869 18.7456 14.8496 18.0855C15.7124 17.4254 16.7496 17.0366 17.8311 16.9677C22.4278 16.3439 27.0722 16.1519 31.7042 16.3942C34.1463 16.5346 36.5767 16.8038 38.9955 17.155C39.8071 17.2727 40.5734 17.6042 41.2167 18.116C41.86 18.6278 42.3574 19.3017 42.6586 20.0693C43.3447 21.626 43.9842 23.2061 44.6587 24.7511C44.7634 24.9852 44.9029 25.2075 45.0657 25.5001" fill="#C3AD79"/>
<path d="M48.659 40.5746C48.7954 41.6382 48.5874 42.7177 48.066 43.6528C47.6483 44.266 47.0847 44.7641 46.4265 45.1014C45.7683 45.4388 45.0366 45.6047 44.2982 45.584H12.1912C11.4517 45.588 10.7156 45.4855 10.005 45.2797C9.21729 45.0489 8.5242 44.5693 8.02796 43.9118C7.53172 43.2543 7.25862 42.4536 7.24894 41.628C7.24894 41.2768 7.24894 40.9257 7.24894 40.5278L48.659 40.5746Z" fill="#C3AD79"/>
<path d="M43.0423 47.036C44.053 47.184 45.084 47.0986 46.0571 46.7863C47.0302 46.4741 47.92 45.943 48.659 45.2335V48.0074C48.659 48.3469 48.659 48.6863 48.659 49.0257C48.6624 49.1562 48.6389 49.286 48.5901 49.4069C48.5414 49.5279 48.4683 49.6374 48.3755 49.7286C48.2827 49.8198 48.1722 49.8907 48.0509 49.9369C47.9296 49.9831 47.8001 50.0037 47.6706 49.9972H44.0075C43.888 50.0067 43.7678 49.992 43.6541 49.9539C43.5403 49.9159 43.4353 49.8552 43.3453 49.7755C43.2553 49.6958 43.1821 49.5987 43.1301 49.4901C43.078 49.3814 43.0482 49.2633 43.0423 49.1427C43.0423 48.4756 43.0423 47.7968 43.0423 47.036Z" fill="#C3AD79"/>
<path d="M7.22566 45.1866C7.95668 45.9071 8.84196 46.4494 9.81357 46.772C10.7852 47.0946 11.8173 47.1889 12.8307 47.0476C12.8307 47.785 12.8307 48.4638 12.8307 49.1427C12.8158 49.3766 12.7121 49.5957 12.5411 49.7548C12.3701 49.9138 12.1449 50.0006 11.9121 49.9971H8.13271C8.01316 49.9987 7.89451 49.9761 7.78376 49.9308C7.673 49.8855 7.57239 49.8183 7.48785 49.7332C7.40331 49.6481 7.33655 49.5469 7.29152 49.4354C7.24649 49.3239 7.2241 49.2045 7.22566 49.0842C7.22566 47.8318 7.22566 46.5677 7.22566 45.1866Z" fill="#C3AD79"/>
<path d="M32.3671 9.30063C33.1786 9.14281 33.9246 8.74412 34.5091 8.15588C35.0935 7.56764 35.4896 6.81679 35.6464 6C35.8084 6.81641 36.2077 7.566 36.7936 8.15365C37.3795 8.74129 38.1257 9.1405 38.9374 9.30063C38.1244 9.46816 37.379 9.87444 36.7953 10.4682C36.2116 11.0619 35.8159 11.8164 35.6581 12.6364C35.4994 11.8148 35.1019 11.0592 34.516 10.4653C33.9301 9.87146 33.1822 9.46609 32.3671 9.30063Z" fill="#C3AD79"/>
<path d="M47.3333 6.72581C47.4229 7.35578 47.705 7.94208 48.1405 8.40346C48.576 8.86484 49.1433 9.17844 49.7638 9.30075C49.1541 9.42733 48.5946 9.73088 48.1544 10.1739C47.7142 10.617 47.4126 11.1801 47.2868 11.7938C47.1626 11.1733 46.8534 10.6056 46.4005 10.1665C45.9476 9.72737 45.3725 9.43761 44.7518 9.33587C46.3798 8.59849 46.3798 8.59849 47.3333 6.77261" fill="#C3AD79"/>
<path d="M42.833 11.1858C42.9646 11.8006 43.271 12.3637 43.7149 12.8064C44.1588 13.249 44.7211 13.5521 45.3332 13.6788C44.7301 13.7877 44.1744 14.079 43.7402 14.514C43.3059 14.949 43.0138 15.5069 42.9028 16.1133C42.6523 15.5617 42.336 15.0429 41.9608 14.5683C41.4788 14.1906 40.9561 13.8686 40.4026 13.6086C41.0053 13.5036 41.5616 13.215 41.9962 12.7818C42.4309 12.3485 42.7229 11.7914 42.833 11.1858Z" fill="#C3AD79"/>
</svg>
