<svg width="55" height="55" viewBox="0 0 55 55" fill="none" xmlns="http://www.w3.org/2000/svg">
<path d="M18.5355 32.2834H13.804L16.1698 28.1849C17.382 29.261 18.2119 30.6988 18.5355 32.2834ZM19.1861 22.7202L24.6627 32.3069H21.8594C21.4295 29.533 19.953 27.0268 17.7312 25.2994L19.1861 22.7202ZM21.9776 21.0949H34.5515C32.1858 24.4043 29.9265 27.6313 27.6081 30.929L21.9776 21.0949ZM13.2717 26.642C13.1771 26.8305 13.0943 26.9953 12.9997 27.1485C11.9233 29.0682 10.835 30.9879 9.75864 32.9193C9.54494 33.181 9.41699 33.5017 9.39204 33.838C9.36709 34.1744 9.44634 34.5103 9.6191 34.8004C9.79187 35.0905 10.0498 35.3209 10.3582 35.4605C10.6666 35.6001 11.0105 35.6421 11.3437 35.581H18.5237C18.1969 37.0915 17.4194 38.4684 16.2931 39.5313C15.1668 40.5941 13.7442 41.2934 12.2118 41.5374C10.6795 41.7814 9.10882 41.5587 7.70576 40.8985C6.30271 40.2384 5.13272 39.1715 4.34916 37.8379C3.56559 36.5042 3.205 34.9659 3.31467 33.4247C3.42434 31.8835 3.99914 30.4112 4.96374 29.2009C5.92833 27.9905 7.23771 27.0986 8.72023 26.642C10.2028 26.1854 11.7892 26.1854 13.2717 26.642ZM39.5905 27.8198C39.6615 27.9846 39.7443 28.1378 39.8153 28.3026C40.4304 29.6806 40.9981 31.0703 41.6487 32.4482C42.0035 33.2373 42.3348 34.0264 42.7251 34.8037C42.8755 35.0906 43.1134 35.3226 43.4046 35.4665C43.6957 35.6104 44.0252 35.6587 44.3456 35.6046C44.6627 35.5752 44.9617 35.4447 45.1983 35.2325C45.4348 35.0203 45.5963 34.7377 45.6586 34.4268C45.7001 33.9878 45.6267 33.5456 45.4457 33.1431C44.5822 31.1174 43.6714 29.1035 42.7842 27.0778C42.7133 26.9247 42.6541 26.7598 42.595 26.5949C44.3692 26.211 46.2229 26.4758 47.8171 27.3408C49.4113 28.2058 50.6396 29.6133 51.2772 31.3059C51.815 32.6408 51.9655 34.0993 51.7114 35.5152C51.4574 36.9311 50.809 38.2475 49.8402 39.3144C48.8714 40.3814 47.6211 41.1559 46.2318 41.5499C44.8424 41.9438 43.3698 41.9413 41.9818 41.5427C40.5938 41.144 39.3462 40.3652 38.381 39.295C37.4158 38.2249 36.772 36.9063 36.5227 35.4895C36.2735 34.0728 36.4289 32.6148 36.9713 31.2817C37.5137 29.9486 38.4212 28.7939 39.5905 27.9493M0.0591379 35.2041C0.30754 36.1228 0.473147 37.0767 0.804349 37.9718C1.651 40.1927 3.20354 42.0772 5.22549 43.3383C7.24744 44.5993 9.62797 45.1678 12.0044 44.957C14.3809 44.7463 16.6231 43.7679 18.3894 42.1709C20.1557 40.574 21.3493 38.4459 21.7884 36.111C21.7817 36.0444 21.7817 35.9773 21.7884 35.9108L21.8712 35.7341C23.4681 35.7341 25.0886 35.6752 26.6973 35.7341C27.1932 35.7728 27.6899 35.6705 28.1297 35.4391C28.5694 35.2076 28.9341 34.8566 29.1813 34.4268C31.7363 30.7288 34.3504 27.0778 36.9527 23.4033L37.3312 22.8851C37.6033 23.5093 37.828 24.0628 38.1001 24.6046C38.2539 24.9343 38.0055 25.0168 37.828 25.1345C36.5945 25.9971 35.5484 27.0987 34.7526 28.3733C33.6911 30.0824 33.125 32.0506 33.1171 34.06C33.1091 36.0695 33.6595 38.0421 34.7075 39.7595C35.7554 41.4769 37.26 42.8722 39.0549 43.7912C40.8497 44.7101 42.8649 45.1169 44.8775 44.9665C46.8901 44.8161 48.8217 44.1143 50.4587 42.9388C52.0957 41.7634 53.3742 40.16 54.1529 38.3061C54.9315 36.4522 55.18 34.4199 54.8708 32.4341C54.5617 30.4484 53.7068 28.5864 52.401 27.0542C51.125 25.52 49.4407 24.3748 47.541 23.7499C45.6414 23.125 43.6034 23.0457 41.6605 23.5211C41.3648 23.5799 41.1519 23.6153 40.9981 23.2384C39.5945 20.0193 38.1789 16.8119 36.7516 13.6163C36.7516 13.4986 36.6807 13.3808 36.6215 13.2041C37.6151 13.2041 38.5614 13.2041 39.5077 13.2041C39.9344 13.2041 40.3435 13.0354 40.6452 12.735C40.9469 12.4346 41.1164 12.0272 41.1164 11.6024C41.1164 11.1776 40.9469 10.7702 40.6452 10.4698C40.3435 10.1695 39.9344 10.0007 39.5077 10.0007C37.7334 10.0007 35.9591 10.0007 34.1848 10.0007C33.903 9.99238 33.624 10.0579 33.3757 10.1908C33.1273 10.3237 32.9184 10.5192 32.7699 10.7577C32.6213 10.9963 32.5384 11.2695 32.5293 11.55C32.5202 11.8306 32.5853 12.1086 32.7181 12.3562C33.4396 14.0403 34.1966 15.7127 34.9418 17.3851L35.1784 17.9739H20.8184V16.0425C21.54 16.0425 22.2379 16.0425 22.9239 16.0425C23.1476 16.0615 23.3728 16.0342 23.5852 15.962C23.7977 15.8899 23.9928 15.7746 24.1581 15.6235C24.3235 15.4723 24.4555 15.2886 24.5458 15.084C24.6361 14.8794 24.6828 14.6584 24.6828 14.4349C24.6828 14.2114 24.6361 13.9903 24.5458 13.7857C24.4555 13.5811 24.3235 13.3974 24.1581 13.2463C23.9928 13.0951 23.7977 12.9798 23.5852 12.9077C23.3728 12.8356 23.1476 12.8082 22.9239 12.8273H17.0096C16.7855 12.8111 16.5605 12.8411 16.3485 12.9155C16.1366 12.9899 15.9424 13.107 15.7781 13.2596C15.6138 13.4121 15.4828 13.5968 15.3935 13.8021C15.3042 14.0074 15.2584 14.2288 15.259 14.4525C15.2601 14.6711 15.3061 14.8871 15.3943 15.0873C15.4824 15.2875 15.6108 15.4676 15.7714 15.6165C15.9321 15.7655 16.1217 15.8801 16.3285 15.9534C16.5354 16.0266 16.7551 16.0569 16.9741 16.0425H17.4946C17.4946 16.9846 17.4946 17.9151 17.4946 18.8337C17.4619 18.9902 17.3975 19.1385 17.3053 19.2695C16.5719 20.5885 15.8149 21.9076 15.0934 23.2266C14.9278 23.5211 14.7976 23.627 14.431 23.5093C13.0666 23.0522 11.6248 22.8683 10.1888 22.9681C8.7527 23.0679 7.35063 23.4495 6.06327 24.091C4.7759 24.7324 3.62866 25.621 2.68755 26.7056C1.74643 27.7902 1.03004 29.0494 0.579602 30.4108C0.345519 31.1854 0.152059 31.9716 0 32.7662L0.0591379 35.2041Z" fill="#C3AD79"/>
</svg>
