<svg width="55" height="55" viewBox="0 0 55 55" fill="none" xmlns="http://www.w3.org/2000/svg">
<path d="M27.5229 5.53014C23.1767 5.52335 18.9262 6.80579 15.309 9.21523C11.6918 11.6247 8.87049 15.0528 7.20204 19.066C5.5336 23.0792 5.09295 27.4971 5.93585 31.7608C6.77875 36.0245 8.86733 39.9424 11.9373 43.0188C15.0074 46.0952 18.9209 48.192 23.1828 49.0438C27.4447 49.8956 31.8635 49.4641 35.8802 47.804C39.8969 46.144 43.3309 43.3298 45.7479 39.7177C48.1649 36.1055 49.4562 31.8576 49.4584 27.5114C49.4554 21.6905 47.1448 16.1081 43.0331 11.9878C38.9214 7.86749 33.3439 5.54529 27.5229 5.53014ZM27.5229 3C32.369 3.00453 37.105 4.44615 41.1317 7.14252C45.1584 9.83889 48.2951 13.6689 50.1449 18.1481C51.9947 22.6273 52.4746 27.5544 51.5239 32.3064C50.5732 37.0583 48.2346 41.4216 44.8039 44.8443C41.3731 48.2671 37.0044 50.5955 32.2502 51.5351C27.4961 52.4747 22.57 51.9833 18.0952 50.123C13.6203 48.2627 9.79767 45.1171 7.11072 41.0841C4.42378 37.0511 2.99323 32.3118 3.00002 27.4657C3.0182 20.9746 5.60793 14.7553 10.2021 10.1697C14.7963 5.58414 21.0204 3.00603 27.5115 3" fill="#C3AD79"/>
<path d="M24.5692 29.6064C25.9659 29.6064 27.3283 29.6064 28.6907 29.6064C29.809 29.5382 30.8635 29.0625 31.6547 28.2692C32.4458 27.476 32.9187 26.4202 32.9839 25.3017C33.0819 24.1679 32.7466 23.0391 32.0456 22.1426C31.3446 21.2461 30.3298 20.6486 29.2059 20.4704C27.6809 20.3753 26.1514 20.3753 24.6264 20.4704L24.5692 29.6064ZM24.5692 32.1479V37.586C24.5807 37.7958 24.5807 38.006 24.5692 38.2157C24.5393 38.5275 24.3944 38.817 24.1626 39.0277C23.9308 39.2384 23.6288 39.3551 23.3156 39.3551C23.0023 39.3551 22.7003 39.2384 22.4685 39.0277C22.2367 38.817 22.0918 38.5275 22.0619 38.2157C22.0506 38.0594 22.0506 37.9026 22.0619 37.7463V19.4286C22.0619 18.2837 22.4741 17.8029 23.6762 17.8029H28.3701C30.144 17.7903 31.8596 18.4362 33.1849 19.6154C34.5101 20.7947 35.351 22.4235 35.5447 24.1869C35.7384 25.9503 35.2712 27.7228 34.2336 29.1617C33.1959 30.6005 31.6615 31.6034 29.9271 31.9762C29.3774 32.0911 28.8172 32.1487 28.2556 32.1479C27.1108 32.1479 25.8743 32.1479 24.5921 32.1479" fill="#C3AD79"/>
</svg>
