<svg width="55" height="55" viewBox="0 0 55 55" fill="none" xmlns="http://www.w3.org/2000/svg">
<path d="M16.5123 32.9948C15.884 32.8338 15.2979 32.5486 14.7916 32.1575C14.2853 31.7664 13.8701 31.278 13.5728 30.7239C13.4894 30.6146 13.3738 30.5316 13.2409 30.4855C12.2993 30.1885 11.2906 30.1453 10.3251 30.3606C9.55056 30.5217 8.81936 30.8351 8.17782 31.2809C7.53628 31.7268 6.99838 32.2955 6.59818 32.9508C6.19798 33.6062 5.94421 34.3341 5.85292 35.0883C5.76163 35.8425 5.83482 36.6066 6.06785 37.3324C6.30089 38.0581 6.68869 38.7295 7.2067 39.3042C7.72471 39.8789 8.36164 40.3442 9.07717 40.6708C9.79269 40.9974 10.5712 41.1782 11.3634 41.2016C12.1557 41.2249 12.9443 41.0905 13.6795 40.8067C14.8851 40.3595 15.8907 39.5246 16.5242 38.445H15.9908C14.5566 38.445 13.1224 38.445 11.6882 38.445C11.2968 38.4691 10.9044 38.4161 10.5352 38.2892C10.1661 38.1623 9.82798 37.9643 9.54187 37.7073C9.25577 37.4503 9.02772 37.1398 8.87182 36.7951C8.71593 36.4503 8.63549 36.0786 8.63549 35.7029C8.63549 35.3271 8.71593 34.9554 8.87182 34.6107C9.02772 34.2659 9.25577 33.9554 9.54187 33.6984C9.82798 33.4414 10.1661 33.2434 10.5352 33.1165C10.9044 32.9896 11.2968 32.9366 11.6882 32.9607C13.2883 32.9607 14.8885 32.9607 16.5005 32.9607M39.021 32.1205C38.09 33.0851 37.5631 34.3448 37.5412 35.6584C37.5193 36.9721 38.004 38.2472 38.9025 39.2398C39.8399 40.3194 41.1746 41.0125 42.6306 41.1758C44.0865 41.339 45.5523 40.96 46.7246 40.1169C47.8969 39.2739 48.6861 38.0315 48.929 36.6467C49.1718 35.2618 48.8497 33.8406 48.0293 32.6769C46.5714 30.5763 43.3711 29.5657 41.4272 30.6104C41.522 30.758 41.605 30.8942 41.7117 31.0305L44.3904 34.8683C44.5294 35.0154 44.6334 35.1897 44.6953 35.379C44.7573 35.5683 44.7757 35.7682 44.7493 35.965C44.7229 36.1618 44.6523 36.3508 44.5424 36.519C44.4325 36.6871 44.2859 36.8305 44.1126 36.9392C43.9393 37.0479 43.7436 37.1194 43.5387 37.1487C43.3339 37.178 43.1248 37.1645 42.926 37.1091C42.7271 37.0536 42.5431 36.9576 42.3867 36.8275C42.2303 36.6975 42.1051 36.5365 42.0198 36.3557C41.0242 34.9591 40.0522 33.5512 39.0448 32.1205M3 18.6314V17.4959C3.16493 17.1502 3.44227 16.8649 3.79053 16.6828C4.13879 16.5006 4.53926 16.4313 4.93202 16.4854C7.16037 16.4854 9.38873 16.4854 11.6171 16.4854C12.2647 16.4771 12.9047 16.6207 13.4811 16.9037C14.0575 17.1868 14.5529 17.6006 14.924 18.109C15.1137 18.3702 15.3152 18.6314 15.4811 18.9039C15.5343 19.0117 15.6208 19.1012 15.729 19.1601C15.8372 19.219 15.9617 19.2445 16.0856 19.2331C19.847 19.2331 23.6043 19.2331 27.3578 19.2331C27.4812 19.2414 27.6044 19.2145 27.7119 19.1559C27.8195 19.0974 27.9065 19.0097 27.9623 18.9039C28.3416 18.3248 28.7564 17.7684 29.1476 17.1893C29.2946 16.9611 29.5033 16.7751 29.7516 16.6512C29.9999 16.5273 30.2785 16.47 30.5581 16.4854H34.6829V13.783C34.1732 13.783 33.6754 13.783 33.1894 13.783C32.8278 13.7655 32.487 13.6155 32.2377 13.3639C31.9884 13.1124 31.8496 12.7787 31.85 12.4318C31.8369 12.0929 31.9619 11.7624 32.1986 11.5102C32.4353 11.258 32.7651 11.104 33.1183 11.0806C35.0373 10.9036 36.9736 11.0186 38.8551 11.4212C40.6721 11.8779 42.3114 12.8302 43.574 14.1626C44.8365 15.495 45.6678 17.1501 45.9669 18.9266C46.153 20.3765 46.2204 21.8381 46.1684 23.2981C46.1858 23.4932 46.1591 23.6896 46.0901 23.874C46.0211 24.0583 45.9115 24.2263 45.7686 24.3664C45.6258 24.5065 45.453 24.6154 45.2623 24.6858C45.0715 24.7561 44.8671 24.7863 44.663 24.7741C43.9637 24.7741 43.2644 24.865 42.5769 24.9672C41.1337 25.1994 39.7474 25.6844 38.4877 26.3978L39.7915 28.2486L40.2182 28.101C41.4181 27.6503 42.7088 27.4651 43.994 27.5591C45.2791 27.6532 46.5255 28.0241 47.64 28.6442C48.7546 29.2642 49.7085 30.1175 50.4306 31.1402C51.1527 32.1629 51.6244 33.3286 51.8104 34.5504C51.8589 34.6816 51.9225 34.8073 52 34.9251V36.5715C51.9218 36.7088 51.8583 36.8534 51.8104 37.0029C51.5514 38.6309 50.7873 40.1466 49.6174 41.3532C48.4475 42.5597 46.9258 43.4014 45.2501 43.7687C43.5744 44.136 41.8221 44.0121 40.2208 43.413C38.6196 42.8139 37.2434 41.7674 36.2712 40.4093C35.3008 39.1027 34.7617 37.5474 34.7237 35.9443C34.6857 34.3412 35.1504 32.764 36.0578 31.4165C36.449 30.8375 36.9349 30.2811 37.3853 29.7474C36.9942 29.2024 36.6149 28.612 36.2001 28.0442C35.7022 28.5893 35.2163 29.0661 34.7896 29.5885C33.522 31.1661 32.6793 33.0184 32.336 34.9818C32.2367 36.008 31.7169 36.9547 30.8905 37.6144C30.064 38.2742 28.9983 38.5933 27.9267 38.5017C25.3546 38.5017 22.7707 38.5017 20.1986 38.5017C20.0467 38.4778 19.891 38.5103 19.7632 38.5926C19.6355 38.6749 19.5453 38.8008 19.5111 38.9446C18.8521 40.4697 17.7272 41.7683 16.2841 42.6701C14.8409 43.5719 13.1469 44.0348 11.4242 43.998C9.70161 43.9611 8.03083 43.4263 6.63112 42.4637C5.2314 41.5011 4.16812 40.1557 3.58079 38.6039C3.33188 37.9567 3.21335 37.2641 3.02371 36.5828V34.9137C3.02371 34.7888 3.10668 34.6526 3.13038 34.5277C3.36155 32.9699 4.06224 31.5105 5.14654 30.3286C6.23084 29.1467 7.65161 28.2936 9.23464 27.8739C9.91831 27.7038 10.6106 27.5674 11.3089 27.4652C10.6925 26.5909 10.1236 25.7279 9.48355 24.8763C9.36432 24.7645 9.21042 24.6928 9.04499 24.672C7.98796 24.5191 6.98292 24.1315 6.11026 23.54C5.2376 22.9485 4.52154 22.1696 4.01935 21.2656C3.6118 20.396 3.27881 19.496 3.02371 18.5746" fill="#C3AD79"/>
</svg>
