<svg width="55" height="55" viewBox="0 0 55 55" fill="none" xmlns="http://www.w3.org/2000/svg">
<path d="M51 51.3664H4V53H51V51.3664Z" fill="#C3AD79"/>
<path d="M35.6076 46.4542C36.9145 46.4542 38.1367 46.4542 39.371 46.4542C39.9811 46.4567 40.5755 46.2684 41.0651 45.9174C41.3781 45.7167 41.6047 45.413 41.7027 45.0631C41.8006 44.7132 41.7633 44.3408 41.5976 44.0155C41.5672 43.9451 41.5146 43.8858 41.4473 43.846C41.3799 43.8062 41.3012 43.7879 41.2225 43.7938H38.173C38.0312 43.8012 37.8974 43.8594 37.7979 43.9571C37.3744 44.4355 36.9629 44.914 36.5878 45.404L35.6923 46.4775M19.4892 46.4775C18.9326 45.8474 18.4364 45.3107 17.9524 44.7039C17.8435 44.5756 17.7588 44.4239 17.6377 44.3072C17.5167 44.1905 17.3473 43.7704 16.948 43.7821H13.7655C13.6807 43.7821 13.5355 43.7821 13.4992 43.8871C13.3609 44.0765 13.2721 44.2953 13.2405 44.5249C13.2089 44.7545 13.2354 44.9881 13.3177 45.2057C13.4629 45.5652 13.7148 45.8755 14.042 46.0976C14.3692 46.3197 14.7571 46.4437 15.1571 46.4542C16.5245 46.5475 17.904 46.4542 19.3803 46.4542M39.5283 41.4951V41.4134C39.8792 41.4134 40.2302 41.4134 40.5811 41.4134C40.8652 41.4188 41.147 41.3638 41.4065 41.2524C41.666 41.141 41.897 40.9758 42.0829 40.7687C42.2688 40.5615 42.4052 40.3175 42.4824 40.0538C42.5595 39.7902 42.5756 39.5134 42.5294 39.2431C42.5115 38.9736 42.4283 38.7119 42.2865 38.479C42.1447 38.2461 41.9482 38.0485 41.7128 37.9021C41.4775 37.7557 41.2098 37.6646 40.9313 37.6361C40.6527 37.6076 40.3712 37.6424 40.1092 37.7379C39.2908 38.0531 38.5245 38.4815 37.8342 39.0097C37.468 39.3045 37.1243 39.6243 36.8056 39.9665C36.3095 40.5033 36.4426 41.1334 37.2412 41.2267C38.0399 41.3201 38.7781 41.4018 39.5525 41.4951M15.4233 41.3901C15.778 41.4076 16.1334 41.4076 16.4882 41.3901C16.9856 41.3474 17.479 41.2694 17.9645 41.1567C18.0744 41.1369 18.177 41.0897 18.2622 41.0199C18.3473 40.95 18.4121 40.8599 18.45 40.7585C18.4879 40.6571 18.4977 40.5479 18.4783 40.4417C18.4589 40.3355 18.4111 40.2361 18.3396 40.1532C18.2181 39.9504 18.0719 39.7624 17.904 39.5931C17.1548 38.9042 16.2919 38.3403 15.3507 37.9246C14.971 37.7481 14.5607 37.6413 14.1406 37.6095C13.7335 37.6253 13.3453 37.7791 13.0442 38.0437C12.7432 38.3084 12.5487 38.667 12.4949 39.0564C12.4256 39.3167 12.4151 39.5883 12.464 39.8529C12.5129 40.1175 12.6202 40.3689 12.7784 40.5901C12.9367 40.8113 13.1424 40.9972 13.3816 41.1352C13.6207 41.2732 13.8878 41.3601 14.1648 41.3901H15.4717M20.6388 44.5872C20.6274 44.826 20.6661 45.0644 20.7526 45.2883C20.8392 45.5123 20.9718 45.717 21.1424 45.8903C21.3131 46.0636 21.5183 46.2018 21.7458 46.2967C21.9732 46.3916 22.2182 46.4412 22.466 46.4425C23.3252 46.4425 24.1844 46.4425 25.0435 46.4425C27.4637 46.4425 29.9807 46.4425 32.4493 46.4425C32.7103 46.4572 32.9717 46.4193 33.2167 46.3315C33.4618 46.2436 33.6853 46.1076 33.8731 45.9321C34.0608 45.7566 34.2086 45.5454 34.3072 45.3118C34.4058 45.0783 34.4531 44.8276 34.4459 44.5756L20.6388 44.5872ZM20.0337 40.0599C19.9916 40.8243 20.1853 41.5835 20.5904 42.2419C20.7386 42.5354 20.9665 42.7848 21.2499 42.9635C21.5332 43.1422 21.8615 43.2437 22.1998 43.257H32.8849C33.0537 43.27 33.2232 43.246 33.3811 43.187C33.9794 42.9301 34.4489 42.4565 34.6879 41.8685C34.9414 41.2975 35.0652 40.6808 35.051 40.0599H20.0337ZM16.4035 34.8324H38.6813C38.3303 34.459 38.0036 34.109 37.6648 33.7706C36.975 33.1055 36.2853 32.4521 35.6076 31.787L35.4866 31.6469C35.1835 31.2555 34.7913 30.9364 34.3403 30.7139C33.8893 30.4914 33.3915 30.3715 32.8849 30.3634C29.3515 30.3634 25.8059 30.3634 22.2724 30.3634C21.8523 30.3611 21.4359 30.4394 21.0474 30.5936C20.659 30.7479 20.3062 30.975 20.0095 31.2619C19.707 31.5302 19.4287 31.8336 19.1383 32.1253L17.3352 33.8756L16.4035 34.8441M11.1154 39.6398C11.2606 39.1031 11.3816 38.543 11.5752 38.0179C11.9006 37.1337 12.4351 36.3347 13.1362 35.6842C13.5476 35.3108 13.9228 34.9024 14.2737 34.5174C13.852 34.2972 13.4476 34.0476 13.0636 33.7706C12.769 33.5211 12.5443 33.2041 12.4101 32.8488C12.2044 32.2304 12.5433 31.8453 13.1725 31.5302C13.7393 31.2778 14.3685 31.1848 14.9877 31.2619C15.629 31.2619 15.9315 31.5302 16.1009 32.2887C16.1009 32.3704 16.1009 32.4637 16.1009 32.6271L17.0932 31.6819C17.0932 31.6236 17.19 31.5536 17.2505 31.4952C18.0129 30.7718 18.7389 30.025 19.5376 29.3482C20.0447 28.9793 20.6478 28.7532 21.2801 28.6948C21.5058 28.6829 21.7321 28.6829 21.9578 28.6948H32.9333C33.7396 28.6558 34.5374 28.8685 35.2083 29.3016C35.7249 29.6982 36.214 30.1269 36.6725 30.5851V30.6668C37.3502 31.3202 38.0157 31.9853 38.7055 32.6738C38.8144 32.347 38.887 32.0903 38.9838 31.8336C39.0434 31.6947 39.1416 31.5744 39.2676 31.4859C39.3935 31.3974 39.5424 31.3441 39.6977 31.3319C40.4056 31.1863 41.1437 31.2768 41.7912 31.5886C41.9835 31.6625 42.1528 31.7827 42.2832 31.9377C42.4135 32.0927 42.5004 32.2774 42.5356 32.474C42.5708 32.6707 42.5531 32.8728 42.4843 33.0609C42.4154 33.2491 42.2976 33.4171 42.1421 33.5489C41.7482 34.0178 41.203 34.3464 40.5932 34.4824C41.1014 34.9841 41.5734 35.4392 42.0332 35.9059C42.7562 36.6785 43.286 37.6006 43.5821 38.6013C43.7972 39.3809 43.887 40.1876 43.8484 40.9934C43.8484 42.1602 43.8484 43.327 43.8484 44.4939C43.8545 45.4383 43.5257 46.3564 42.9166 47.096C42.8439 47.2078 42.8061 47.3374 42.8077 47.4693C42.8077 48.0178 42.8077 48.5662 42.8077 49.1029C42.7649 49.4884 42.5888 49.8487 42.3079 50.126C42.0269 50.4033 41.6574 50.5813 41.2588 50.6315C40.4601 50.6315 39.6493 50.6315 38.8386 50.6315C38.6129 50.6315 38.3895 50.5886 38.181 50.5054C37.9725 50.4221 37.7831 50.3001 37.6235 50.1462C37.464 49.9923 37.3374 49.8097 37.251 49.6086C37.1647 49.4076 37.1202 49.1922 37.1202 48.9746C37.1202 48.8112 37.1202 48.6479 37.1202 48.4612H17.8556C17.8556 48.6245 17.8556 48.7879 17.8556 48.9512C17.8588 49.1718 17.8163 49.3907 17.7307 49.5952C17.645 49.7997 17.5179 49.9856 17.3567 50.1421C17.1955 50.2986 17.0036 50.4225 16.7921 50.5066C16.5806 50.5906 16.3539 50.6331 16.1251 50.6315C15.3265 50.6315 14.5278 50.6315 13.7049 50.6315C13.3121 50.58 12.9482 50.4043 12.67 50.1319C12.3919 49.8595 12.2154 49.5058 12.1681 49.1263C12.1681 48.5778 12.1681 48.0178 12.1681 47.4577C12.1752 47.3377 12.1412 47.2188 12.0713 47.1193C11.5969 46.5457 11.288 45.8614 11.1759 45.1357C11.1759 45.0773 11.1759 45.0306 11.1759 44.984L11.1154 39.6398Z" fill="#C3AD79"/>
<path d="M51 24.7398H4V26.3734H51V24.7398Z" fill="#C3AD79"/>
<path d="M35.6076 19.8383C36.9145 19.8383 38.1367 19.8383 39.371 19.8383C39.9821 19.847 40.5785 19.658 41.0651 19.3016C41.3811 19.0945 41.6057 18.7813 41.6951 18.4232C41.7846 18.0651 41.7326 17.6877 41.5492 17.3646C41.5226 17.291 41.4712 17.228 41.4032 17.1858C41.3353 17.1435 41.2546 17.1243 41.1741 17.1312H38.1246C37.9814 17.1428 37.8478 17.2052 37.7495 17.3063C37.326 17.773 36.9145 18.2631 36.5394 18.7415C36.1643 19.2199 35.9707 19.4299 35.6439 19.8267M19.4408 19.8267L17.904 18.0414C17.8089 17.9059 17.7037 17.7772 17.5894 17.6563C17.3715 17.458 17.2989 17.1196 16.8996 17.1196H13.7655C13.6675 17.1159 13.5719 17.1495 13.4992 17.2129C13.3608 17.4045 13.272 17.6252 13.2405 17.8567C13.2089 18.0882 13.2354 18.3236 13.3177 18.5431C13.4647 18.9005 13.7175 19.2083 14.0445 19.4282C14.3716 19.6481 14.7585 19.7705 15.1571 19.78C16.5245 19.885 17.904 19.78 19.3803 19.78M39.5525 14.8442H40.6053C40.8952 14.8527 41.1834 14.7983 41.4486 14.6849C41.7138 14.5716 41.9492 14.4023 42.1373 14.1894C42.3255 13.9766 42.4617 13.7257 42.5359 13.4553C42.61 13.1849 42.6202 12.9019 42.5657 12.6272C42.5471 12.3577 42.4636 12.096 42.3219 11.863C42.1802 11.63 41.9841 11.432 41.7492 11.2848C41.5143 11.1376 41.2471 11.0452 40.9687 11.0149C40.6903 10.9846 40.4085 11.0173 40.1455 11.1103C39.3244 11.4251 38.5574 11.8578 37.8705 12.3939C37.5045 12.6846 37.1608 13.0005 36.8419 13.339C36.3458 13.8757 36.4789 14.5058 37.2776 14.5992C38.0762 14.6925 38.8144 14.7859 39.5888 14.8676M15.4596 14.7742C15.8143 14.7917 16.1697 14.7917 16.5245 14.7742C17.0222 14.7276 17.5156 14.6457 18.0008 14.5292C18.1106 14.5115 18.2135 14.466 18.2991 14.3974C18.3847 14.3288 18.4499 14.2395 18.488 14.1387C18.5261 14.0378 18.5359 13.929 18.5162 13.8234C18.4965 13.7178 18.4481 13.6191 18.3759 13.5374C18.2576 13.329 18.1111 13.1368 17.9403 12.9656C17.1765 12.29 16.3013 11.7419 15.3507 11.3437C14.9703 11.1711 14.56 11.0682 14.1406 11.0403C13.7346 11.0534 13.3465 11.2047 13.0453 11.4674C12.744 11.7302 12.549 12.0873 12.4949 12.4755C12.4277 12.7358 12.4187 13.0068 12.4685 13.2706C12.5182 13.5345 12.6257 13.7851 12.7836 14.0058C12.9416 14.2265 13.1464 14.4123 13.3845 14.5508C13.6227 14.6894 13.8886 14.7774 14.1648 14.8092H15.4717M20.6388 18.0064C20.6291 18.2447 20.669 18.4825 20.7561 18.7057C20.8433 18.9289 20.976 19.133 21.1463 19.3059C21.3166 19.4789 21.5212 19.6171 21.7478 19.7126C21.9745 19.808 22.2187 19.8587 22.466 19.8617C23.3252 19.8617 24.1844 19.8617 25.0435 19.8617C27.4637 19.8617 29.9807 19.8617 32.4493 19.8617C32.7099 19.8745 32.9705 19.8355 33.2147 19.747C33.459 19.6585 33.6817 19.5224 33.8691 19.3473C34.0564 19.1721 34.2043 18.9616 34.3035 18.7289C34.4028 18.4962 34.4513 18.2463 34.4459 17.9947L20.6388 18.0064ZM20.0337 13.4674C19.9914 14.2355 20.185 14.9985 20.5904 15.661C20.7392 15.9532 20.9676 16.2008 21.2511 16.3776C21.5345 16.5543 21.8624 16.6535 22.1998 16.6645H32.8849C33.0537 16.6774 33.2233 16.6535 33.3811 16.5945C33.6796 16.4706 33.9491 16.29 34.1736 16.0634C34.3982 15.8369 34.5731 15.5691 34.688 15.276C34.9425 14.7053 35.0663 14.0884 35.051 13.4674H20.0337ZM16.4035 8.23989H38.6813C38.3303 7.8665 38.0036 7.51645 37.6648 7.18973L35.5471 5.17109C35.503 5.12342 35.4626 5.07272 35.4261 5.0194C35.1211 4.62993 34.7286 4.31213 34.278 4.08984C33.8274 3.86754 33.3304 3.74653 32.8244 3.73587C29.291 3.73587 25.7454 3.73587 22.2119 3.73587C21.7922 3.72877 21.3753 3.80367 20.9864 3.95608C20.5975 4.10849 20.2446 4.33524 19.949 4.62267C19.6465 4.89105 19.3682 5.20609 19.0778 5.48614L17.2747 7.2364L16.343 8.20488M11.0549 13.0123C11.2001 12.4639 11.3211 11.9155 11.5147 11.3787C11.8429 10.4958 12.377 9.69743 13.0757 9.04501C13.4871 8.67162 13.8623 8.26323 14.2132 7.87817C13.7913 7.65401 13.3868 7.40052 13.0031 7.11972C12.709 6.8745 12.4842 6.56136 12.3497 6.20958C12.1439 5.59115 12.4828 5.19443 13.112 4.89105C13.6776 4.63461 14.3068 4.53753 14.9272 4.611C15.5685 4.611 15.871 4.87938 16.0404 5.63783C16.0337 5.75053 16.0337 5.86351 16.0404 5.97621L17.0327 5.04274C17.0327 4.98439 17.1295 4.90272 17.19 4.85604C17.9524 4.1326 18.6784 3.37415 19.4771 2.70905C20.0062 2.29981 20.652 2.05561 21.3285 2.00894C21.5543 1.99702 21.7805 1.99702 22.0062 2.00894H32.9817C33.7867 1.98106 34.581 2.19291 35.2567 2.6157C35.7858 3.01108 36.287 3.43987 36.7572 3.89923V3.98091L38.7902 5.98788C38.8991 5.67283 38.9717 5.40446 39.0685 5.15942C39.1263 5.01836 39.2237 4.89561 39.3498 4.80493C39.4759 4.71425 39.6257 4.65922 39.7825 4.64601C40.4918 4.50954 41.2281 4.60393 41.8759 4.91438C42.0657 4.98912 42.2328 5.10913 42.3613 5.26318C42.4899 5.41722 42.5757 5.60023 42.6108 5.79503C42.6459 5.98983 42.629 6.19003 42.5619 6.37684C42.4947 6.56365 42.3794 6.73094 42.2268 6.86301C41.8367 7.33615 41.2899 7.6657 40.6779 7.79649C41.1862 8.29823 41.6581 8.7533 42.1179 9.22004C42.8411 9.99701 43.3709 10.9229 43.6669 11.9271C43.8777 12.6875 43.9674 13.4744 43.9331 14.2608C43.9331 15.4277 43.9331 16.5945 43.9331 17.7613C43.941 18.7096 43.6122 19.6319 43.0013 20.3751C42.929 20.4827 42.8911 20.6085 42.8924 20.7368C42.8924 21.2852 42.8924 21.8336 42.8924 22.382C42.8471 22.7654 42.6699 23.1231 42.3892 23.398C42.1084 23.6729 41.7403 23.8493 41.3435 23.8989C40.5448 23.8989 39.734 23.9573 38.9233 23.8989C38.6972 23.9005 38.473 23.8587 38.2638 23.776C38.0546 23.6933 37.8645 23.5713 37.7047 23.4171C37.5448 23.2629 37.4183 23.0797 37.3325 22.8779C37.2467 22.6762 37.2033 22.46 37.205 22.242V21.7403H17.8556C17.8556 21.9036 17.8556 22.067 17.8556 22.2187C17.8605 22.4397 17.8192 22.6593 17.7341 22.8645C17.649 23.0698 17.5219 23.2563 17.3604 23.4132C17.1989 23.57 17.0063 23.6938 16.7941 23.7773C16.5818 23.8608 16.3543 23.9021 16.1251 23.8989C15.3265 23.8989 14.5278 23.8989 13.705 23.8989C13.3132 23.8499 12.9494 23.6765 12.6712 23.4061C12.3929 23.1356 12.2159 22.7836 12.1681 22.4054C12.1681 21.8453 12.1681 21.2385 12.1681 20.7368C12.1736 20.6133 12.1398 20.4912 12.0713 20.3867C11.5969 19.8131 11.288 19.1288 11.1759 18.4031V18.2631L11.0549 13.0123Z" fill="#C3AD79"/>
</svg>
