<svg width="55" height="55" viewBox="0 0 55 55" fill="none" xmlns="http://www.w3.org/2000/svg">
<path d="M32.0974 5.02336C32.443 5.08856 32.7703 5.22656 33.0573 5.428C33.3442 5.62945 33.5841 5.88962 33.7605 6.19088C33.9341 6.67781 34.0489 7.18337 34.1026 7.69699C34.1262 7.92991 34.1262 8.1646 34.1026 8.39751H45.0248C45.29 8.35851 45.5607 8.38131 45.8154 8.46414C46.0701 8.54697 46.3018 8.68752 46.4919 8.8746C46.6821 9.06168 46.8255 9.29012 46.9107 9.54173C46.9959 9.79335 47.0206 10.0612 46.9828 10.3239V11.7366H8.03543C7.98819 11.0447 7.98819 10.3504 8.03543 9.65842C8.11243 9.27919 8.32864 8.94166 8.64231 8.71095C8.95598 8.48024 9.34488 8.37271 9.73392 8.40916H20.8685C20.6798 6.76296 21.128 5.49036 22.8736 5L32.0974 5.02336Z" fill="#C3AD79"/>
<path d="M24.6429 36.0907H22.7321C22.6146 36.0766 22.4957 36.101 22.3935 36.16C22.2913 36.219 22.2114 36.3095 22.1659 36.4177C21.7531 37.1532 21.3285 37.877 20.9039 38.6009C20.4792 39.3248 20.7859 39.7684 21.6116 39.7684H24.6429V36.0907ZM32.1682 32.8333C32.5102 33.4288 32.8405 34.0009 33.1472 34.5379C33.1875 34.6318 33.2578 34.7099 33.3472 34.7605C33.4367 34.8111 33.5404 34.8314 33.6426 34.8181H36.3436C36.9806 34.8181 37.3226 34.3511 37.016 33.779C36.5206 32.8333 35.9662 31.9343 35.4118 30.9886L32.1918 32.8333M25.5747 28.0465C25.9522 27.4044 26.3178 26.8089 26.6481 26.2018C26.6758 26.0616 26.6506 25.9162 26.5773 25.7932C26.1527 25.046 25.7045 24.2987 25.268 23.5398C24.8316 22.781 24.3009 22.8977 23.888 23.5398C23.6403 23.9485 23.4044 24.3688 23.1685 24.7891L22.3547 26.1785L25.5747 28.0232M29.7738 36.0674V34.2928L26.2352 37.9237L29.7738 41.5781V39.7567H30.3281C32.121 39.7567 33.8667 39.7567 35.7185 39.7567C35.9739 39.7899 36.2332 39.7393 36.4568 39.6128C36.6805 39.4863 36.8561 39.2908 36.957 39.0562C37.299 38.4141 37.7001 37.7953 38.0657 37.1532C38.4314 36.511 38.5021 36.1024 37.9006 35.3669C37.818 35.9623 37.4288 36.0674 36.9216 36.0674C35.2113 36.0674 33.501 36.0674 31.7907 36.0674H29.7502M19.5356 39.71C19.052 39.3131 19.1936 38.9278 19.4413 38.5425C20.6208 36.6511 21.6705 34.7364 22.7793 32.8333L23.027 32.4597L24.5839 33.3471C24.1003 31.6892 23.6285 30.113 23.1449 28.5135L18.2028 29.681L19.7715 30.6034C18.7454 32.3663 17.7428 34.1059 16.7284 35.7988C16.6132 35.9722 16.5519 36.1751 16.5519 36.3826C16.5519 36.5901 16.6132 36.793 16.7284 36.9664C17.1557 37.6236 17.5493 38.3016 17.9079 38.9979C18.032 39.3066 18.2721 39.5557 18.5779 39.6928C18.8836 39.83 19.2311 39.8445 19.5474 39.7334M24.9378 21.8353C25.0419 21.7904 25.1542 21.7673 25.2677 21.7673C25.3812 21.7674 25.4935 21.7905 25.5975 21.8354C25.7016 21.8804 25.7952 21.9461 25.8724 22.0284C25.9497 22.1107 26.0089 22.2079 26.0465 22.314C27.1553 24.252 28.2876 26.1785 29.4081 28.1516C29.4789 28.2683 29.5261 28.3851 29.5968 28.5135L28.0517 29.4125L32.9938 30.58C33.4774 28.9689 33.9374 27.416 34.4328 25.7465L32.8523 26.6221C32.7461 26.4353 32.6518 26.3069 32.5692 26.1551C31.661 24.6023 30.741 23.0612 29.8563 21.485C29.7548 21.2652 29.5867 21.0819 29.3754 20.9606C29.1642 20.8393 28.9201 20.7859 28.6768 20.8078C27.9455 20.8078 27.2024 20.8078 26.4594 20.8078C26.1174 20.7494 25.7659 20.8252 25.4796 21.0193C25.1932 21.2133 24.9946 21.5103 24.926 21.847M10.477 13.3591H44.4704C44.4704 14.2581 44.3761 15.157 44.3171 16.0444L43.7156 25.6764C43.4797 29.4359 43.2556 33.1836 43.0197 36.9313C42.8309 40.0836 42.6304 43.2476 42.4417 46.4C42.4417 47.4157 42.3237 48.4314 42.253 49.4472C42.2291 49.8634 42.0466 50.2552 41.7423 50.5434C41.438 50.8316 41.0346 50.9948 40.6134 51H14.6643C13.3314 51 12.7417 50.4162 12.6591 49.1086C12.376 44.4385 12.089 39.7684 11.7981 35.0983C11.5386 30.9069 11.2909 26.7272 11.0314 22.5358C10.8505 19.6403 10.6697 16.741 10.4888 13.8377V13.3357" fill="#C3AD79"/>
</svg>
