<svg width="55" height="55" viewBox="0 0 55 55" fill="none" xmlns="http://www.w3.org/2000/svg">
<path d="M15.2146 37.7745C15.2176 38.5166 15.0189 39.2456 14.6398 39.8841C14.2606 40.5225 13.7151 41.0467 13.0612 41.4007C12.3668 41.8255 11.5592 42.0295 10.7458 41.9854C9.93232 41.9414 9.1516 41.6515 8.50736 41.1543C7.91 40.7462 7.43332 40.1858 7.12701 39.5315C6.8207 38.8772 6.69598 38.1529 6.76584 37.4342L15.2146 37.7745ZM48.3623 41.964C47.7875 41.9836 47.2166 41.8628 46.6994 41.6121C46.1821 41.3615 45.734 40.9886 45.3942 40.5259C45.0543 40.0632 44.833 39.5247 44.7494 38.9572C44.6658 38.3898 44.7225 37.8105 44.9145 37.2699C44.9574 37.1669 45.0214 37.074 45.1025 36.9972C45.1836 36.9204 45.2799 36.8614 45.3852 36.8239C46.9384 36.3897 48.4917 35.9907 50.092 35.6504C50.1964 35.6325 50.3033 35.6357 50.4064 35.6599C50.5095 35.6841 50.6067 35.7288 50.6921 35.7912C51.2398 36.2597 51.6305 36.8843 51.8114 37.5809C51.9923 38.2775 51.9549 39.0126 51.7041 39.6874C51.4534 40.3648 51.0039 40.9511 50.414 41.3698C49.8241 41.7885 49.1214 42.0201 48.3976 42.0344M1 36.0025C1.17222 36.2682 1.40243 36.4918 1.67343 36.6564C1.94443 36.821 2.24921 36.9224 2.56502 36.953C2.97686 37.0469 3.38871 37.1056 3.83586 37.1995C3.75082 38.292 3.91884 39.3894 4.32691 40.4068C4.73498 41.4243 5.37218 42.3345 6.18926 43.0672C7.3348 44.1475 8.818 44.8022 10.3901 44.9213C12.2036 45.0792 14.0101 44.5496 15.4495 43.4381C16.8889 42.3267 17.8554 40.7151 18.1563 38.9246H18.7564C24.1222 38.9246 29.4762 38.9246 34.8302 38.9246C36.2208 38.9858 37.6025 38.6738 38.831 38.021L39.6664 37.4929C39.6664 37.6689 39.7488 37.8097 39.7723 37.9623C39.9018 38.772 39.9135 38.7837 40.6784 38.4199L41.5962 38.0327C41.5962 38.0327 41.7021 38.0327 41.761 38.0327C41.8551 41.4594 43.4083 43.9004 46.7855 44.7922C48.0361 45.1175 49.356 45.0598 50.5733 44.6265C51.7905 44.1932 52.8488 43.4045 53.6104 42.363C54.4618 41.2059 54.913 39.8042 54.896 38.3691C54.879 36.9339 54.3948 35.5432 53.5162 34.4065C53.7751 34.2187 54.0457 34.0309 54.2928 33.8197C54.4818 33.694 54.6415 33.5294 54.7613 33.3369C54.881 33.1444 54.958 32.9286 54.987 32.7039C55.016 32.4792 54.9963 32.251 54.9294 32.0345C54.8624 31.8181 54.7497 31.6185 54.5988 31.4492C53.943 30.3434 53.0154 29.4225 51.9036 28.7737C50.7918 28.1248 49.5325 27.7693 48.2446 27.7408H47.821C47.821 27.2362 47.7621 26.7198 47.6915 26.2034C47.6763 25.9165 47.5628 25.6435 47.3701 25.4299C47.1774 25.2164 46.917 25.0752 46.6325 25.0299C46.0559 24.8891 45.4558 24.7835 44.9027 24.6192C44.6681 24.5608 44.4655 24.4134 44.3379 24.2084C43.2671 21.8614 42.2317 19.5143 41.1844 17.0616C41.1844 17.0616 41.1844 17.0616 41.1844 16.9208C41.6322 16.8897 42.0769 16.823 42.514 16.7213C42.7612 16.6509 43.0906 16.4279 43.1377 16.2284C43.4494 14.927 43.4735 13.5735 43.2083 12.2619C43.1893 12.0493 43.1213 11.844 43.0096 11.662C42.898 11.48 42.7456 11.3262 42.5645 11.2126C42.3834 11.099 42.1784 11.0286 41.9655 11.0071C41.7527 10.9855 41.5377 11.0133 41.3373 11.0883C39.9097 11.3842 38.5468 11.9327 37.313 12.7078C36.5482 13.2124 36.4776 13.4002 36.6305 14.1982L34.5478 14.7849C34.1477 14.9023 33.9359 15.1839 34.0889 15.5829C34.2418 15.982 34.5596 16.0172 34.9126 15.8998L36.96 15.2192C37.1012 15.536 37.4072 15.9233 36.7718 16.2871C36.607 16.3692 36.5246 16.78 36.5835 17.0029C36.6423 17.2259 37.0071 17.3785 37.3248 17.2611L37.6543 17.1085C37.7366 17.3315 37.819 17.5428 37.8896 17.754C38.4544 19.3031 38.9604 20.8639 39.5723 22.4481C40.1194 23.7605 40.2944 25.1976 40.0783 26.6024C39.9051 28.2587 39.4515 29.8737 38.7368 31.3787C38.4761 31.9339 38.0876 32.4199 37.603 32.7971C37.1184 33.1744 36.5514 33.4323 35.948 33.5498C33.4357 34.1726 30.8256 34.3001 28.2642 33.9253C27.399 33.753 26.6134 33.3051 26.0255 32.649C25.4377 31.9929 25.0794 31.1641 25.0047 30.2874C25.0446 29.6851 25.2391 29.1032 25.5695 28.5975C26.1697 27.6469 26.911 26.7902 27.5817 25.8983C27.8523 25.5228 28.2642 25.1473 28.0288 24.6426C27.7935 24.138 27.2405 24.2906 26.8521 24.2906H9.99C9.77234 24.2774 9.55439 24.3115 9.35122 24.3905C9.14806 24.4695 8.96452 24.5916 8.8133 24.7483C8.69563 24.8774 8.5309 24.9595 8.425 25.0886C7.97166 25.6667 7.37128 26.1132 6.6863 26.3815C6.00132 26.6498 5.25678 26.7301 4.53011 26.6142C4.25221 26.6202 3.98542 26.7241 3.77702 26.9076C3.20043 27.3652 2.67092 27.8816 2.11787 28.3628C1.97589 28.4682 1.87175 28.6165 1.82089 28.7856C1.77002 28.9547 1.77513 29.1356 1.83547 29.3016C1.93953 29.6872 2.01814 30.0792 2.0708 30.4751C2.06532 30.6844 2.1276 30.8899 2.24841 31.0611C2.36923 31.2323 2.54214 31.3602 2.74152 31.4257C2.16494 32.7752 1.56482 34.1248 1.02354 35.4626L1 36.0025Z" fill="#C3AD79"/>
<path d="M16.8149 23.0237H7.40126C6.6364 23.0237 6.41283 22.836 6.48343 22.0966C6.55403 21.3573 6.71877 20.3716 6.87174 19.5149C6.90659 19.3041 7.02126 19.1148 7.19206 18.9859C7.36286 18.8571 7.57675 18.7986 7.78957 18.8225C10.5548 18.7286 13.3318 18.6112 16.0971 18.4939C18.2387 18.4 20.3803 18.2475 22.5219 18.2005C23.6986 18.2005 24.7929 18.3179 25.9226 18.4C26.1478 18.4352 26.3687 18.4942 26.5815 18.576C26.821 18.6263 27.0467 18.7276 27.2431 18.8731C27.4395 19.0186 27.602 19.2048 27.7194 19.4189C27.8368 19.633 27.9064 19.87 27.9232 20.1134C27.9401 20.3569 27.9038 20.6011 27.817 20.8292C27.6523 21.416 27.3934 22.0028 27.1699 22.5543C26.9463 23.1059 26.6639 23.0237 26.2638 23.0237C23.0985 23.0237 19.9449 23.0237 16.7796 23.0237" fill="#C3AD79"/>
</svg>
