<svg width="55" height="55" viewBox="0 0 55 55" fill="none" xmlns="http://www.w3.org/2000/svg">
<path d="M43.0412 49C42.133 48.8276 41.2713 48.466 40.5121 47.9387C39.5339 47.2075 38.8379 46.1615 38.5415 44.977C38.245 43.7926 38.3662 42.5422 38.8847 41.4367C39.4032 40.3312 40.2872 39.4382 41.3876 38.9083C42.4881 38.3785 43.7377 38.2442 44.9257 38.5281C46.1137 38.812 47.1674 39.4967 47.9091 40.4668C48.6509 41.4368 49.0353 42.6329 48.9975 43.8533C48.9597 45.0737 48.502 46.2437 47.7017 47.166C46.9013 48.0884 45.8073 48.7066 44.604 48.9165C44.5255 48.9356 44.4494 48.9636 44.3773 49H43.0412Z" fill="#C3AD79"/>
<path d="M6 43.0374C6.07158 42.7393 6.14316 42.4412 6.22666 42.1431C6.50146 41.2417 7.01192 40.43 7.70535 39.7917C8.39879 39.1534 9.25008 38.7117 10.1714 38.5121C11.0926 38.3125 12.0505 38.3623 12.9461 38.6563C13.8417 38.9503 14.6425 39.4779 15.266 40.1847C15.8895 40.8914 16.313 41.7516 16.4928 42.6766C16.6726 43.6016 16.6022 44.5578 16.2888 45.4464C15.9755 46.3351 15.4305 47.1241 14.7103 47.732C13.99 48.3398 13.1204 48.7445 12.1914 48.9043L11.9171 48.9997H10.7241L10.402 48.9043C9.42501 48.7384 8.51476 48.3001 7.77607 47.6397C7.03739 46.9794 6.5003 46.124 6.22666 45.1719C6.14316 44.9096 6.08351 44.6472 6.02386 44.373L6 43.0374Z" fill="#C3AD79"/>
<path d="M18.7169 46.2809C19.162 44.9414 19.2453 43.5081 18.9583 42.1261C18.6713 40.7441 18.0243 39.4624 17.0825 38.4106H17.6313C22.7371 38.4106 27.843 38.4106 32.9488 38.4106C33.1513 38.4262 33.3541 38.3841 33.5336 38.2891C33.713 38.1941 33.8619 38.0502 33.9628 37.874C34.8933 36.4908 35.8596 35.1433 36.814 33.772L37.1122 33.3904C37.3866 34.4517 37.6491 35.4414 37.8996 36.4312C37.8998 36.5658 37.8534 36.6964 37.7684 36.8008L31.5531 45.7085C31.4262 45.9067 31.2489 46.0675 31.0392 46.1744C30.8295 46.2813 30.5951 46.3304 30.3601 46.3166H18.7169" fill="#C3AD79"/>
<path d="M42.9577 35.8235L40.5718 36.4555C40.5718 36.3721 40.5002 36.2409 40.4644 36.1097C38.0149 26.6734 35.5654 17.2411 33.1158 7.81272C33.0249 7.60118 32.9919 7.36931 33.0201 7.14081C33.0482 6.91232 33.1366 6.69541 33.2761 6.51225C33.4157 6.3291 33.6014 6.18629 33.8143 6.09842C34.0272 6.01054 34.2596 5.98076 34.4877 6.01211C36.1579 6.01211 37.8161 6.01211 39.4862 6.01211C39.6618 5.99501 39.839 6.01481 40.0065 6.07025C40.1739 6.12569 40.3279 6.21553 40.4586 6.33401C40.5892 6.45249 40.6936 6.597 40.7651 6.75822C40.8365 6.91944 40.8734 7.09382 40.8734 7.27015C40.8734 7.44648 40.8365 7.62087 40.7651 7.78209C40.6936 7.94332 40.5892 8.0878 40.4586 8.20628C40.3279 8.32477 40.1739 8.41463 40.0065 8.47006C39.839 8.5255 39.6618 8.54531 39.4862 8.5282H35.9074C38.2933 17.6545 40.6553 26.7529 42.9935 35.8235" fill="#C3AD79"/>
</svg>
